<svg id="svg" version="1.1" xmlns="http://www.w3.org/2000/svg" xmlns:xlink="http://www.w3.org/1999/xlink" width="400" height="400" viewBox="0, 0, 400,400"><g id="svgg"><path id="path0" d="M148.561 209.608 C 138.437 212.860,130.791 226.779,136.517 231.531 C 136.862 231.817,137.998 233.214,139.041 234.635 C 140.115 236.098,141.342 237.321,141.869 237.453 C 142.381 237.582,142.800 237.814,142.800 237.969 C 142.800 238.319,145.901 240.000,146.547 240.000 C 146.806 240.000,147.648 240.520,148.419 241.155 C 151.178 243.429,165.407 243.716,168.484 241.560 C 169.080 241.142,169.853 240.800,170.202 240.800 C 170.987 240.800,176.741 237.004,177.709 235.847 C 179.383 233.849,180.896 231.358,180.892 230.609 C 180.865 225.499,175.141 215.298,171.075 213.115 C 170.374 212.739,169.260 212.149,168.600 211.804 C 167.940 211.459,166.856 210.848,166.190 210.447 C 163.427 208.780,152.724 208.271,148.561 209.608 M236.982 209.369 C 235.873 209.648,234.502 210.130,233.937 210.439 C 233.372 210.747,231.834 211.573,230.519 212.273 C 227.271 214.003,222.039 219.555,222.011 221.300 C 222.005 221.685,221.820 222.000,221.600 222.000 C 221.380 222.000,221.200 222.281,221.200 222.625 C 221.200 223.466,219.971 227.280,219.507 227.880 C 217.562 230.394,224.653 240.000,228.454 240.000 C 228.653 240.000,229.539 240.457,230.424 241.015 C 233.415 242.903,239.620 243.638,245.600 242.813 C 248.784 242.374,250.148 241.955,252.932 240.565 C 253.555 240.254,254.292 240.000,254.570 240.000 C 254.848 240.000,255.402 239.640,255.800 239.200 C 256.198 238.760,256.721 238.399,256.962 238.398 C 257.791 238.393,263.766 231.593,264.939 229.320 C 266.435 226.423,265.017 221.627,261.092 216.307 C 256.638 210.272,245.787 207.149,236.982 209.369 M164.144 211.298 C 171.024 214.934,174.605 223.274,171.832 229.200 C 170.587 231.859,169.556 233.404,168.296 234.500 C 166.790 235.809,165.457 236.063,166.574 234.829 C 168.492 232.709,166.388 231.819,163.749 233.635 C 161.450 235.217,161.505 236.214,163.888 236.167 C 165.473 236.136,165.525 236.172,164.992 236.933 C 163.240 239.435,153.275 239.500,151.219 237.023 C 150.935 236.680,150.471 236.400,150.188 236.400 C 149.333 236.400,146.107 232.502,144.955 230.077 C 142.399 224.694,144.626 215.987,149.311 213.046 C 155.010 209.469,159.649 208.922,164.144 211.298 M247.840 211.450 C 257.468 216.507,259.313 230.196,251.045 235.238 C 249.306 236.298,248.882 236.187,250.158 235.004 C 252.569 232.770,249.696 231.482,247.091 233.629 C 245.013 235.342,245.232 236.400,247.666 236.400 C 248.837 236.400,248.363 237.290,246.771 238.081 C 244.421 239.248,236.194 238.910,235.200 237.607 C 235.090 237.462,234.010 236.617,232.800 235.729 C 229.346 233.192,227.387 229.068,227.436 224.431 C 227.474 220.798,227.724 219.988,229.926 216.372 C 233.535 210.443,241.669 208.209,247.840 211.450 M150.695 216.264 C 148.534 217.802,148.571 219.805,150.789 221.323 C 154.079 223.575,157.594 219.255,154.769 216.431 C 153.263 214.925,152.615 214.898,150.695 216.264 M234.042 216.360 C 232.413 217.882,232.359 219.630,233.898 221.056 C 237.010 223.940,241.084 219.422,238.080 216.419 C 236.558 214.897,235.624 214.883,234.042 216.360 M106.209 252.965 C 105.323 253.327,104.907 253.899,104.427 255.419 L 103.800 257.400 95.839 257.509 C 88.753 257.605,87.809 257.697,87.239 258.339 C 86.888 258.736,86.041 259.304,85.359 259.602 C 82.547 260.828,82.193 262.057,82.258 270.370 C 82.385 286.613,82.613 296.313,82.865 296.159 C 83.416 295.820,84.116 304.304,84.797 319.600 C 85.028 324.770,85.391 331.790,85.605 335.200 C 85.819 338.610,86.183 346.170,86.414 352.000 C 86.645 357.830,87.022 363.680,87.252 365.000 C 87.482 366.320,87.568 368.556,87.444 369.969 C 87.298 371.621,87.380 372.734,87.672 373.086 C 88.011 373.496,88.009 373.751,87.663 374.097 C 87.072 374.688,87.070 377.619,87.659 380.550 C 88.010 382.301,88.005 383.043,87.637 383.730 C 87.251 384.453,87.277 384.857,87.776 385.813 C 88.117 386.466,88.396 387.594,88.398 388.320 C 88.400 389.864,89.307 391.802,90.185 392.139 C 90.523 392.269,90.800 392.584,90.800 392.841 C 90.800 394.168,93.927 395.772,97.600 396.329 C 99.225 396.575,127.583 396.743,173.200 396.777 C 213.350 396.807,259.070 396.870,274.800 396.916 L 303.400 397.000 305.600 396.031 C 309.654 394.245,310.740 392.238,310.972 386.102 C 311.061 383.736,311.358 381.260,311.631 380.600 C 311.956 379.812,312.171 376.449,312.257 370.800 C 312.328 366.070,312.572 359.410,312.798 356.000 C 313.024 352.590,313.282 347.730,313.370 345.200 C 313.980 327.820,314.524 316.483,315.222 306.600 C 315.439 303.520,315.793 297.111,316.008 292.359 C 316.432 282.988,316.737 279.914,317.211 280.207 C 317.675 280.494,317.270 263.510,316.802 263.042 C 316.581 262.821,316.400 262.419,316.400 262.149 C 316.400 261.621,313.655 259.200,313.056 259.200 C 312.857 259.200,312.385 258.844,312.008 258.409 C 311.378 257.683,310.719 257.610,303.970 257.509 L 296.618 257.400 295.516 255.100 C 293.884 251.695,289.345 252.634,290.026 256.235 C 290.064 256.436,290.073 256.786,290.047 257.014 C 290.015 257.299,261.827 257.424,200.133 257.414 L 110.267 257.400 109.968 256.400 C 109.804 255.850,109.569 254.936,109.445 254.369 C 109.139 252.969,107.713 252.350,106.209 252.965 " stroke="none" fill="#aaabb0" fill-rule="evenodd"></path><path id="path1" d="M183.000 57.191 C 180.996 57.555,179.362 58.214,178.998 58.803 C 178.844 59.052,178.332 59.412,177.859 59.603 C 177.253 59.847,177.859 59.957,179.920 59.975 C 182.807 60.000,184.606 59.451,185.909 58.148 C 186.210 57.847,186.635 57.600,186.852 57.600 C 187.069 57.600,187.136 57.420,187.000 57.200 C 186.725 56.756,185.411 56.753,183.000 57.191 M215.200 60.278 C 213.354 60.477,211.706 61.146,211.456 61.799 C 210.519 64.239,224.581 67.743,226.094 65.446 C 227.439 63.405,225.996 61.680,222.179 60.767 C 219.095 60.029,218.143 59.962,215.200 60.278 M244.267 61.867 C 243.723 62.410,244.042 62.805,245.700 63.646 C 246.635 64.120,247.972 65.006,248.670 65.616 C 251.138 67.768,254.054 67.555,252.794 65.315 C 251.668 63.311,245.369 60.764,244.267 61.867 M182.200 63.666 C 173.489 65.885,172.686 66.981,177.140 70.579 C 181.753 74.306,186.673 75.451,192.024 74.042 C 193.844 73.562,195.528 72.929,195.767 72.633 C 196.005 72.338,196.671 71.987,197.247 71.854 C 199.891 71.242,199.831 67.899,197.139 65.893 C 195.044 64.331,185.295 62.878,182.200 63.666 M150.800 65.192 C 150.250 65.386,148.990 65.768,148.000 66.042 C 147.010 66.315,146.029 66.688,145.820 66.870 C 145.611 67.051,145.159 67.200,144.816 67.200 C 144.473 67.200,143.951 67.586,143.656 68.059 C 143.218 68.760,143.049 68.815,142.734 68.359 C 142.460 67.963,142.426 68.077,142.616 68.747 C 142.812 69.439,142.740 69.647,142.351 69.517 C 141.830 69.343,141.469 69.548,140.046 70.825 C 139.663 71.169,139.176 71.392,138.964 71.321 C 138.178 71.059,138.557 74.833,139.376 75.432 C 141.528 77.005,148.548 75.117,152.113 72.006 C 153.041 71.196,155.075 69.793,156.633 68.888 C 160.128 66.859,160.650 66.305,159.764 65.570 C 158.999 64.935,152.327 64.654,150.800 65.192 M237.369 70.537 C 236.954 71.617,237.377 72.574,238.404 72.878 C 238.952 73.040,240.645 73.538,242.167 73.986 C 248.190 75.757,250.561 74.747,246.939 71.953 C 244.377 69.975,237.949 69.024,237.369 70.537 M204.800 74.051 C 199.047 75.321,196.772 80.006,200.977 81.922 C 201.429 82.128,203.398 83.061,205.352 83.994 C 209.312 85.885,209.290 85.884,216.800 84.623 C 224.794 83.281,225.867 82.682,225.531 79.748 C 225.358 78.231,220.144 74.626,217.538 74.222 C 214.466 73.746,206.656 73.641,204.800 74.051 M122.400 77.937 C 119.840 79.133,117.767 81.069,117.086 82.900 C 116.650 84.070,117.408 83.703,120.267 81.359 C 121.770 80.127,123.495 78.862,124.100 78.549 C 125.791 77.674,124.193 77.099,122.400 77.937 M266.619 80.900 C 266.769 81.395,267.195 82.160,267.566 82.600 C 267.937 83.040,268.759 84.178,269.394 85.128 C 271.537 88.338,278.989 90.554,280.971 88.571 C 281.877 87.666,281.811 87.520,279.575 85.492 C 275.264 81.581,265.809 78.230,266.619 80.900 M155.600 81.614 C 150.135 82.264,144.431 85.396,142.960 88.556 C 141.262 92.202,142.170 96.547,144.743 97.084 C 156.437 99.529,166.758 92.063,163.520 83.501 C 163.131 82.473,160.085 81.073,158.627 81.253 C 158.392 81.281,157.030 81.444,155.600 81.614 M243.700 82.788 C 242.637 83.244,242.513 84.612,243.417 85.904 C 245.027 88.202,255.232 89.775,255.519 87.768 C 255.922 84.944,247.220 81.277,243.700 82.788 M188.875 88.659 C 180.920 90.604,178.430 91.752,175.900 94.640 C 172.095 98.984,174.306 104.442,178.800 101.800 C 179.350 101.477,180.160 101.089,180.600 100.938 C 181.040 100.787,182.750 99.950,184.400 99.078 C 188.035 97.157,190.666 96.405,192.762 96.686 C 196.451 97.180,198.434 94.277,196.942 90.567 C 195.875 87.912,193.868 87.437,188.875 88.659 M221.100 89.627 C 220.715 89.854,220.400 90.273,220.400 90.558 C 220.400 90.843,220.040 91.402,219.600 91.800 C 219.160 92.198,218.800 92.680,218.800 92.872 C 218.800 93.063,218.170 94.135,217.400 95.255 C 215.224 98.417,215.627 99.401,219.573 100.561 C 227.229 102.813,232.712 97.956,228.601 92.565 C 226.973 90.431,222.625 88.728,221.100 89.627 M118.600 91.263 C 113.878 93.853,111.658 98.992,113.608 102.816 C 114.680 104.917,115.544 104.856,118.078 102.500 C 121.269 99.534,123.747 93.600,121.794 93.600 C 121.290 93.600,121.216 93.319,121.426 92.200 C 121.715 90.662,120.456 90.245,118.600 91.263 M242.956 94.751 C 240.648 95.517,240.552 95.867,242.323 97.060 C 244.965 98.840,253.540 101.431,254.294 100.677 C 255.169 99.802,251.992 96.134,249.800 95.489 C 245.010 94.080,244.986 94.078,242.956 94.751 M280.494 98.815 C 278.041 99.800,278.477 109.200,280.975 109.200 C 284.439 109.200,286.661 102.199,284.031 99.569 C 282.820 98.359,282.042 98.193,280.494 98.815 M155.400 113.281 C 151.117 114.774,150.248 119.417,154.105 120.202 C 156.377 120.664,161.031 122.301,163.199 123.399 C 165.735 124.684,166.212 124.361,165.180 122.056 C 164.738 121.068,164.397 119.421,164.394 118.256 C 164.381 113.730,160.412 111.534,155.400 113.281 M188.162 115.190 C 187.026 115.649,184.400 118.771,184.400 119.663 C 184.400 122.844,191.147 121.931,192.908 118.512 L 193.610 117.148 192.436 115.974 C 191.229 114.768,189.837 114.512,188.162 115.190 M220.256 118.476 C 219.128 120.231,219.251 122.486,220.513 123.186 C 221.292 123.618,221.706 123.670,221.910 123.360 C 222.070 123.118,222.605 122.706,223.100 122.446 C 224.066 121.937,224.279 120.839,223.554 120.114 C 223.308 119.868,222.899 119.249,222.644 118.737 C 222.013 117.472,220.974 117.358,220.256 118.476 M243.000 119.448 C 239.944 121.585,239.450 123.696,241.457 126.031 C 241.756 126.379,242.006 126.829,242.013 127.031 C 242.043 127.911,244.097 129.664,245.303 129.840 C 246.913 130.075,247.313 129.803,248.253 127.838 C 248.895 126.497,249.273 126.208,250.933 125.792 C 254.994 124.773,256.618 121.940,253.924 120.574 C 253.196 120.205,252.330 119.670,252.000 119.385 C 251.560 119.004,245.616 117.837,245.071 118.024 C 245.032 118.038,244.100 118.678,243.000 119.448 M129.500 120.915 C 126.776 123.249,127.414 125.257,132.736 131.102 C 135.462 134.097,138.615 136.400,139.987 136.400 C 140.482 136.400,140.542 134.320,140.062 133.780 C 139.571 133.227,138.057 128.894,137.624 126.800 C 136.838 123.000,136.444 121.932,135.537 121.137 C 133.364 119.232,131.543 119.165,129.500 120.915 M266.006 121.700 C 266.014 123.364,266.499 124.116,267.448 123.936 C 268.500 123.736,268.693 121.709,267.730 120.979 C 266.530 120.069,265.999 120.292,266.006 121.700 M109.279 125.069 C 106.375 126.500,106.482 128.159,109.600 130.063 C 113.569 132.486,116.392 129.337,113.200 126.048 C 111.415 124.208,111.157 124.144,109.279 125.069 M192.600 148.201 C 192.380 148.294,184.280 148.425,174.600 148.492 C 157.604 148.608,156.945 148.641,155.400 149.454 C 154.520 149.917,153.233 150.593,152.540 150.957 C 151.108 151.709,144.020 152.497,143.379 151.976 C 143.148 151.787,142.593 151.729,142.145 151.846 C 141.698 151.963,139.410 151.415,137.060 150.629 C 134.711 149.843,132.376 149.200,131.873 149.200 C 130.633 149.200,125.788 152.980,125.196 154.410 C 124.934 155.043,124.329 155.817,123.852 156.129 C 122.767 156.840,121.482 160.492,120.387 165.975 C 119.929 168.272,119.457 170.307,119.339 170.499 C 119.220 170.690,118.771 173.582,118.339 176.924 C 117.267 185.224,116.980 186.988,116.210 190.000 C 115.845 191.430,115.285 194.040,114.967 195.800 C 114.649 197.560,114.127 200.350,113.807 202.000 C 113.487 203.650,113.008 207.572,112.742 210.716 C 112.230 216.770,111.739 217.720,110.481 215.095 C 110.193 214.493,109.741 213.979,109.478 213.954 C 109.215 213.928,108.730 213.883,108.400 213.854 C 108.070 213.824,107.850 213.561,107.910 213.270 C 107.983 212.917,107.768 212.820,107.267 212.979 C 106.824 213.119,106.302 212.964,106.001 212.602 C 104.863 211.230,102.831 210.628,101.258 211.196 C 99.108 211.973,97.662 213.766,96.640 216.925 C 96.511 217.324,96.269 217.567,96.103 217.464 C 95.936 217.361,95.800 220.755,95.800 225.005 C 95.800 229.935,95.945 232.709,96.200 232.667 C 96.430 232.628,96.600 233.622,96.600 235.000 C 96.600 236.371,96.814 237.627,97.100 237.929 C 97.375 238.219,97.600 238.824,97.600 239.271 C 97.600 240.004,97.885 241.452,99.261 247.715 C 99.674 249.597,99.740 249.985,100.249 253.598 C 100.405 254.702,100.799 255.604,101.270 255.934 C 101.875 256.358,101.939 256.592,101.570 257.036 C 100.971 257.758,101.577 257.744,102.541 257.013 C 103.256 256.472,103.243 256.368,102.200 254.126 C 100.416 250.291,98.886 242.840,97.987 233.600 C 97.561 229.230,97.712 228.397,98.927 228.409 C 100.959 228.428,102.107 231.166,104.001 240.503 C 104.660 243.750,105.542 247.170,105.961 248.103 C 106.381 249.036,106.835 250.295,106.970 250.900 C 107.114 251.544,107.483 252.000,107.861 252.000 C 108.713 252.000,110.397 253.986,110.406 255.000 C 110.422 257.019,110.359 257.009,122.476 256.879 C 135.164 256.743,134.259 256.886,133.599 255.120 C 133.327 254.394,132.837 253.080,132.510 252.200 C 132.183 251.320,131.827 250.060,131.718 249.400 C 131.610 248.740,131.360 247.900,131.164 247.533 C 130.968 247.166,130.706 244.556,130.584 241.733 C 130.461 238.910,130.054 234.530,129.680 232.000 C 128.591 224.635,129.049 215.774,131.175 203.032 C 131.738 199.657,131.771 199.600,133.172 199.600 C 133.851 199.600,135.545 198.785,137.445 197.545 C 143.037 193.895,147.013 193.258,155.600 194.639 C 157.690 194.976,160.069 195.348,160.886 195.466 C 161.710 195.585,162.815 196.124,163.367 196.676 C 163.989 197.298,164.556 197.554,164.881 197.359 C 165.276 197.121,165.271 197.206,164.857 197.716 C 164.254 198.460,161.994 199.194,160.300 199.198 C 159.695 199.199,159.200 199.351,159.200 199.536 C 159.200 199.721,158.435 200.113,157.500 200.407 C 156.565 200.701,155.530 201.165,155.200 201.438 C 154.463 202.047,151.578 203.695,149.317 204.800 C 148.391 205.253,147.536 205.780,147.417 205.973 C 147.166 206.379,143.273 208.659,141.147 209.645 C 140.348 210.016,139.628 210.472,139.547 210.659 C 139.466 210.847,138.523 211.705,137.452 212.566 C 136.381 213.428,135.271 214.688,134.987 215.366 C 134.703 216.045,133.993 217.047,133.409 217.594 C 131.509 219.375,131.044 220.865,131.634 223.288 C 132.377 226.336,134.000 228.042,134.000 225.774 C 134.000 225.209,134.209 224.354,134.465 223.874 C 134.886 223.084,134.867 223.053,134.265 223.549 C 133.400 224.263,133.385 223.665,134.192 220.568 C 135.549 215.355,141.116 209.736,146.620 208.023 C 147.489 207.752,148.811 207.256,149.557 206.919 C 159.349 202.508,179.130 212.561,179.364 222.067 C 179.384 222.874,179.535 223.669,179.700 223.834 C 179.865 223.998,180.001 224.508,180.002 224.967 C 180.004 225.425,180.290 226.340,180.639 227.000 C 180.987 227.660,181.391 229.370,181.536 230.800 L 181.800 233.400 184.080 233.450 L 186.359 233.499 187.280 231.650 C 189.458 227.272,188.098 212.194,185.191 208.498 C 184.756 207.945,184.400 207.156,184.400 206.746 C 184.400 206.336,184.220 206.000,184.000 206.000 C 183.780 206.000,183.600 205.764,183.600 205.475 C 183.600 204.832,181.436 202.697,181.113 203.021 C 180.985 203.148,180.187 202.548,179.340 201.687 C 178.493 200.826,177.460 200.000,177.046 199.852 C 176.373 199.613,176.355 199.508,176.878 198.892 C 179.402 195.921,179.401 189.392,176.877 188.041 C 165.718 182.069,144.512 180.370,137.626 184.897 C 133.293 187.745,133.600 188.096,133.600 180.308 C 133.600 175.012,133.488 173.739,132.972 173.169 C 132.563 172.717,132.288 171.460,132.184 169.568 C 132.096 167.970,131.837 166.546,131.608 166.405 C 131.380 166.264,131.175 164.945,131.153 163.474 C 131.131 162.003,130.952 160.800,130.756 160.800 C 130.373 160.800,130.252 156.282,130.625 155.908 C 130.749 155.784,131.964 155.960,133.325 156.300 C 140.012 157.968,148.923 156.980,154.668 153.934 L 157.800 152.274 165.400 152.089 C 169.580 151.988,173.091 151.791,173.201 151.652 C 174.661 149.820,179.304 148.950,184.000 149.627 C 188.085 150.216,190.485 150.167,195.887 149.383 C 200.255 148.749,204.297 148.984,210.197 150.215 C 213.408 150.884,220.735 150.992,222.800 150.400 C 224.857 149.810,230.901 151.064,235.400 153.014 C 240.626 155.279,252.157 155.593,257.365 153.613 C 258.619 153.136,262.922 153.055,263.367 153.500 C 263.532 153.665,263.787 153.801,263.933 153.801 C 264.392 153.804,267.757 154.871,268.700 155.313 C 269.631 155.750,270.131 160.800,269.244 160.800 C 269.048 160.800,268.869 162.003,268.847 163.474 C 268.825 164.945,268.620 166.264,268.392 166.405 C 268.163 166.546,267.904 167.970,267.816 169.568 C 267.712 171.460,267.437 172.717,267.028 173.169 C 266.512 173.739,266.400 175.012,266.400 180.308 C 266.400 188.096,266.707 187.745,262.374 184.897 C 255.488 180.370,234.282 182.069,223.123 188.041 C 220.644 189.368,220.693 197.450,223.188 198.993 C 223.635 199.269,222.446 200.800,221.786 200.800 C 221.650 200.800,220.990 201.348,220.321 202.018 C 219.651 202.688,219.002 203.135,218.879 203.012 C 218.562 202.695,216.400 204.842,216.400 205.475 C 216.400 205.764,216.220 206.000,216.000 206.000 C 215.780 206.000,215.600 206.336,215.600 206.746 C 215.600 207.156,215.246 207.942,214.814 208.492 C 211.896 212.201,210.538 227.262,212.724 231.657 L 213.648 233.515 215.724 233.416 C 216.866 233.362,217.935 233.291,218.100 233.259 C 218.265 233.226,218.400 232.201,218.400 230.979 C 218.400 229.577,218.681 228.213,219.164 227.279 C 220.533 224.627,220.787 223.818,220.636 222.600 C 220.006 217.525,227.580 210.104,236.200 207.350 C 249.998 202.942,266.371 211.977,266.372 224.000 L 266.372 225.000 265.758 224.000 C 265.359 223.350,265.244 223.280,265.429 223.800 C 265.585 224.240,265.798 225.095,265.902 225.700 C 266.268 227.830,267.626 226.453,268.375 223.193 C 268.904 220.894,268.103 218.432,266.643 217.872 C 266.356 217.762,265.742 216.864,265.278 215.877 C 264.794 214.847,263.617 213.425,262.518 212.541 C 261.464 211.693,260.339 210.751,260.018 210.446 C 259.697 210.141,258.977 209.690,258.417 209.444 C 256.983 208.813,253.500 206.724,252.882 206.124 C 252.598 205.848,251.608 205.252,250.682 204.800 C 248.421 203.695,245.537 202.046,244.800 201.438 C 244.470 201.165,243.435 200.701,242.500 200.407 C 241.565 200.113,240.800 199.721,240.800 199.536 C 240.800 199.351,240.305 199.199,239.700 199.198 C 238.444 199.195,235.600 198.469,235.600 198.150 C 235.600 197.478,238.040 195.672,239.216 195.475 C 252.417 193.263,256.604 193.501,261.295 196.728 C 264.103 198.659,265.967 199.600,266.989 199.600 C 268.409 199.600,268.085 198.241,270.230 213.200 C 271.118 219.394,271.152 226.375,270.320 232.000 C 269.946 234.530,269.539 238.910,269.416 241.733 C 269.294 244.556,269.032 247.166,268.836 247.533 C 268.640 247.900,268.383 248.740,268.266 249.400 C 268.000 250.897,267.467 252.563,266.640 254.487 C 266.288 255.305,266.000 256.134,266.000 256.330 C 266.000 256.776,285.251 257.361,287.723 256.991 C 288.917 256.812,289.479 256.549,289.355 256.228 C 288.912 255.073,290.935 252.000,292.139 252.000 C 292.517 252.000,292.887 251.544,293.030 250.900 C 293.165 250.295,293.619 249.036,294.039 248.103 C 294.458 247.170,295.340 243.750,295.999 240.503 C 297.987 230.698,299.036 228.235,301.121 228.475 L 302.200 228.600 302.096 232.000 C 302.039 233.870,301.823 236.390,301.615 237.600 C 301.408 238.810,301.030 241.240,300.776 243.000 C 300.521 244.760,300.247 246.470,300.166 246.800 C 299.769 248.423,298.387 252.807,297.751 254.460 C 297.151 256.019,297.121 256.423,297.567 256.960 C 298.333 257.883,298.634 257.752,298.616 256.500 C 298.606 255.817,298.793 255.439,299.108 255.503 C 299.457 255.573,299.541 255.304,299.376 254.646 C 299.243 254.118,299.394 253.172,299.711 252.543 C 300.028 251.914,300.308 250.704,300.333 249.854 C 300.358 249.003,300.546 248.103,300.750 247.854 C 300.954 247.604,301.214 246.410,301.328 245.200 C 301.620 242.080,302.573 238.276,303.105 238.098 C 303.401 238.000,303.477 237.280,303.326 236.007 C 303.082 233.946,303.416 231.839,303.935 232.160 C 304.107 232.266,304.237 228.962,304.224 224.816 C 304.211 220.671,304.064 217.363,303.897 217.465 C 303.731 217.567,303.489 217.324,303.360 216.925 C 301.655 211.657,299.047 209.928,295.396 211.644 C 294.408 212.108,293.600 212.668,293.600 212.887 C 293.600 213.106,293.342 213.186,293.026 213.065 C 292.710 212.944,292.386 213.041,292.307 213.280 C 292.227 213.519,291.658 213.769,291.042 213.834 C 289.837 213.963,288.833 214.977,288.813 216.087 C 288.805 216.498,288.582 216.691,288.259 216.567 C 287.877 216.421,287.647 215.161,287.476 212.280 C 287.264 208.721,286.010 200.355,284.855 194.800 C 284.649 193.810,284.024 190.840,283.466 188.200 C 282.908 185.560,282.177 181.060,281.841 178.200 C 280.869 169.933,280.646 168.748,279.054 163.400 C 278.726 162.300,278.246 160.680,277.987 159.800 C 275.418 151.071,265.666 146.623,254.297 148.995 C 252.704 149.327,250.671 149.599,249.780 149.600 C 248.889 149.600,247.942 149.818,247.675 150.085 C 247.007 150.753,238.290 150.563,236.856 149.849 C 234.667 148.758,194.775 147.272,192.600 148.201 M133.067 167.067 C 132.524 167.610,132.787 168.780,133.400 168.545 C 133.730 168.418,134.000 167.974,134.000 167.557 C 134.000 166.797,133.565 166.569,133.067 167.067 M266.000 167.524 C 266.000 167.959,266.282 168.423,266.628 168.555 C 267.097 168.735,267.223 168.578,267.128 167.929 C 266.964 166.815,266.000 166.468,266.000 167.524 M156.630 183.809 C 159.034 184.144,162.710 184.889,164.800 185.464 C 166.890 186.040,169.320 186.654,170.200 186.829 C 176.120 188.005,178.861 191.069,177.159 194.608 C 176.087 196.838,174.378 197.587,171.920 196.905 C 169.645 196.273,167.814 195.863,164.527 195.246 C 163.386 195.032,162.126 194.683,161.727 194.471 C 157.470 192.210,144.829 191.648,141.400 193.567 C 140.080 194.306,138.190 195.355,137.200 195.897 C 136.210 196.440,135.187 197.057,134.926 197.270 C 133.076 198.774,131.988 195.572,133.343 192.613 C 136.852 184.948,144.382 182.102,156.630 183.809 M258.758 184.848 C 264.912 187.877,269.597 195.489,266.370 197.216 C 265.837 197.501,265.382 197.520,265.074 197.270 C 264.813 197.057,263.745 196.415,262.700 195.842 C 261.655 195.269,259.945 194.326,258.900 193.747 C 257.855 193.168,256.514 192.553,255.920 192.381 C 254.265 191.900,244.991 192.698,241.400 193.630 C 236.660 194.861,233.595 195.620,231.800 196.009 C 230.920 196.200,229.466 196.516,228.569 196.712 C 227.672 196.907,226.749 197.184,226.518 197.327 C 225.822 197.757,223.449 195.890,222.668 194.297 C 220.888 190.666,223.787 188.202,232.200 186.198 C 233.740 185.831,236.350 185.207,238.000 184.811 C 246.641 182.736,254.496 182.750,258.758 184.848 M237.045 208.728 C 236.933 208.908,237.373 208.977,238.021 208.882 C 238.670 208.787,239.200 208.640,239.200 208.555 C 239.200 208.250,237.243 208.407,237.045 208.728 M167.709 210.800 C 168.269 211.240,168.857 211.600,169.017 211.600 C 169.177 211.600,168.850 211.240,168.291 210.800 C 167.731 210.360,167.143 210.000,166.983 210.000 C 166.823 210.000,167.150 210.360,167.709 210.800 M231.893 210.800 C 231.516 211.240,231.377 211.600,231.584 211.600 C 231.791 211.600,232.104 211.356,232.280 211.059 C 232.456 210.761,232.870 210.415,233.200 210.290 C 233.726 210.091,233.725 210.059,233.189 210.032 C 232.853 210.014,232.270 210.360,231.893 210.800 M254.509 210.800 C 255.069 211.240,255.657 211.600,255.817 211.600 C 255.977 211.600,255.650 211.240,255.091 210.800 C 254.531 210.360,253.943 210.000,253.783 210.000 C 253.623 210.000,253.950 210.360,254.509 210.800 M154.400 211.000 C 154.126 211.330,153.651 211.600,153.345 211.600 C 147.202 211.600,142.091 223.522,145.523 229.848 C 147.898 234.224,147.973 234.312,150.599 235.755 C 154.135 237.699,154.627 237.440,152.384 234.815 C 150.645 232.780,150.832 232.196,152.888 233.245 C 159.459 236.597,167.760 231.721,168.678 223.969 C 168.807 222.886,169.039 222.000,169.195 222.000 C 169.576 222.000,170.690 224.664,171.035 226.400 C 171.419 228.333,171.936 227.002,171.966 224.000 C 172.019 218.810,166.918 211.600,163.193 211.600 C 162.811 211.600,162.274 211.330,162.000 211.000 C 161.631 210.555,160.647 210.400,158.200 210.400 C 155.753 210.400,154.769 210.555,154.400 211.000 M238.000 211.000 C 237.726 211.330,237.185 211.600,236.797 211.600 C 236.409 211.600,235.036 212.310,233.746 213.177 C 228.092 216.979,225.797 226.071,229.322 230.704 C 229.533 230.982,230.017 231.792,230.398 232.504 C 231.163 233.934,235.617 237.200,236.802 237.200 C 237.215 237.200,237.664 237.380,237.800 237.600 C 237.936 237.820,238.352 237.986,238.724 237.968 C 239.216 237.945,239.250 237.877,238.848 237.718 C 237.642 237.239,233.738 232.800,234.523 232.800 C 234.607 232.800,235.721 233.160,237.000 233.600 C 244.297 236.110,250.983 231.551,251.820 223.495 C 252.104 220.759,252.319 220.812,253.826 223.986 C 254.923 226.295,254.994 226.360,255.472 225.500 C 257.386 222.054,253.416 214.900,248.052 212.129 C 244.312 210.197,239.148 209.617,238.000 211.000 M156.800 211.800 C 156.030 212.097,155.030 212.353,154.578 212.370 C 154.126 212.386,152.891 212.949,151.832 213.620 C 149.991 214.788,149.218 214.941,149.784 214.027 C 149.929 213.792,150.307 213.600,150.624 213.600 C 150.941 213.600,151.200 213.420,151.200 213.200 C 151.200 212.980,151.470 212.800,151.800 212.800 C 152.130 212.800,152.400 212.620,152.400 212.400 C 152.400 212.180,153.030 212.000,153.800 212.000 C 154.570 212.000,155.200 211.820,155.200 211.600 C 155.200 211.380,155.875 211.214,156.700 211.230 L 158.200 211.261 156.800 211.800 M161.400 211.600 C 161.536 211.820,162.177 212.000,162.824 212.000 C 163.471 212.000,164.000 212.136,164.000 212.302 C 164.000 212.469,164.550 212.848,165.223 213.146 C 165.896 213.444,166.355 213.778,166.244 213.889 C 166.133 214.001,165.256 213.711,164.295 213.246 C 163.334 212.781,162.199 212.394,161.774 212.386 C 161.348 212.378,160.550 212.114,160.000 211.800 L 159.000 211.228 160.076 211.214 C 160.668 211.206,161.264 211.380,161.400 211.600 M238.544 212.339 C 236.753 212.923,235.043 213.597,234.744 213.838 C 233.247 215.043,232.760 214.998,233.904 213.761 C 234.911 212.673,236.236 212.000,237.371 212.000 C 237.911 212.000,238.464 211.820,238.600 211.600 C 238.736 211.380,239.512 211.218,240.324 211.239 C 241.623 211.274,241.409 211.406,238.544 212.339 M244.400 211.600 C 244.400 211.820,245.120 212.000,246.000 212.000 C 246.880 212.000,247.600 212.180,247.600 212.400 C 247.600 212.620,247.870 212.800,248.200 212.800 C 248.530 212.800,248.800 212.959,248.800 213.153 C 248.800 213.348,249.197 213.611,249.683 213.737 C 250.168 213.864,250.447 214.086,250.304 214.230 C 250.160 214.374,249.448 214.130,248.721 213.689 C 247.994 213.247,246.803 212.760,246.073 212.605 C 244.083 212.184,242.289 211.206,243.500 211.202 C 243.995 211.201,244.400 211.380,244.400 211.600 M103.816 212.006 C 104.403 212.229,105.591 213.082,106.456 213.901 C 107.320 214.721,108.328 215.393,108.695 215.395 C 109.661 215.402,110.113 217.982,109.815 221.800 C 109.292 228.502,109.012 228.491,104.768 221.600 C 104.022 220.390,102.667 218.590,101.755 217.600 C 99.190 214.816,99.058 212.494,101.428 211.890 C 102.654 211.577,102.693 211.579,103.816 212.006 M299.871 212.614 C 300.792 213.535,300.133 215.551,298.241 217.600 C 297.327 218.590,295.533 221.065,294.254 223.100 C 291.105 228.110,290.741 228.024,290.178 222.135 C 289.891 219.140,290.554 215.000,291.250 215.431 C 291.455 215.557,292.640 214.729,293.886 213.591 C 296.303 211.382,298.311 211.054,299.871 212.614 M148.115 216.901 C 147.445 217.835,146.805 218.960,146.694 219.400 C 146.516 220.109,146.488 220.094,146.446 219.272 C 146.398 218.305,148.706 214.573,149.106 214.973 C 149.232 215.098,148.786 215.966,148.115 216.901 M154.762 215.688 L 155.317 216.577 155.663 215.642 C 156.185 214.231,160.328 214.553,163.058 216.216 C 170.892 220.992,167.271 233.600,158.066 233.600 C 152.192 233.600,146.703 226.266,149.152 221.690 C 149.448 221.137,149.465 220.764,149.201 220.601 C 148.716 220.301,148.678 217.611,149.149 216.869 C 150.372 214.939,153.839 214.210,154.762 215.688 M238.393 216.084 L 239.174 217.368 239.087 216.184 C 238.825 212.610,247.220 215.394,249.709 219.707 C 254.836 228.588,242.558 238.324,235.271 231.156 C 232.104 228.040,230.951 221.732,233.568 221.835 C 234.395 221.868,234.368 221.796,233.232 220.906 C 231.587 219.619,231.645 218.395,233.447 216.401 C 235.371 214.271,237.218 214.153,238.393 216.084 M232.412 215.978 C 232.183 216.405,231.796 216.879,231.552 217.029 C 231.309 217.180,230.690 218.225,230.178 219.352 C 229.272 221.343,229.245 221.364,229.223 220.100 C 229.210 219.385,229.380 218.800,229.600 218.800 C 229.820 218.800,230.000 218.528,230.000 218.197 C 230.000 217.530,231.929 215.200,232.480 215.200 C 232.672 215.200,232.641 215.550,232.412 215.978 M175.983 217.500 C 176.726 218.435,177.406 219.200,177.494 219.200 C 177.777 219.200,176.063 216.949,175.335 216.364 C 174.948 216.054,175.240 216.565,175.983 217.500 M223.184 218.023 C 222.705 218.696,222.379 219.313,222.461 219.394 C 222.543 219.476,223.014 218.926,223.508 218.171 C 224.623 216.471,224.371 216.356,223.184 218.023 M221.632 220.667 C 221.614 221.143,221.375 221.624,221.100 221.735 C 220.708 221.893,220.711 221.944,221.113 221.968 C 221.720 222.006,222.161 221.040,221.869 220.313 C 221.756 220.031,221.649 220.190,221.632 220.667 M102.500 222.147 C 103.105 222.667,103.600 223.305,103.600 223.563 C 103.600 223.822,103.960 224.420,104.400 224.892 C 106.154 226.775,105.062 226.140,103.000 224.078 C 100.934 222.012,100.397 221.199,101.100 221.200 C 101.265 221.201,101.895 221.627,102.500 222.147 M299.200 221.517 C 299.200 221.691,298.390 222.628,297.400 223.600 C 296.410 224.572,295.600 225.149,295.600 224.883 C 295.600 224.617,295.780 224.400,296.000 224.400 C 296.220 224.400,296.400 224.106,296.400 223.747 C 296.400 223.387,296.895 222.667,297.500 222.147 C 298.632 221.173,299.200 220.963,299.200 221.517 M130.578 223.635 C 130.431 223.874,130.510 224.270,130.755 224.515 C 131.082 224.842,131.200 224.726,131.200 224.080 C 131.200 223.114,130.992 222.965,130.578 223.635 M210.036 251.356 C 209.570 251.918,209.669 252.875,210.467 255.500 C 210.854 256.775,210.907 256.800,213.221 256.800 L 215.579 256.800 214.265 254.568 C 212.713 251.933,210.778 250.463,210.036 251.356 M187.669 251.900 C 187.218 252.285,186.303 253.545,185.635 254.700 L 184.421 256.800 186.986 256.800 C 189.163 256.800,189.550 256.694,189.545 256.100 C 189.543 255.715,189.737 254.623,189.978 253.674 C 190.616 251.157,189.523 250.316,187.669 251.900 M317.656 268.020 L 317.711 271.000 318.114 268.479 C 318.409 266.638,318.394 265.834,318.059 265.499 C 317.714 265.154,317.614 265.779,317.656 268.020 M81.623 282.433 C 81.636 284.065,81.805 286.120,82.000 287.000 C 82.241 288.090,82.282 287.197,82.129 284.200 C 81.869 279.100,81.590 278.124,81.623 282.433 M316.800 285.000 C 316.800 285.550,316.980 286.000,317.200 286.000 C 317.420 286.000,317.600 285.550,317.600 285.000 C 317.600 284.450,317.420 284.000,317.200 284.000 C 316.980 284.000,316.800 284.450,316.800 285.000 M82.406 302.276 C 82.403 302.978,82.580 303.664,82.800 303.800 C 83.313 304.117,83.313 302.393,82.800 301.600 C 82.505 301.143,82.411 301.305,82.406 302.276 M316.267 303.067 C 315.842 303.491,315.958 306.400,316.400 306.400 C 316.620 306.400,316.800 305.590,316.800 304.600 C 316.800 302.769,316.739 302.594,316.267 303.067 M315.500 309.760 C 315.051 314.493,315.114 320.246,315.611 319.749 C 315.866 319.494,315.979 316.941,315.911 312.969 C 315.810 307.197,315.772 306.896,315.500 309.760 M83.236 321.200 C 83.187 323.221,83.313 324.400,83.579 324.400 C 83.855 324.400,84.000 326.509,84.000 330.533 C 84.000 333.907,84.135 336.800,84.300 336.963 C 84.465 337.126,84.812 339.721,85.070 342.730 L 85.540 348.200 85.382 342.881 C 85.295 339.956,85.124 337.401,85.002 337.204 C 84.880 337.006,84.717 334.450,84.640 331.522 C 84.347 320.438,83.418 313.611,83.236 321.200 M314.703 322.800 C 314.540 324.010,314.430 326.260,314.458 327.800 L 314.508 330.600 314.863 327.000 C 315.296 322.605,315.172 319.326,314.703 322.800 M314.068 340.400 C 314.026 340.950,313.891 342.120,313.769 343.000 C 313.592 344.279,313.638 344.459,313.996 343.897 C 314.242 343.510,314.376 342.340,314.294 341.297 C 314.212 340.253,314.110 339.850,314.068 340.400 M84.400 350.000 C 83.855 350.660,83.248 351.200,83.051 351.200 C 82.434 351.200,81.260 352.816,80.993 354.033 C 80.852 354.675,80.473 355.200,80.150 355.200 C 79.507 355.200,77.533 356.999,77.839 357.306 C 78.372 357.839,76.286 360.905,75.128 361.291 C 74.909 361.364,74.791 361.946,74.865 362.584 C 75.008 363.817,78.000 360.065,78.000 358.653 C 78.000 358.345,78.720 357.443,79.600 356.648 C 80.480 355.853,81.200 355.020,81.200 354.798 C 81.200 354.575,82.190 353.316,83.400 352.000 C 84.610 350.684,85.600 349.425,85.600 349.203 C 85.600 348.608,85.488 348.683,84.400 350.000 M313.600 352.530 C 313.600 352.825,314.306 353.831,315.168 354.765 C 316.030 355.699,317.223 357.214,317.818 358.132 C 318.413 359.049,319.307 360.250,319.805 360.800 C 320.303 361.350,320.832 362.205,320.982 362.700 C 321.132 363.195,321.422 363.600,321.627 363.600 C 321.832 363.600,322.000 363.865,322.000 364.188 C 322.000 364.511,322.328 365.366,322.730 366.088 C 323.131 366.810,323.673 368.480,323.934 369.800 C 324.399 372.153,325.191 377.108,325.197 377.700 C 325.199 377.865,325.380 378.000,325.600 378.000 C 325.820 378.000,326.000 377.179,326.000 376.176 C 326.000 375.063,325.844 374.449,325.600 374.600 C 325.349 374.755,325.200 373.871,325.200 372.224 C 325.200 370.741,325.026 369.600,324.800 369.600 C 324.580 369.600,324.400 368.970,324.400 368.200 C 324.400 367.430,324.247 366.800,324.061 366.800 C 323.874 366.800,323.390 366.035,322.986 365.100 C 322.581 364.165,321.996 363.096,321.686 362.725 C 321.375 362.354,321.241 361.858,321.386 361.622 C 321.666 361.170,320.722 360.000,320.077 360.000 C 319.868 360.000,319.490 359.505,319.237 358.900 C 318.984 358.295,318.245 357.194,317.594 356.452 C 316.944 355.711,316.512 354.942,316.636 354.743 C 316.759 354.543,316.628 354.430,316.344 354.490 C 316.061 354.551,315.655 354.218,315.442 353.751 C 314.938 352.647,313.600 351.760,313.600 352.530 M81.780 360.730 C 78.609 361.782,75.957 363.949,76.289 365.218 C 76.716 366.851,77.841 367.367,79.079 366.497 C 80.254 365.671,81.920 365.077,84.600 364.528 L 86.200 364.200 86.200 362.200 C 86.200 359.828,85.351 359.546,81.780 360.730 M85.387 361.492 C 85.701 362.741,84.658 363.861,82.849 364.217 C 82.272 364.331,80.901 364.872,79.801 365.421 C 77.938 366.351,77.769 366.372,77.301 365.733 C 76.582 364.749,76.659 364.529,78.000 363.736 C 78.660 363.346,79.200 362.900,79.200 362.743 C 79.200 362.291,81.632 361.200,82.638 361.200 C 83.141 361.200,83.664 361.020,83.800 360.800 C 84.271 360.038,85.115 360.405,85.387 361.492 M74.000 364.800 C 74.000 365.240,74.180 365.600,74.400 365.600 C 74.620 365.600,74.800 365.240,74.800 364.800 C 74.800 364.360,74.620 364.000,74.400 364.000 C 74.180 364.000,74.000 364.360,74.000 364.800 M313.071 364.662 C 312.922 364.811,312.800 365.882,312.800 367.042 L 312.800 369.151 314.611 369.422 C 315.606 369.572,317.001 370.119,317.711 370.638 C 320.048 372.350,320.763 372.610,321.386 371.971 C 322.156 371.180,322.641 368.400,322.008 368.400 C 321.744 368.400,320.844 367.815,320.008 367.100 C 318.704 365.984,317.532 365.490,313.971 364.556 C 313.625 364.465,313.220 364.513,313.071 364.662 M316.374 365.829 C 317.350 366.169,318.751 366.976,319.488 367.624 C 320.225 368.271,321.013 368.800,321.239 368.800 C 321.779 368.800,321.528 371.296,320.970 371.479 C 320.734 371.556,319.839 371.144,318.982 370.562 C 318.125 369.980,316.563 369.249,315.512 368.937 C 313.647 368.383,313.600 368.330,313.600 366.785 C 313.600 364.990,313.783 364.927,316.374 365.829 M73.500 367.428 C 73.335 367.596,73.200 368.369,73.200 369.147 C 73.200 370.153,73.324 370.436,73.629 370.131 C 73.865 369.895,74.000 369.122,73.929 368.413 C 73.858 367.704,73.665 367.261,73.500 367.428 M72.873 372.087 C 72.613 372.347,72.400 373.413,72.400 374.456 C 72.400 375.499,72.220 376.464,72.000 376.600 C 71.780 376.736,71.600 377.456,71.600 378.200 C 71.600 378.944,71.420 379.664,71.200 379.800 C 70.980 379.936,70.800 380.497,70.800 381.047 C 70.800 381.612,70.626 381.940,70.400 381.800 C 70.154 381.648,70.000 382.321,70.000 383.553 C 70.000 384.653,69.820 385.664,69.600 385.800 C 69.380 385.936,69.200 386.611,69.200 387.300 C 69.200 388.488,69.231 388.512,69.787 387.776 C 70.110 387.349,70.380 386.409,70.387 385.686 C 70.394 384.963,70.661 383.973,70.981 383.486 C 71.300 382.999,71.832 381.070,72.164 379.200 C 72.495 377.330,72.939 374.900,73.150 373.800 C 73.578 371.570,73.552 371.408,72.873 372.087 M326.012 382.000 C 326.012 382.770,326.187 383.670,326.400 384.000 C 326.691 384.450,326.788 384.250,326.788 383.200 C 326.788 382.430,326.613 381.530,326.400 381.200 C 326.109 380.750,326.012 380.950,326.012 382.000 M326.800 386.721 C 326.800 387.144,327.258 389.720,327.817 392.445 C 328.407 395.318,328.736 397.946,328.599 398.700 C 328.319 400.248,328.882 400.417,329.536 398.981 C 330.106 397.730,330.138 396.133,329.600 395.800 C 329.380 395.664,329.200 395.023,329.200 394.376 C 329.200 393.729,329.020 393.200,328.800 393.200 C 328.580 393.200,328.400 392.671,328.400 392.024 C 328.400 391.377,328.220 390.736,328.000 390.600 C 327.780 390.464,327.600 389.474,327.600 388.400 C 327.600 387.326,327.420 386.336,327.200 386.200 C 326.980 386.064,326.800 386.299,326.800 386.721 M68.900 389.579 C 67.269 392.221,70.731 400.000,73.537 400.000 C 73.939 400.000,73.421 399.228,72.129 397.900 C 69.155 394.844,68.029 392.131,69.234 390.926 C 69.472 390.688,69.607 390.104,69.534 389.630 C 69.401 388.773,69.397 388.773,68.900 389.579 " stroke="none" fill="#553b27" fill-rule="evenodd"></path><path id="path2" d="M195.600 149.397 C 190.974 150.143,188.021 150.201,184.000 149.624 C 179.300 148.950,174.660 149.822,173.201 151.652 C 173.091 151.791,169.580 151.988,165.400 152.089 L 157.800 152.274 154.668 153.934 C 148.923 156.980,140.012 157.968,133.325 156.300 C 131.964 155.960,130.749 155.784,130.625 155.908 C 130.252 156.282,130.373 160.800,130.756 160.800 C 130.952 160.800,131.131 162.003,131.153 163.474 C 131.175 164.945,131.380 166.264,131.608 166.405 C 131.837 166.546,132.096 167.970,132.184 169.568 C 132.288 171.460,132.563 172.717,132.972 173.169 C 133.488 173.739,133.600 175.012,133.600 180.308 C 133.600 188.096,133.293 187.745,137.626 184.897 C 144.512 180.370,165.718 182.069,176.877 188.041 C 179.401 189.392,179.402 195.921,176.878 198.892 C 176.355 199.508,176.373 199.613,177.046 199.852 C 177.460 200.000,178.493 200.826,179.340 201.687 C 180.187 202.548,180.985 203.148,181.113 203.021 C 181.436 202.697,183.600 204.832,183.600 205.475 C 183.600 205.764,183.780 206.000,184.000 206.000 C 184.220 206.000,184.400 206.336,184.400 206.746 C 184.400 207.156,184.756 207.945,185.191 208.498 C 188.098 212.194,189.458 227.272,187.280 231.650 L 186.359 233.499 184.080 233.450 L 181.800 233.400 181.536 230.800 C 181.391 229.370,180.987 227.660,180.639 227.000 C 180.290 226.340,180.004 225.502,180.002 225.138 C 180.000 224.446,178.354 221.113,178.127 221.340 C 178.055 221.412,178.290 222.059,178.649 222.779 C 179.417 224.318,180.886 229.446,180.892 230.609 C 180.896 231.358,179.383 233.849,177.709 235.847 C 176.741 237.004,170.987 240.800,170.202 240.800 C 169.853 240.800,169.080 241.142,168.484 241.560 C 165.407 243.716,151.178 243.429,148.419 241.155 C 147.648 240.520,146.806 240.000,146.547 240.000 C 145.901 240.000,142.800 238.319,142.800 237.969 C 142.800 237.814,142.381 237.582,141.869 237.453 C 141.342 237.321,140.115 236.098,139.041 234.635 C 137.998 233.214,136.862 231.817,136.517 231.531 C 133.284 228.848,134.125 223.395,138.827 216.560 C 139.494 215.592,139.957 214.800,139.857 214.800 C 138.936 214.800,134.000 224.033,134.000 225.756 C 134.000 228.040,132.380 226.350,131.634 223.288 C 131.044 220.865,131.509 219.375,133.409 217.594 C 133.993 217.047,134.703 216.045,134.987 215.366 C 135.271 214.688,136.381 213.428,137.452 212.566 C 138.523 211.705,139.466 210.847,139.547 210.659 C 139.628 210.472,140.348 210.016,141.147 209.645 C 143.273 208.659,147.166 206.379,147.417 205.973 C 147.536 205.780,148.391 205.253,149.317 204.800 C 151.578 203.695,154.463 202.047,155.200 201.438 C 155.530 201.165,156.565 200.701,157.500 200.407 C 158.435 200.113,159.200 199.721,159.200 199.536 C 159.200 199.351,159.695 199.199,160.300 199.198 C 161.994 199.194,164.254 198.460,164.857 197.716 C 165.271 197.206,165.276 197.121,164.881 197.359 C 164.556 197.554,163.989 197.298,163.367 196.676 C 162.815 196.124,161.710 195.585,160.886 195.466 C 160.069 195.348,157.690 194.976,155.600 194.639 C 147.013 193.258,143.037 193.895,137.445 197.545 C 135.545 198.785,133.851 199.600,133.172 199.600 C 131.771 199.600,131.738 199.657,131.175 203.032 C 129.049 215.774,128.591 224.635,129.680 232.000 C 130.054 234.530,130.461 238.910,130.584 241.733 C 130.706 244.556,130.968 247.166,131.164 247.533 C 131.360 247.900,131.610 248.740,131.718 249.400 C 131.827 250.060,132.183 251.320,132.510 252.200 C 132.837 253.080,133.327 254.394,133.599 255.120 C 134.259 256.886,135.164 256.743,122.476 256.879 C 110.359 257.009,110.422 257.019,110.406 255.000 C 110.397 253.986,108.713 252.000,107.861 252.000 C 107.483 252.000,107.114 251.544,106.970 250.900 C 106.835 250.295,106.381 249.036,105.961 248.103 C 105.542 247.170,104.660 243.750,104.001 240.503 C 102.107 231.166,100.959 228.428,98.927 228.409 C 97.712 228.397,97.561 229.230,97.987 233.600 C 98.886 242.840,100.416 250.291,102.200 254.126 C 103.245 256.371,103.257 256.472,102.541 257.038 C 101.841 257.591,101.855 257.617,102.800 257.512 C 103.614 257.421,103.916 257.032,104.427 255.419 C 105.414 252.297,108.835 251.581,109.445 254.369 C 109.569 254.936,109.804 255.850,109.968 256.400 L 110.267 257.400 200.133 257.414 C 261.827 257.424,290.015 257.299,290.047 257.014 C 290.073 256.786,290.064 256.436,290.026 256.235 C 289.345 252.637,293.884 251.695,295.515 255.096 C 296.147 256.415,296.920 257.451,297.332 257.530 C 297.956 257.650,297.984 257.564,297.548 256.866 C 297.127 256.192,297.213 255.627,298.087 253.332 C 298.923 251.133,299.928 248.017,300.192 246.800 C 300.216 246.690,300.459 245.070,300.734 243.200 C 301.008 241.330,301.403 238.810,301.612 237.600 C 301.821 236.390,302.039 233.870,302.096 232.000 L 302.200 228.600 301.121 228.475 C 299.036 228.235,297.987 230.698,295.999 240.503 C 295.340 243.750,294.458 247.170,294.039 248.103 C 293.619 249.036,293.165 250.295,293.030 250.900 C 292.887 251.544,292.517 252.000,292.139 252.000 C 290.935 252.000,288.912 255.073,289.355 256.228 C 289.479 256.549,288.917 256.812,287.723 256.991 C 285.251 257.361,266.000 256.776,266.000 256.330 C 266.000 256.134,266.288 255.305,266.640 254.487 C 267.467 252.563,268.000 250.897,268.266 249.400 C 268.383 248.740,268.640 247.900,268.836 247.533 C 269.032 247.166,269.294 244.556,269.416 241.733 C 269.539 238.910,269.946 234.530,270.320 232.000 C 271.152 226.375,271.118 219.394,270.230 213.200 C 268.085 198.241,268.409 199.600,266.989 199.600 C 265.967 199.600,264.103 198.659,261.295 196.728 C 256.604 193.501,252.417 193.263,239.216 195.475 C 238.040 195.672,235.600 197.478,235.600 198.150 C 235.600 198.469,238.444 199.195,239.700 199.198 C 240.305 199.199,240.800 199.351,240.800 199.536 C 240.800 199.721,241.565 200.113,242.500 200.407 C 243.435 200.701,244.470 201.165,244.800 201.438 C 245.537 202.046,248.421 203.695,250.682 204.800 C 251.608 205.252,252.598 205.848,252.882 206.124 C 253.500 206.724,256.983 208.813,258.417 209.444 C 258.977 209.690,259.697 210.141,260.018 210.446 C 260.339 210.751,261.464 211.693,262.518 212.541 C 263.617 213.425,264.794 214.847,265.278 215.877 C 265.742 216.864,266.356 217.762,266.643 217.872 C 268.103 218.432,268.904 220.894,268.375 223.193 C 267.730 226.001,266.000 228.138,266.000 226.128 C 266.000 224.419,264.127 219.782,262.717 218.000 C 260.535 215.242,259.944 214.634,261.357 216.600 C 265.044 221.733,266.390 226.510,264.939 229.320 C 263.766 231.593,257.791 238.393,256.962 238.398 C 256.721 238.399,256.198 238.760,255.800 239.200 C 255.402 239.640,254.848 240.000,254.570 240.000 C 254.292 240.000,253.555 240.254,252.932 240.565 C 250.148 241.955,248.784 242.374,245.600 242.813 C 239.620 243.638,233.415 242.903,230.424 241.015 C 229.539 240.457,228.653 240.000,228.454 240.000 C 224.642 240.000,217.525 230.338,219.526 227.880 C 220.080 227.199,220.819 224.341,220.369 224.619 C 220.166 224.745,219.999 225.152,219.997 225.524 C 219.996 225.896,219.637 226.740,219.200 227.400 C 218.639 228.246,218.404 229.278,218.403 230.900 C 218.401 232.165,218.265 233.226,218.100 233.259 C 217.935 233.291,216.866 233.362,215.724 233.416 L 213.648 233.515 212.724 231.657 C 210.538 227.262,211.896 212.201,214.814 208.492 C 215.246 207.942,215.600 207.156,215.600 206.746 C 215.600 206.336,215.780 206.000,216.000 206.000 C 216.220 206.000,216.400 205.764,216.400 205.475 C 216.400 204.842,218.562 202.695,218.879 203.012 C 219.002 203.135,219.651 202.688,220.321 202.018 C 220.990 201.348,221.650 200.800,221.786 200.800 C 222.446 200.800,223.635 199.269,223.188 198.993 C 220.693 197.450,220.644 189.368,223.123 188.041 C 234.282 182.069,255.488 180.370,262.374 184.897 C 266.707 187.745,266.400 188.096,266.400 180.308 C 266.400 175.012,266.512 173.739,267.028 173.169 C 267.437 172.717,267.712 171.460,267.816 169.568 C 267.904 167.970,268.163 166.546,268.392 166.405 C 268.620 166.264,268.825 164.945,268.847 163.474 C 268.869 162.003,269.048 160.800,269.244 160.800 C 270.131 160.800,269.631 155.750,268.700 155.313 C 267.757 154.871,264.392 153.804,263.933 153.801 C 263.787 153.801,263.532 153.665,263.367 153.500 C 262.922 153.055,258.619 153.136,257.365 153.613 C 252.157 155.593,240.626 155.279,235.400 153.014 C 230.730 150.990,225.001 149.837,222.607 150.440 C 220.374 151.002,212.331 150.699,208.000 149.890 C 202.864 148.931,199.357 148.791,195.600 149.397 M134.000 167.557 C 134.000 167.974,133.730 168.418,133.400 168.545 C 132.787 168.780,132.524 167.610,133.067 167.067 C 133.565 166.569,134.000 166.797,134.000 167.557 M267.128 167.929 C 267.223 168.578,267.097 168.735,266.628 168.555 C 265.885 168.270,265.761 166.655,266.500 166.898 C 266.775 166.989,267.057 167.453,267.128 167.929 M153.516 208.697 C 154.899 208.775,157.059 208.774,158.316 208.695 C 159.572 208.616,158.440 208.552,155.800 208.553 C 153.160 208.553,152.132 208.618,153.516 208.697 M241.717 208.697 C 243.211 208.774,245.551 208.774,246.917 208.696 C 248.282 208.618,247.060 208.555,244.200 208.555 C 241.340 208.556,240.222 208.620,241.717 208.697 M162.400 209.182 C 162.730 209.405,163.345 209.591,163.767 209.594 C 164.790 209.602,164.471 209.373,163.000 209.044 C 162.124 208.848,161.962 208.885,162.400 209.182 M236.186 209.173 C 235.519 209.333,234.619 209.688,234.186 209.962 C 233.410 210.454,233.411 210.457,234.200 210.184 C 234.640 210.032,235.900 209.678,237.000 209.398 C 238.100 209.118,238.640 208.887,238.200 208.885 C 237.760 208.883,236.854 209.013,236.186 209.173 M165.218 209.821 C 165.482 210.139,165.924 210.400,166.200 210.400 C 166.476 210.400,166.926 210.670,167.200 211.000 C 167.474 211.330,167.867 211.600,168.073 211.600 C 168.815 211.600,167.917 210.778,166.343 210.018 C 165.219 209.475,164.881 209.416,165.218 209.821 M152.600 211.245 C 148.914 213.154,148.537 213.449,146.840 215.746 C 145.003 218.233,143.991 220.459,144.022 221.949 C 144.037 222.684,144.255 222.339,144.749 220.800 C 146.185 216.323,150.599 211.600,153.345 211.600 C 153.651 211.600,154.126 211.330,154.400 211.000 C 154.769 210.555,155.753 210.400,158.200 210.400 C 160.647 210.400,161.631 210.555,162.000 211.000 C 162.274 211.330,162.811 211.600,163.193 211.600 C 166.918 211.600,172.019 218.810,171.966 224.000 C 171.936 227.002,171.419 228.333,171.035 226.400 C 170.690 224.664,169.576 222.000,169.195 222.000 C 169.039 222.000,168.807 222.886,168.678 223.969 C 167.760 231.721,159.459 236.597,152.888 233.245 C 150.832 232.196,150.645 232.780,152.384 234.815 C 153.436 236.046,153.934 237.200,153.414 237.200 C 152.422 237.200,147.863 234.090,147.340 233.057 C 146.990 232.365,146.471 231.530,146.187 231.200 C 145.902 230.870,145.300 229.520,144.848 228.200 C 144.236 226.413,144.023 226.087,144.013 226.925 C 143.985 229.335,148.589 236.400,150.188 236.400 C 150.471 236.400,150.935 236.680,151.219 237.023 C 153.275 239.500,163.240 239.435,164.992 236.933 C 165.525 236.172,165.473 236.136,163.888 236.167 C 161.505 236.214,161.450 235.217,163.749 233.635 C 166.388 231.819,168.492 232.709,166.574 234.829 C 165.457 236.063,166.790 235.809,168.296 234.500 C 172.456 230.883,173.869 223.616,171.387 218.600 C 167.708 211.164,159.192 207.830,152.600 211.245 M236.200 211.127 C 235.100 211.739,233.546 212.674,232.747 213.204 C 230.666 214.583,227.241 220.329,227.695 221.680 C 227.791 221.966,228.097 221.480,228.375 220.600 C 229.678 216.481,234.245 211.600,236.797 211.600 C 237.185 211.600,237.726 211.330,238.000 211.000 C 238.364 210.561,239.331 210.400,241.601 210.400 C 247.695 210.400,253.002 214.270,255.044 220.200 C 255.422 221.300,255.807 221.977,255.898 221.703 C 256.337 220.393,253.607 215.494,251.353 213.550 C 247.199 209.964,240.278 208.858,236.200 211.127 M253.200 210.420 C 254.672 211.419,255.413 211.657,254.456 210.823 C 253.936 210.370,253.306 210.003,253.056 210.006 C 252.805 210.009,252.870 210.196,253.200 210.420 M101.428 211.890 C 99.058 212.494,99.190 214.816,101.755 217.600 C 102.667 218.590,104.022 220.390,104.768 221.600 C 109.012 228.491,109.292 228.502,109.815 221.800 C 110.113 217.982,109.661 215.402,108.695 215.395 C 108.328 215.393,107.320 214.721,106.456 213.901 C 105.591 213.082,104.403 212.229,103.816 212.006 C 102.693 211.579,102.654 211.577,101.428 211.890 M293.886 213.591 C 292.640 214.729,291.455 215.557,291.250 215.431 C 290.554 215.000,289.891 219.140,290.178 222.135 C 290.741 228.024,291.105 228.110,294.254 223.100 C 295.533 221.065,297.327 218.590,298.241 217.600 C 302.675 212.798,298.728 209.165,293.886 213.591 M228.000 213.400 C 227.255 213.950,226.762 214.400,226.905 214.400 C 227.047 214.400,227.828 213.950,228.638 213.400 C 229.449 212.850,229.941 212.400,229.734 212.400 C 229.526 212.400,228.745 212.850,228.000 213.400 M150.498 215.671 C 148.432 216.948,148.155 219.985,150.000 221.130 L 151.000 221.750 150.100 220.859 C 148.201 218.980,150.065 215.200,152.891 215.200 C 153.814 215.200,155.991 217.498,156.046 218.531 C 156.082 219.202,156.134 219.241,156.275 218.704 C 156.958 216.096,153.093 214.067,150.498 215.671 M174.634 216.374 C 175.312 217.158,176.257 218.319,176.734 218.954 C 177.210 219.589,177.600 219.933,177.600 219.719 C 177.600 219.505,176.655 218.344,175.500 217.139 C 174.345 215.934,173.955 215.590,174.634 216.374 M225.160 216.300 C 223.819 217.734,222.183 219.835,223.058 219.000 C 224.011 218.090,226.889 214.800,226.732 214.800 C 226.639 214.800,225.931 215.475,225.160 216.300 M233.465 216.381 C 231.799 218.224,231.613 219.532,232.858 220.638 C 233.710 221.394,233.713 221.394,233.258 220.526 C 231.583 217.332,235.086 213.951,237.846 216.098 L 239.000 216.995 238.354 215.998 C 237.233 214.265,235.235 214.421,233.465 216.381 M251.825 223.454 C 250.980 231.554,244.314 236.116,237.000 233.600 C 235.721 233.160,234.607 232.800,234.523 232.800 C 233.738 232.800,237.642 237.239,238.848 237.718 C 239.250 237.877,239.216 237.945,238.724 237.968 C 238.352 237.986,237.936 237.820,237.800 237.600 C 237.664 237.380,237.215 237.200,236.802 237.200 C 234.639 237.200,230.180 232.966,228.798 229.600 C 227.889 227.387,227.568 226.922,227.821 228.188 C 228.275 230.451,230.798 234.360,232.609 235.606 C 233.561 236.261,234.579 237.035,234.870 237.326 C 237.091 239.539,247.555 239.208,248.304 236.900 C 248.398 236.612,248.126 236.400,247.666 236.400 C 245.232 236.400,245.013 235.342,247.091 233.629 C 249.696 231.482,252.569 232.770,250.158 235.004 C 248.882 236.187,249.306 236.298,251.045 235.238 C 253.653 233.647,255.777 229.524,256.119 225.384 C 256.246 223.853,256.261 222.960,256.152 223.400 C 256.044 223.840,255.756 224.713,255.512 225.341 L 255.069 226.481 253.908 224.141 C 252.282 220.863,252.101 220.803,251.825 223.454 M227.324 224.600 C 227.326 225.920,227.401 226.412,227.490 225.693 C 227.579 224.974,227.577 223.894,227.486 223.293 C 227.395 222.692,227.322 223.280,227.324 224.600 M131.200 224.080 C 131.200 224.726,131.082 224.842,130.755 224.515 C 130.510 224.270,130.431 223.874,130.578 223.635 C 130.992 222.965,131.200 223.114,131.200 224.080 M143.693 224.400 C 143.693 225.170,143.775 225.485,143.876 225.100 C 143.976 224.715,143.976 224.085,143.876 223.700 C 143.775 223.315,143.693 223.630,143.693 224.400 M214.265 254.568 L 215.579 256.800 213.221 256.800 C 210.643 256.800,210.652 256.810,209.819 253.062 C 209.095 249.809,212.053 250.811,214.265 254.568 M190.184 251.574 C 190.311 251.780,190.219 252.725,189.978 253.674 C 189.737 254.623,189.543 255.715,189.545 256.100 C 189.550 256.694,189.163 256.800,186.986 256.800 L 184.421 256.800 185.635 254.700 C 187.388 251.668,189.391 250.292,190.184 251.574 M86.643 258.233 C 86.267 259.211,86.349 259.308,87.000 258.657 C 87.680 257.977,87.767 257.600,87.243 257.600 C 87.046 257.600,86.776 257.885,86.643 258.233 M311.600 257.829 C 311.600 257.954,311.870 258.327,312.200 258.657 C 312.851 259.308,312.933 259.211,312.557 258.233 C 312.329 257.638,311.600 257.330,311.600 257.829 M83.099 260.577 C 82.715 260.858,82.400 261.408,82.400 261.798 C 82.400 262.363,82.573 262.288,83.246 261.433 C 84.205 260.214,84.137 259.818,83.099 260.577 M315.500 260.868 C 315.995 261.409,316.400 262.043,316.400 262.277 C 316.400 262.511,316.670 262.926,317.000 263.200 C 317.415 263.544,317.600 263.559,317.600 263.249 C 317.600 263.002,317.420 262.800,317.200 262.800 C 316.980 262.800,316.800 262.461,316.800 262.046 C 316.800 261.631,316.305 260.975,315.700 260.588 L 314.600 259.885 315.500 260.868 M81.733 263.432 C 81.470 264.115,81.864 279.797,82.379 289.200 C 82.641 293.982,82.661 293.491,82.489 286.400 C 82.374 281.670,82.262 274.425,82.240 270.300 C 82.200 262.716,82.168 262.296,81.733 263.432 M317.357 270.000 C 317.357 272.970,317.420 274.185,317.497 272.700 C 317.574 271.215,317.574 268.785,317.497 267.300 C 317.420 265.815,317.357 267.030,317.357 270.000 M316.653 281.868 C 316.513 282.885,316.222 287.606,316.006 292.359 C 315.790 297.111,315.434 303.610,315.215 306.800 C 314.083 323.291,313.331 342.802,313.848 342.285 C 314.019 342.115,314.298 337.526,314.468 332.088 C 314.995 315.289,315.760 303.853,316.414 303.000 C 316.583 302.780,316.747 298.460,316.779 293.400 C 316.813 287.980,316.994 284.145,317.218 284.067 C 317.695 283.900,317.726 280.525,317.253 280.233 C 317.062 280.115,316.792 280.851,316.653 281.868 M82.612 296.487 C 82.454 296.865,82.446 298.215,82.594 299.487 C 82.743 300.759,82.947 305.445,83.048 309.900 C 83.149 314.355,83.378 318.000,83.558 318.000 C 83.956 318.000,84.615 327.105,85.442 344.045 L 85.708 349.490 83.454 351.941 C 82.214 353.290,81.200 354.575,81.200 354.798 C 81.200 355.020,80.480 355.853,79.600 356.648 C 78.720 357.443,78.000 358.352,78.000 358.668 C 78.000 358.985,77.280 360.304,76.400 361.600 C 75.520 362.896,74.800 364.326,74.800 364.778 C 74.800 365.230,74.620 365.600,74.400 365.600 C 74.180 365.600,74.000 366.579,74.000 367.776 C 74.000 368.973,73.804 370.074,73.565 370.222 C 73.326 370.369,73.215 370.816,73.319 371.213 C 73.423 371.611,73.342 372.806,73.138 373.868 C 72.934 374.931,72.495 377.330,72.164 379.200 C 71.832 381.070,71.300 382.999,70.981 383.486 C 70.661 383.973,70.400 384.972,70.400 385.706 C 70.400 386.440,70.183 387.257,69.918 387.522 C 69.653 387.787,69.478 388.619,69.529 389.372 C 69.580 390.124,69.436 390.854,69.211 390.994 C 67.908 391.798,69.226 394.918,72.129 397.900 L 74.173 400.000 201.268 400.000 L 328.364 400.000 328.599 398.700 C 328.736 397.946,328.407 395.318,327.817 392.445 C 327.258 389.720,326.800 386.873,326.800 386.119 C 326.800 385.364,326.616 384.403,326.391 383.983 C 326.166 383.563,325.967 382.089,325.948 380.709 C 325.929 379.329,325.763 378.106,325.579 377.990 C 325.395 377.875,325.056 376.525,324.827 374.990 C 324.080 370.001,323.473 367.425,322.730 366.088 C 322.328 365.366,322.000 364.511,322.000 364.188 C 322.000 363.865,321.832 363.600,321.627 363.600 C 321.422 363.600,321.127 363.195,320.973 362.700 C 320.818 362.205,320.213 361.250,319.627 360.578 C 319.041 359.907,318.177 358.734,317.707 357.973 C 317.236 357.212,316.120 355.796,315.226 354.828 C 313.776 353.258,313.600 352.850,313.600 351.067 C 313.600 349.967,313.524 349.143,313.431 349.236 C 313.085 349.582,312.382 362.486,312.257 370.800 C 312.171 376.449,311.956 379.812,311.631 380.600 C 311.358 381.260,311.061 383.736,310.972 386.102 C 310.740 392.238,309.654 394.245,305.600 396.031 L 303.400 397.000 274.800 396.916 C 259.070 396.870,213.350 396.807,173.200 396.777 C 127.583 396.743,99.225 396.575,97.600 396.329 C 93.927 395.772,90.800 394.168,90.800 392.841 C 90.800 392.584,90.523 392.269,90.185 392.139 C 89.307 391.802,88.400 389.864,88.398 388.320 C 88.396 387.594,88.117 386.466,87.776 385.813 C 87.277 384.857,87.251 384.453,87.637 383.730 C 88.005 383.043,88.010 382.301,87.659 380.550 C 87.070 377.619,87.072 374.688,87.663 374.097 C 88.009 373.751,88.011 373.496,87.672 373.086 C 87.380 372.734,87.298 371.621,87.444 369.969 C 87.568 368.556,87.482 366.320,87.252 365.000 C 87.022 363.680,86.645 357.830,86.414 352.000 C 86.183 346.170,85.820 338.610,85.607 335.200 C 85.394 331.790,85.031 324.860,84.800 319.800 C 83.999 302.218,83.305 294.828,82.612 296.487 M313.337 345.800 C 313.339 347.560,313.409 348.230,313.493 347.289 C 313.578 346.349,313.577 344.909,313.491 344.089 C 313.405 343.270,313.336 344.040,313.337 345.800 M86.200 362.200 L 86.200 364.200 84.600 364.528 C 81.920 365.077,80.254 365.671,79.079 366.497 C 77.841 367.367,76.716 366.851,76.289 365.218 C 75.804 363.363,81.670 359.936,85.000 360.130 C 86.164 360.198,86.200 360.260,86.200 362.200 M316.545 365.261 C 317.614 365.557,319.173 366.385,320.008 367.100 C 320.844 367.815,321.744 368.400,322.008 368.400 C 322.641 368.400,322.156 371.180,321.386 371.971 C 320.763 372.610,320.048 372.350,317.711 370.638 C 317.001 370.119,315.606 369.572,314.611 369.422 L 312.800 369.151 312.800 367.042 C 312.800 364.749,313.010 364.304,313.971 364.556 C 314.317 364.647,315.475 364.964,316.545 365.261 " stroke="none" fill="#7b5b38" fill-rule="evenodd"></path><path id="path3" d="M181.200 54.800 C 181.200 55.020,180.852 55.200,180.427 55.200 C 180.002 55.200,179.540 55.560,179.400 56.000 C 179.211 56.595,178.795 56.800,177.773 56.800 C 177.018 56.800,176.400 56.950,176.400 57.132 C 176.400 57.315,175.905 57.720,175.300 58.032 C 174.695 58.344,174.110 58.698,174.000 58.820 C 173.890 58.942,173.125 59.356,172.300 59.740 C 171.475 60.123,170.800 60.696,170.800 61.013 C 170.800 63.305,164.812 66.418,164.284 64.400 C 164.133 63.822,163.738 63.600,162.861 63.600 C 162.193 63.600,161.536 63.420,161.400 63.200 C 161.253 62.962,158.737 62.800,155.200 62.800 C 151.663 62.800,149.147 62.962,149.000 63.200 C 148.864 63.420,148.448 63.604,148.076 63.609 C 147.704 63.614,146.950 63.970,146.400 64.400 C 145.850 64.830,144.905 65.186,144.300 65.191 C 143.695 65.196,143.200 65.380,143.200 65.600 C 143.200 65.820,142.750 66.000,142.200 66.000 C 141.650 66.000,141.200 66.180,141.200 66.400 C 141.200 66.620,140.916 66.800,140.569 66.800 C 140.223 66.800,138.149 68.600,135.961 70.800 L 131.983 74.800 127.775 74.800 C 123.936 74.800,123.341 74.905,121.000 76.000 C 119.588 76.660,118.246 77.200,118.017 77.200 C 117.788 77.200,117.600 77.440,117.600 77.732 C 117.600 78.025,117.142 78.510,116.582 78.810 C 116.022 79.109,115.267 79.995,114.903 80.777 C 114.539 81.560,113.917 82.491,113.520 82.847 C 113.124 83.203,112.800 83.788,112.800 84.147 C 112.800 84.506,112.526 84.800,112.190 84.800 C 111.832 84.800,111.481 85.296,111.340 86.000 C 111.208 86.660,110.942 87.200,110.750 87.200 C 110.558 87.200,110.400 87.549,110.400 87.976 C 110.400 88.403,110.220 88.864,110.000 89.000 C 109.780 89.136,109.600 90.011,109.600 90.944 C 109.600 91.877,109.432 92.811,109.227 93.020 C 109.021 93.229,108.796 94.120,108.727 95.000 C 108.614 96.417,108.452 96.644,107.300 96.983 C 106.585 97.193,106.000 97.508,106.000 97.683 C 106.000 97.857,105.471 98.000,104.824 98.000 C 104.177 98.000,103.536 98.180,103.400 98.400 C 103.264 98.620,102.798 98.800,102.364 98.800 C 101.930 98.800,101.456 99.115,101.310 99.500 C 100.988 100.350,100.185 101.200,99.703 101.200 C 99.011 101.200,97.200 103.458,97.200 104.322 C 97.200 104.805,97.020 105.200,96.800 105.200 C 96.580 105.200,96.400 105.729,96.400 106.376 C 96.400 107.023,96.220 107.664,96.000 107.800 C 95.780 107.936,95.600 109.097,95.600 110.381 C 95.600 112.086,95.438 112.776,95.000 112.945 C 94.156 113.268,94.156 117.132,95.000 117.455 C 95.438 117.624,95.600 118.314,95.600 120.019 C 95.600 121.303,95.780 122.464,96.000 122.600 C 96.220 122.736,96.400 123.197,96.400 123.624 C 96.400 124.051,96.567 124.400,96.772 124.400 C 97.780 124.400,97.327 126.285,95.984 127.682 C 92.967 130.822,91.156 138.867,92.728 142.155 C 92.950 142.620,93.462 143.760,93.866 144.690 C 94.270 145.619,94.825 146.384,95.100 146.390 C 95.375 146.395,95.600 146.760,95.600 147.200 C 95.600 147.640,95.780 148.000,96.000 148.000 C 96.220 148.000,96.400 148.252,96.400 148.560 C 96.400 149.497,99.194 152.000,100.240 152.000 C 100.768 152.000,101.200 152.196,101.200 152.436 C 101.200 153.192,102.955 154.373,104.100 154.387 C 104.705 154.394,105.200 154.580,105.200 154.800 C 105.200 155.020,105.524 155.200,105.920 155.200 C 107.558 155.200,107.600 155.584,107.600 170.637 C 107.600 183.137,107.682 185.146,108.200 185.345 C 109.126 185.700,109.102 212.599,108.175 212.954 C 107.831 213.086,107.669 213.388,107.815 213.624 C 107.961 213.861,108.304 213.969,108.577 213.864 C 109.257 213.603,109.982 214.110,110.546 215.242 C 111.759 217.675,112.236 216.691,112.742 210.716 C 113.008 207.572,113.487 203.650,113.807 202.000 C 114.127 200.350,114.649 197.560,114.967 195.800 C 115.285 194.040,115.845 191.430,116.210 190.000 C 116.980 186.988,117.267 185.224,118.339 176.924 C 118.771 173.582,119.220 170.690,119.339 170.499 C 119.457 170.307,119.929 168.272,120.387 165.975 C 121.482 160.492,122.767 156.840,123.852 156.129 C 124.329 155.817,124.934 155.043,125.196 154.410 C 125.788 152.980,130.633 149.200,131.873 149.200 C 132.376 149.200,134.711 149.843,137.060 150.629 C 139.410 151.415,141.698 151.963,142.145 151.846 C 142.593 151.729,143.148 151.787,143.379 151.976 C 144.020 152.497,151.108 151.709,152.540 150.957 C 157.814 148.189,153.617 148.428,198.400 148.338 C 227.949 148.278,234.196 148.524,236.856 149.849 C 238.290 150.563,247.007 150.753,247.675 150.085 C 247.942 149.818,248.889 149.600,249.780 149.600 C 250.671 149.599,252.704 149.327,254.297 148.995 C 265.666 146.623,275.418 151.071,277.987 159.800 C 278.246 160.680,278.726 162.300,279.054 163.400 C 280.646 168.748,280.869 169.933,281.841 178.200 C 282.177 181.060,282.908 185.560,283.466 188.200 C 284.024 190.840,284.649 193.810,284.855 194.800 C 286.010 200.355,287.264 208.721,287.476 212.280 C 287.647 215.161,287.877 216.421,288.259 216.567 C 288.582 216.691,288.805 216.498,288.813 216.087 C 288.833 214.977,289.837 213.963,291.042 213.834 C 292.223 213.708,292.918 212.800,291.833 212.800 C 290.897 212.800,290.864 182.615,291.800 182.255 C 292.313 182.059,292.400 180.455,292.400 171.213 C 292.400 164.271,292.543 160.400,292.800 160.400 C 293.023 160.400,293.200 159.320,293.200 157.960 C 293.200 155.766,293.320 155.409,294.400 154.400 C 295.060 153.783,295.600 152.991,295.600 152.640 C 295.600 152.221,295.952 152.000,296.616 152.000 C 297.769 152.000,302.800 147.305,302.800 146.229 C 302.800 145.883,302.980 145.600,303.200 145.600 C 303.420 145.600,303.600 145.060,303.600 144.400 C 303.600 143.740,303.780 143.200,304.000 143.200 C 304.220 143.200,304.400 142.660,304.400 142.000 C 304.400 141.340,304.574 140.800,304.786 140.800 C 305.596 140.800,306.006 139.191,305.750 137.016 C 305.577 135.540,305.308 134.800,304.945 134.800 C 304.625 134.800,304.400 134.372,304.400 133.765 C 304.400 132.758,300.435 128.400,299.518 128.400 C 298.995 128.400,298.000 127.351,298.000 126.800 C 298.000 126.244,298.640 125.582,300.100 124.627 C 300.705 124.232,301.200 123.579,301.200 123.178 C 301.200 122.776,301.380 122.336,301.600 122.200 C 301.820 122.064,302.000 121.524,302.000 121.000 C 302.000 120.476,302.180 119.936,302.400 119.800 C 302.620 119.664,302.800 118.573,302.800 117.376 C 302.800 116.096,302.976 115.200,303.228 115.200 C 303.515 115.200,303.593 114.041,303.464 111.700 C 303.233 107.503,302.840 105.200,302.356 105.200 C 302.160 105.200,302.000 104.874,302.000 104.476 C 302.000 103.686,298.683 100.400,297.886 100.400 C 297.614 100.400,297.168 100.040,296.893 99.600 C 296.618 99.160,296.035 98.800,295.597 98.800 C 295.158 98.800,294.800 98.620,294.800 98.400 C 294.800 98.180,294.305 97.994,293.700 97.987 C 291.727 97.964,290.400 96.203,290.400 93.605 C 290.400 92.722,290.249 92.000,290.064 92.000 C 289.880 92.000,289.385 91.282,288.964 90.405 C 288.544 89.527,288.057 88.807,287.882 88.805 C 287.390 88.798,285.864 87.124,285.232 85.900 C 284.920 85.295,284.459 84.800,284.208 84.800 C 283.956 84.800,283.364 84.440,282.892 84.000 C 282.420 83.560,281.801 83.198,281.517 83.196 C 281.233 83.194,280.575 82.654,280.055 81.996 C 279.535 81.338,278.770 80.800,278.355 80.800 C 277.940 80.800,277.600 80.620,277.600 80.400 C 277.600 80.180,277.240 80.000,276.800 80.000 C 276.360 80.000,276.000 79.820,276.000 79.600 C 276.000 79.380,275.561 79.200,275.024 79.200 C 274.487 79.200,273.936 79.020,273.800 78.800 C 273.664 78.580,273.153 78.400,272.665 78.400 C 272.177 78.400,271.417 78.147,270.975 77.837 C 270.533 77.528,269.278 77.145,268.186 76.985 C 264.704 76.478,262.800 75.172,262.800 73.291 C 262.800 71.946,261.727 70.800,260.469 70.800 C 259.828 70.800,259.600 70.558,259.600 69.875 C 259.600 69.367,259.240 68.564,258.800 68.092 C 258.360 67.620,258.000 66.956,258.000 66.617 C 258.000 66.278,257.770 66.000,257.488 66.000 C 257.207 66.000,256.712 65.595,256.388 65.100 C 255.326 63.475,252.781 61.200,252.026 61.200 C 251.619 61.200,251.191 60.954,251.076 60.654 C 250.485 59.114,237.118 59.105,236.527 60.645 C 236.410 60.950,235.881 61.200,235.352 61.200 C 234.822 61.200,234.032 61.380,233.595 61.600 C 233.158 61.820,232.467 62.164,232.061 62.365 C 231.275 62.754,229.200 61.367,229.200 60.453 C 229.200 60.204,228.928 60.000,228.595 60.000 C 228.262 60.000,227.587 59.792,227.095 59.538 C 225.138 58.526,224.774 58.400,223.805 58.400 C 223.252 58.400,222.800 58.220,222.800 58.000 C 222.800 57.751,220.541 57.600,216.824 57.600 C 213.271 57.600,210.747 57.762,210.600 58.000 C 210.464 58.220,209.834 58.400,209.200 58.400 C 208.566 58.400,207.936 58.580,207.800 58.800 C 207.664 59.020,207.113 59.200,206.576 59.200 C 206.039 59.200,205.600 59.020,205.600 58.800 C 205.600 58.580,205.150 58.400,204.600 58.400 C 204.050 58.400,203.600 58.220,203.600 58.000 C 203.600 57.780,203.240 57.600,202.800 57.600 C 202.360 57.600,202.000 57.420,202.000 57.200 C 202.000 56.980,201.301 56.800,200.447 56.800 C 199.230 56.800,198.848 56.627,198.684 56.000 C 198.506 55.320,198.138 55.200,196.237 55.200 C 195.007 55.200,194.000 55.020,194.000 54.800 C 194.000 54.550,191.600 54.400,187.600 54.400 C 183.600 54.400,181.200 54.550,181.200 54.800 M187.000 57.200 C 187.136 57.420,187.069 57.600,186.852 57.600 C 186.635 57.600,186.210 57.847,185.909 58.148 C 184.606 59.451,182.807 60.000,179.920 59.975 C 177.859 59.957,177.253 59.847,177.859 59.603 C 178.332 59.412,178.844 59.052,178.998 58.803 C 179.771 57.553,186.397 56.225,187.000 57.200 M222.179 60.767 C 225.996 61.680,227.439 63.405,226.094 65.446 C 224.581 67.743,210.519 64.239,211.456 61.799 C 211.815 60.862,214.024 60.259,217.800 60.067 C 218.460 60.034,220.430 60.349,222.179 60.767 M249.640 62.929 C 252.348 64.335,253.757 66.003,252.934 66.826 C 252.259 67.501,250.143 66.900,248.670 65.616 C 247.972 65.006,246.635 64.120,245.700 63.646 C 244.765 63.172,244.000 62.637,244.000 62.459 C 244.000 61.138,246.609 61.355,249.640 62.929 M192.543 64.366 C 196.292 65.147,197.777 65.962,198.879 67.843 C 199.762 69.350,198.899 71.471,197.247 71.854 C 196.671 71.987,196.005 72.338,195.767 72.633 C 195.528 72.929,193.844 73.562,192.024 74.042 C 186.673 75.451,181.753 74.306,177.140 70.579 C 172.686 66.981,173.489 65.885,182.200 63.666 C 184.201 63.157,187.957 63.411,192.543 64.366 M159.764 65.570 C 160.650 66.305,160.128 66.859,156.633 68.888 C 155.075 69.793,153.041 71.196,152.113 72.006 C 148.548 75.117,141.528 77.005,139.376 75.432 C 138.557 74.833,138.178 71.059,138.964 71.321 C 139.176 71.392,139.663 71.169,140.046 70.825 C 141.469 69.548,141.830 69.343,142.351 69.517 C 142.740 69.647,142.812 69.439,142.616 68.747 C 142.426 68.077,142.460 67.963,142.734 68.359 C 143.049 68.815,143.218 68.760,143.656 68.059 C 143.951 67.586,144.473 67.200,144.816 67.200 C 145.159 67.200,145.611 67.051,145.820 66.870 C 146.029 66.688,147.010 66.315,148.000 66.042 C 148.990 65.768,150.250 65.386,150.800 65.192 C 152.327 64.654,158.999 64.935,159.764 65.570 M246.939 71.953 C 250.561 74.747,248.190 75.757,242.167 73.986 C 240.645 73.538,238.952 73.040,238.404 72.878 C 237.856 72.716,237.346 72.262,237.270 71.868 C 236.729 69.061,243.267 69.118,246.939 71.953 M217.538 74.222 C 220.144 74.626,225.358 78.231,225.531 79.748 C 225.867 82.682,224.794 83.281,216.800 84.623 C 209.290 85.884,209.312 85.885,205.352 83.994 C 203.398 83.061,201.429 82.128,200.977 81.922 C 198.947 80.997,198.394 78.025,199.926 76.281 C 201.964 73.963,209.884 73.037,217.538 74.222 M125.200 77.790 C 125.200 77.894,124.705 78.236,124.100 78.549 C 123.495 78.862,121.770 80.127,120.267 81.359 C 117.408 83.703,116.650 84.070,117.086 82.900 C 117.767 81.069,119.840 79.133,122.400 77.937 C 123.087 77.616,125.200 77.505,125.200 77.790 M273.794 81.828 C 277.110 83.441,281.600 86.782,281.600 87.636 C 281.600 90.925,271.939 88.940,269.394 85.128 C 268.759 84.178,267.937 83.040,267.566 82.600 C 264.841 79.367,267.944 78.982,273.794 81.828 M161.079 81.801 C 162.647 82.267,163.198 82.651,163.520 83.501 C 166.758 92.063,156.437 99.529,144.743 97.084 C 142.170 96.547,141.262 92.202,142.960 88.556 C 144.431 85.396,150.135 82.264,155.600 81.614 C 157.030 81.444,158.392 81.281,158.627 81.253 C 158.862 81.224,159.966 81.471,161.079 81.801 M250.542 83.208 C 252.570 83.803,255.679 86.651,255.519 87.768 C 255.232 89.775,245.027 88.202,243.417 85.904 C 241.313 82.899,244.884 81.548,250.542 83.208 M195.242 88.348 C 199.526 90.015,197.358 97.302,192.762 96.686 C 190.666 96.405,188.035 97.157,184.400 99.078 C 182.750 99.950,181.040 100.787,180.600 100.938 C 180.160 101.089,179.350 101.477,178.800 101.800 C 174.306 104.442,172.095 98.984,175.900 94.640 C 178.017 92.223,179.783 91.214,184.082 89.965 C 190.520 88.094,193.485 87.665,195.242 88.348 M225.843 90.393 C 228.346 91.477,229.714 93.531,229.714 96.203 C 229.714 100.497,225.506 102.306,219.573 100.561 C 215.627 99.401,215.224 98.417,217.400 95.255 C 218.170 94.135,218.800 93.063,218.800 92.872 C 218.800 92.680,219.160 92.198,219.600 91.800 C 220.040 91.402,220.400 90.843,220.400 90.558 C 220.400 89.108,222.716 89.038,225.843 90.393 M121.426 92.200 C 121.216 93.319,121.290 93.600,121.794 93.600 C 123.747 93.600,121.269 99.534,118.078 102.500 C 115.544 104.856,114.680 104.917,113.608 102.816 C 111.946 99.558,112.658 96.658,115.881 93.551 C 119.281 90.274,121.908 89.634,121.426 92.200 M249.800 95.489 C 251.992 96.134,255.169 99.802,254.294 100.677 C 253.540 101.431,244.965 98.840,242.323 97.060 C 240.552 95.867,240.648 95.517,242.956 94.751 C 244.986 94.078,245.010 94.080,249.800 95.489 M284.031 99.569 C 286.661 102.199,284.439 109.200,280.975 109.200 C 278.477 109.200,278.041 99.800,280.494 98.815 C 282.042 98.193,282.820 98.359,284.031 99.569 M162.200 113.560 C 163.791 114.490,164.387 115.766,164.394 118.256 C 164.397 119.421,164.738 121.068,165.180 122.056 C 166.212 124.361,165.735 124.684,163.199 123.399 C 161.031 122.301,156.377 120.664,154.105 120.202 C 151.188 119.609,150.711 116.949,153.120 114.706 C 155.206 112.763,159.837 112.178,162.200 113.560 M192.436 115.974 L 193.610 117.148 192.908 118.512 C 191.147 121.931,184.400 122.844,184.400 119.663 C 184.400 116.314,190.140 113.679,192.436 115.974 M222.644 118.737 C 222.899 119.249,223.308 119.868,223.554 120.114 C 224.279 120.839,224.066 121.937,223.100 122.446 C 222.605 122.706,222.070 123.118,221.910 123.360 C 221.187 124.457,219.397 122.669,219.534 120.986 C 219.781 117.937,221.592 116.627,222.644 118.737 M248.271 118.433 C 249.992 118.671,251.670 119.099,252.000 119.385 C 252.330 119.670,253.196 120.205,253.924 120.574 C 256.618 121.940,254.994 124.773,250.933 125.792 C 249.273 126.208,248.895 126.497,248.253 127.838 C 247.313 129.803,246.913 130.075,245.303 129.840 C 244.097 129.664,242.043 127.911,242.013 127.031 C 242.006 126.829,241.756 126.379,241.457 126.031 C 240.584 125.016,240.012 122.131,240.546 121.437 C 240.887 120.994,244.617 118.181,245.071 118.024 C 245.110 118.011,246.550 118.195,248.271 118.433 M133.674 119.958 C 135.987 120.851,136.620 121.947,137.624 126.800 C 138.057 128.894,139.571 133.227,140.062 133.780 C 140.542 134.320,140.482 136.400,139.987 136.400 C 137.959 136.400,131.301 130.409,128.837 126.368 C 126.633 122.754,129.856 118.483,133.674 119.958 M267.730 120.979 C 268.693 121.709,268.500 123.736,267.448 123.936 C 266.499 124.116,266.014 123.364,266.006 121.700 C 265.999 120.292,266.530 120.069,267.730 120.979 M113.200 126.048 C 116.392 129.337,113.569 132.486,109.600 130.063 C 106.482 128.159,106.375 126.500,109.279 125.069 C 111.157 124.144,111.415 124.208,113.200 126.048 M144.944 183.601 C 137.910 184.631,129.354 194.928,133.630 197.216 C 134.163 197.501,134.618 197.520,134.926 197.270 C 135.187 197.057,136.210 196.440,137.200 195.897 C 138.190 195.355,140.080 194.306,141.400 193.567 C 144.829 191.648,157.470 192.210,161.727 194.471 C 162.126 194.683,163.386 195.032,164.527 195.246 C 167.814 195.863,169.645 196.273,171.920 196.905 C 174.378 197.587,176.087 196.838,177.159 194.608 C 178.861 191.069,176.120 188.005,170.200 186.829 C 169.320 186.654,166.890 186.040,164.800 185.464 C 157.851 183.551,150.193 182.832,144.944 183.601 M243.400 183.675 C 242.080 183.903,239.650 184.415,238.000 184.811 C 236.350 185.207,233.740 185.831,232.200 186.198 C 223.787 188.202,220.888 190.666,222.668 194.297 C 223.449 195.890,225.822 197.757,226.518 197.327 C 226.749 197.184,227.672 196.907,228.569 196.712 C 229.466 196.516,230.920 196.200,231.800 196.009 C 233.595 195.620,236.660 194.861,241.400 193.630 C 244.991 192.698,254.265 191.900,255.920 192.381 C 256.514 192.553,257.855 193.168,258.900 193.747 C 259.945 194.326,261.655 195.269,262.700 195.842 C 263.745 196.415,264.813 197.057,265.074 197.270 C 266.924 198.774,268.012 195.572,266.657 192.613 C 263.297 185.274,254.251 181.797,243.400 183.675 M151.257 206.430 C 150.299 206.619,149.309 206.927,149.057 207.116 C 148.806 207.305,147.826 207.681,146.880 207.952 C 140.295 209.836,133.600 217.645,133.600 223.443 C 133.600 224.814,135.309 222.358,135.382 220.883 C 135.396 220.599,135.589 220.239,135.812 220.083 C 136.034 219.927,136.434 219.305,136.700 218.700 C 136.965 218.095,137.367 217.600,137.591 217.600 C 137.816 217.600,138.000 217.392,138.000 217.138 C 138.000 216.296,140.039 213.985,141.732 212.908 C 142.650 212.324,143.812 211.432,144.316 210.924 C 144.820 210.416,145.574 210.000,145.993 210.000 C 146.411 210.000,146.864 209.820,147.000 209.600 C 147.136 209.380,147.676 209.200,148.200 209.200 C 148.724 209.200,149.264 209.020,149.400 208.800 C 149.549 208.560,152.263 208.400,156.200 208.400 C 160.137 208.400,162.851 208.560,163.000 208.800 C 163.136 209.020,163.766 209.200,164.400 209.200 C 165.034 209.200,165.664 209.380,165.800 209.600 C 165.936 209.820,166.314 210.000,166.641 210.000 C 166.967 210.000,168.188 210.720,169.354 211.600 C 170.519 212.480,171.729 213.200,172.041 213.200 C 172.354 213.200,172.915 213.605,173.288 214.100 C 173.661 214.595,174.784 215.864,175.783 216.920 C 176.782 217.976,177.600 219.101,177.600 219.420 C 177.600 219.739,177.780 220.000,178.000 220.000 C 178.220 220.000,178.400 220.283,178.400 220.629 C 178.400 220.974,178.700 221.558,179.067 221.925 C 179.691 222.548,179.716 222.517,179.449 221.452 C 177.017 211.761,162.766 204.168,151.257 206.430 M240.200 206.176 C 239.980 206.262,238.180 206.820,236.200 207.416 C 229.060 209.566,223.229 214.379,221.068 219.908 C 220.253 221.991,220.252 222.032,221.000 221.745 C 221.330 221.618,221.600 221.174,221.600 220.757 C 221.600 220.341,221.780 220.000,222.000 220.000 C 222.220 220.000,222.400 219.747,222.400 219.437 C 222.400 218.360,228.106 212.777,230.070 211.932 C 231.100 211.489,232.040 210.873,232.159 210.563 C 232.278 210.253,232.730 210.000,233.164 210.000 C 233.598 210.000,234.064 209.820,234.200 209.600 C 234.336 209.380,234.966 209.200,235.600 209.200 C 236.234 209.200,236.864 209.020,237.000 208.800 C 237.148 208.560,239.806 208.400,243.629 208.400 C 247.139 208.400,250.368 208.580,250.805 208.800 C 251.242 209.020,251.958 209.380,252.395 209.600 C 252.832 209.820,253.347 210.000,253.539 210.000 C 254.976 210.000,262.000 215.775,262.000 216.957 C 262.000 217.112,262.449 217.635,262.998 218.119 C 263.546 218.604,264.438 220.237,264.980 221.749 C 266.095 224.864,266.406 225.354,266.386 223.967 C 266.250 214.779,256.044 206.502,244.400 206.137 C 242.310 206.072,240.420 206.089,240.200 206.176 M99.100 210.638 C 97.591 211.396,97.200 211.799,97.200 212.596 C 97.200 213.148,97.020 213.600,96.800 213.600 C 96.580 213.600,96.400 213.960,96.400 214.400 C 96.400 214.840,96.220 215.200,96.000 215.200 C 95.478 215.200,95.480 217.079,96.003 217.402 C 96.224 217.539,96.511 217.324,96.640 216.925 C 98.516 211.128,102.259 209.363,105.905 212.556 C 106.518 213.093,106.942 213.218,107.217 212.943 C 107.768 212.392,106.184 210.400,105.195 210.400 C 104.784 210.400,104.336 210.220,104.200 210.000 C 103.773 209.308,101.077 209.646,99.100 210.638 M295.600 209.999 C 295.270 210.169,294.515 210.533,293.921 210.810 C 292.709 211.375,292.179 212.339,292.761 212.921 C 293.011 213.171,293.385 213.072,293.814 212.643 C 296.017 210.440,298.758 210.343,300.751 212.397 C 302.152 213.840,302.631 214.672,303.360 216.925 C 303.489 217.324,303.776 217.539,303.997 217.402 C 304.520 217.079,304.522 215.200,304.000 215.200 C 303.780 215.200,303.600 214.840,303.600 214.400 C 303.600 213.960,303.420 213.600,303.200 213.600 C 302.980 213.600,302.800 213.171,302.800 212.646 C 302.800 211.660,301.350 210.400,300.214 210.400 C 299.876 210.400,299.600 210.249,299.600 210.063 C 299.600 209.638,296.403 209.587,295.600 209.999 M155.200 211.600 C 155.200 211.820,154.570 212.000,153.800 212.000 C 153.030 212.000,152.400 212.180,152.400 212.400 C 152.400 212.620,152.130 212.800,151.800 212.800 C 151.470 212.800,151.200 212.980,151.200 213.200 C 151.200 213.420,150.941 213.600,150.624 213.600 C 150.307 213.600,149.929 213.792,149.784 214.027 C 149.218 214.941,149.991 214.788,151.832 213.620 C 152.891 212.949,154.126 212.386,154.578 212.370 C 155.030 212.353,156.030 212.097,156.800 211.800 L 158.200 211.261 156.700 211.230 C 155.875 211.214,155.200 211.380,155.200 211.600 M160.000 211.800 C 160.550 212.114,161.348 212.378,161.774 212.386 C 162.199 212.394,163.334 212.781,164.295 213.246 C 165.256 213.711,166.133 214.001,166.244 213.889 C 166.355 213.778,165.896 213.444,165.223 213.146 C 164.550 212.848,164.000 212.469,164.000 212.302 C 164.000 212.136,163.471 212.000,162.824 212.000 C 162.177 212.000,161.536 211.820,161.400 211.600 C 161.264 211.380,160.668 211.206,160.076 211.214 L 159.000 211.228 160.000 211.800 M238.600 211.600 C 238.464 211.820,237.911 212.000,237.371 212.000 C 236.236 212.000,234.911 212.673,233.904 213.761 C 232.760 214.998,233.247 215.043,234.744 213.838 C 235.043 213.597,236.753 212.923,238.544 212.339 C 241.409 211.406,241.623 211.274,240.324 211.239 C 239.512 211.218,238.736 211.380,238.600 211.600 M243.673 211.765 C 244.263 212.073,245.343 212.451,246.073 212.605 C 246.803 212.760,247.994 213.247,248.721 213.689 C 249.448 214.130,250.160 214.374,250.304 214.230 C 250.447 214.086,250.168 213.864,249.683 213.737 C 249.197 213.611,248.800 213.348,248.800 213.153 C 248.800 212.959,248.530 212.800,248.200 212.800 C 247.870 212.800,247.600 212.620,247.600 212.400 C 247.600 212.180,246.880 212.000,246.000 212.000 C 245.120 212.000,244.400 211.820,244.400 211.600 C 244.400 211.380,243.995 211.201,243.500 211.202 C 242.648 211.205,242.658 211.235,243.673 211.765 M147.639 216.544 C 146.957 217.534,146.421 218.762,146.446 219.272 C 146.488 220.094,146.516 220.109,146.694 219.400 C 146.805 218.960,147.445 217.835,148.115 216.901 C 148.786 215.966,149.232 215.098,149.106 214.973 C 148.980 214.847,148.320 215.554,147.639 216.544 M155.742 215.407 C 155.594 215.791,155.682 216.440,155.937 216.848 C 157.914 220.014,153.834 223.438,150.323 221.559 C 149.093 220.900,148.731 221.757,148.924 224.872 C 149.309 231.093,156.062 235.506,161.355 232.995 C 170.743 228.540,168.737 215.518,158.563 214.870 C 156.409 214.733,155.968 214.817,155.742 215.407 M239.114 215.019 C 238.994 215.140,238.989 216.403,239.103 217.826 C 239.395 221.459,238.772 222.120,235.237 221.935 C 232.199 221.776,231.603 222.627,232.414 225.960 C 234.419 234.203,242.992 236.282,248.589 229.885 C 252.795 225.076,251.321 218.543,245.400 215.751 C 243.546 214.877,239.704 214.429,239.114 215.019 M231.066 216.397 C 230.480 217.055,230.000 217.865,230.000 218.197 C 230.000 218.528,229.820 218.800,229.600 218.800 C 229.380 218.800,229.210 219.385,229.223 220.100 C 229.245 221.364,229.272 221.343,230.178 219.352 C 230.690 218.225,231.309 217.180,231.552 217.029 C 232.170 216.648,232.904 215.200,232.480 215.200 C 232.289 215.200,231.652 215.738,231.066 216.397 M304.088 223.700 C 304.207 229.316,304.989 231.129,305.685 227.400 C 306.250 224.373,305.624 218.400,304.741 218.400 C 304.022 218.400,303.983 218.711,304.088 223.700 M94.399 220.603 C 93.638 222.909,94.281 230.000,95.252 230.000 C 95.946 230.000,96.000 229.609,96.000 224.600 C 96.000 218.876,95.435 217.465,94.399 220.603 M100.800 221.539 C 100.800 221.726,101.790 222.868,103.000 224.078 C 105.062 226.140,106.154 226.775,104.400 224.892 C 103.960 224.420,103.600 223.822,103.600 223.563 C 103.600 223.072,101.621 221.201,101.100 221.200 C 100.935 221.200,100.800 221.353,100.800 221.539 M297.500 222.147 C 296.895 222.667,296.400 223.387,296.400 223.747 C 296.400 224.106,296.220 224.400,296.000 224.400 C 295.780 224.400,295.600 224.617,295.600 224.883 C 295.600 225.149,296.410 224.572,297.400 223.600 C 299.786 221.258,299.865 220.113,297.500 222.147 M303.394 232.880 C 303.043 234.279,303.320 237.019,303.800 236.905 C 304.339 236.778,304.550 232.790,304.045 232.285 C 303.777 232.017,303.561 232.215,303.394 232.880 M95.788 232.887 C 95.427 233.829,95.745 237.000,96.200 237.000 C 96.743 237.000,96.952 233.192,96.437 232.677 C 96.156 232.396,95.951 232.462,95.788 232.887 M96.445 240.000 C 96.392 241.468,96.522 242.400,96.779 242.400 C 97.018 242.400,97.200 243.267,97.200 244.400 C 97.200 245.500,97.380 246.400,97.600 246.400 C 97.820 246.400,98.000 247.379,98.000 248.576 C 98.000 249.773,98.180 250.864,98.400 251.000 C 98.620 251.136,98.800 251.788,98.800 252.450 C 98.800 253.827,99.427 255.200,100.056 255.200 C 100.331 255.200,100.397 254.593,100.240 253.500 C 100.105 252.565,99.925 251.312,99.839 250.715 C 99.752 250.119,99.491 248.769,99.258 247.715 C 99.025 246.662,98.545 244.360,98.191 242.600 C 97.837 240.840,97.466 238.995,97.366 238.500 C 97.024 236.801,96.531 237.602,96.445 240.000 M302.766 238.100 C 302.336 239.385,301.493 243.493,301.350 245.000 C 301.246 246.100,300.989 247.360,300.779 247.800 C 300.568 248.240,300.327 249.320,300.242 250.200 C 300.158 251.080,299.850 252.382,299.559 253.094 C 298.964 254.548,299.408 255.402,300.533 254.970 C 301.014 254.786,301.200 254.230,301.200 252.981 C 301.200 252.027,301.380 251.136,301.600 251.000 C 301.820 250.864,302.000 249.773,302.000 248.576 C 302.000 247.379,302.180 246.400,302.400 246.400 C 302.622 246.400,302.800 245.333,302.800 244.000 C 302.800 242.667,302.978 241.600,303.200 241.600 C 303.420 241.600,303.600 240.790,303.600 239.800 C 303.600 238.436,303.038 237.290,302.766 238.100 M298.554 255.775 C 297.910 257.454,298.455 257.600,305.345 257.600 C 310.433 257.600,311.960 257.480,312.118 257.069 C 312.284 256.638,311.136 256.573,305.961 256.722 C 300.365 256.883,299.600 256.830,299.600 256.276 C 299.600 255.388,298.842 255.025,298.554 255.775 M100.400 256.261 C 100.400 256.856,99.824 256.899,94.637 256.689 C 88.879 256.455,87.200 256.581,87.200 257.247 C 87.200 257.441,90.314 257.600,94.120 257.600 C 101.198 257.600,102.541 257.334,101.542 256.130 C 100.939 255.403,100.400 255.465,100.400 256.261 M86.000 256.800 C 86.000 257.020,85.681 257.200,85.291 257.200 C 84.891 257.200,84.253 257.810,83.828 258.600 C 83.413 259.370,82.912 260.000,82.713 260.000 C 82.515 260.000,82.476 260.199,82.626 260.443 C 82.802 260.727,82.989 260.743,83.150 260.488 C 83.288 260.269,84.030 259.739,84.800 259.310 C 85.570 258.880,86.205 258.275,86.211 257.964 C 86.216 257.654,86.362 257.175,86.534 256.900 C 86.711 256.618,86.663 256.400,86.424 256.400 C 86.191 256.400,86.000 256.580,86.000 256.800 M312.800 257.973 C 312.800 258.353,314.905 260.000,315.390 260.000 C 315.891 260.000,316.800 261.142,316.800 261.771 C 316.800 262.117,316.994 262.400,317.232 262.400 C 318.054 262.400,317.104 259.207,316.276 259.191 C 316.014 259.186,315.350 258.830,314.800 258.400 C 313.730 257.563,312.800 257.364,312.800 257.973 M80.662 262.113 C 79.488 263.121,79.273 264.000,80.200 264.000 C 80.910 264.000,80.976 264.464,80.353 265.087 C 79.919 265.521,80.032 268.575,80.635 272.700 C 80.840 274.097,80.770 274.400,80.242 274.400 C 79.748 274.400,79.600 274.814,79.600 276.200 C 79.600 277.533,79.756 278.000,80.200 278.000 C 80.996 278.000,80.959 278.391,80.100 279.043 C 79.476 279.517,79.471 279.576,80.054 279.587 C 80.624 279.598,80.733 280.455,80.908 286.300 C 81.030 290.388,81.321 293.624,81.654 294.600 L 82.200 296.200 82.321 293.000 C 82.388 291.240,82.258 288.720,82.032 287.400 C 81.435 283.905,81.360 262.680,81.944 262.485 C 82.468 262.311,82.570 261.200,82.062 261.200 C 81.876 261.200,81.246 261.611,80.662 262.113 M317.609 263.820 C 317.604 264.491,317.804 265.244,318.054 265.494 C 318.393 265.833,318.383 266.894,318.015 269.674 C 317.744 271.723,317.585 274.660,317.661 276.200 L 317.800 279.000 318.339 277.400 C 319.330 274.456,319.393 264.789,318.429 263.600 L 317.618 262.600 317.609 263.820 M316.840 293.500 C 316.863 297.881,317.013 300.584,317.200 300.000 C 317.681 298.499,317.681 286.000,317.200 286.000 C 316.946 286.000,316.815 288.740,316.840 293.500 M82.109 300.000 C 82.109 300.990,82.187 301.395,82.282 300.900 C 82.378 300.405,82.378 299.595,82.282 299.100 C 82.187 298.605,82.109 299.010,82.109 300.000 M82.363 307.876 C 82.314 313.569,82.388 315.120,82.786 316.800 C 83.006 317.728,83.132 315.816,83.159 311.124 C 83.184 306.792,83.045 303.951,82.800 303.800 C 82.544 303.642,82.387 305.105,82.363 307.876 M316.138 311.863 C 316.282 314.868,316.400 319.188,316.400 321.463 C 316.400 323.954,316.559 325.600,316.800 325.600 C 317.047 325.600,317.200 323.554,317.200 320.262 C 317.200 312.946,316.764 306.400,316.277 306.400 C 316.016 306.400,315.967 308.302,316.138 311.863 M315.420 320.100 C 315.250 320.651,314.470 332.980,314.186 339.600 C 314.087 341.910,313.903 345.636,313.777 347.880 C 313.562 351.701,313.600 351.993,314.374 352.477 C 314.828 352.760,315.206 353.174,315.213 353.396 C 315.233 354.041,317.213 356.120,317.517 355.816 C 317.669 355.664,317.476 355.362,317.088 355.145 C 316.700 354.928,316.491 354.577,316.622 354.364 C 316.753 354.152,316.307 353.461,315.630 352.828 C 314.352 351.634,313.862 349.200,314.900 349.200 C 315.273 349.200,315.422 347.747,315.487 343.500 C 315.535 340.365,315.664 333.705,315.772 328.700 C 315.951 320.450,315.877 318.624,315.420 320.100 M83.168 324.900 C 83.040 326.935,83.322 330.669,83.627 330.980 C 83.858 331.215,84.000 330.034,84.000 327.880 C 84.000 325.099,83.311 322.631,83.168 324.900 M82.000 328.200 C 82.000 328.530,82.180 328.800,82.400 328.800 C 82.620 328.800,82.800 328.530,82.800 328.200 C 82.800 327.870,82.620 327.600,82.400 327.600 C 82.180 327.600,82.000 327.870,82.000 328.200 M84.261 336.702 C 84.158 336.868,84.051 339.778,84.022 343.168 C 83.975 348.758,83.897 349.396,83.185 350.013 C 82.296 350.784,82.183 351.200,82.864 351.200 C 83.613 351.200,85.623 348.707,85.424 348.025 C 85.225 347.339,84.594 337.183,84.721 336.700 C 84.824 336.311,84.502 336.312,84.261 336.702 M80.100 353.010 C 79.605 353.539,79.200 354.212,79.200 354.506 C 79.200 354.800,78.984 355.256,78.720 355.520 C 78.347 355.893,78.347 356.000,78.720 356.000 C 78.984 356.000,79.200 355.820,79.200 355.600 C 79.200 355.380,79.540 355.200,79.957 355.200 C 80.422 355.200,80.806 354.830,80.955 354.237 C 81.088 353.708,81.307 352.988,81.441 352.637 C 81.795 351.716,81.142 351.898,80.100 353.010 M76.987 357.333 C 76.388 358.010,75.102 360.835,75.302 361.035 C 75.605 361.338,77.004 359.832,77.528 358.639 C 78.063 357.421,77.695 356.533,76.987 357.333 M318.933 358.397 C 319.410 359.275,320.025 359.995,320.300 359.997 C 320.575 359.999,320.800 360.180,320.800 360.400 C 320.800 360.620,321.016 360.800,321.280 360.800 C 321.653 360.800,321.653 360.693,321.280 360.320 C 321.016 360.056,320.800 359.598,320.800 359.302 C 320.800 358.686,319.030 356.800,318.451 356.800 C 318.240 356.800,318.457 357.519,318.933 358.397 M83.800 360.800 C 83.664 361.020,83.141 361.200,82.638 361.200 C 81.632 361.200,79.200 362.291,79.200 362.743 C 79.200 362.900,78.660 363.346,78.000 363.736 C 76.659 364.529,76.582 364.749,77.301 365.733 C 77.769 366.372,77.938 366.351,79.801 365.421 C 80.901 364.872,82.272 364.331,82.849 364.217 C 84.658 363.861,85.701 362.741,85.387 361.492 C 85.115 360.405,84.271 360.038,83.800 360.800 M321.397 361.604 C 321.246 361.850,321.375 362.354,321.686 362.725 C 321.996 363.096,322.581 364.165,322.986 365.100 C 323.390 366.035,323.874 366.800,324.061 366.800 C 324.247 366.800,324.400 367.430,324.400 368.200 C 324.400 368.970,324.580 369.600,324.800 369.600 C 325.020 369.600,325.200 369.306,325.200 368.946 C 325.200 367.889,324.302 365.200,323.949 365.200 C 323.770 365.200,323.378 364.355,323.076 363.321 C 322.523 361.422,321.902 360.787,321.397 361.604 M74.000 363.400 C 74.000 363.730,74.180 364.000,74.400 364.000 C 74.620 364.000,74.800 363.730,74.800 363.400 C 74.800 363.070,74.620 362.800,74.400 362.800 C 74.180 362.800,74.000 363.070,74.000 363.400 M313.600 366.785 C 313.600 368.330,313.647 368.383,315.512 368.937 C 316.563 369.249,318.125 369.980,318.982 370.562 C 319.839 371.144,320.734 371.556,320.970 371.479 C 321.528 371.296,321.779 368.800,321.239 368.800 C 321.013 368.800,320.225 368.271,319.488 367.624 C 318.259 366.545,315.307 365.220,314.100 365.206 C 313.783 365.202,313.600 365.780,313.600 366.785 M72.400 368.400 C 72.400 369.733,72.222 370.800,72.000 370.800 C 71.778 370.800,71.600 371.867,71.600 373.200 C 71.600 374.533,71.422 375.600,71.200 375.600 C 70.980 375.600,70.800 376.590,70.800 377.800 C 70.800 379.010,70.620 380.000,70.400 380.000 C 70.180 380.000,70.000 380.349,70.000 380.776 C 70.000 381.203,70.180 381.664,70.400 381.800 C 70.626 381.940,70.800 381.612,70.800 381.047 C 70.800 380.497,70.980 379.936,71.200 379.800 C 71.420 379.664,71.600 378.944,71.600 378.200 C 71.600 377.456,71.780 376.736,72.000 376.600 C 72.220 376.464,72.400 375.474,72.400 374.400 C 72.400 373.326,72.580 372.336,72.800 372.200 C 73.020 372.064,73.200 370.984,73.200 369.800 C 73.200 368.616,73.380 367.536,73.600 367.400 C 74.304 366.965,74.028 366.000,73.200 366.000 C 72.489 366.000,72.400 366.267,72.400 368.400 M325.200 373.624 C 325.200 374.337,325.367 374.744,325.600 374.600 C 325.820 374.464,326.000 373.913,326.000 373.376 C 326.000 372.839,325.820 372.400,325.600 372.400 C 325.380 372.400,325.200 372.951,325.200 373.624 M326.186 380.260 C 326.349 380.887,326.569 382.390,326.676 383.600 C 326.783 384.810,327.035 385.971,327.235 386.180 C 327.436 386.389,327.600 387.413,327.600 388.456 C 327.600 389.499,327.780 390.464,328.000 390.600 C 328.220 390.736,328.400 391.377,328.400 392.024 C 328.400 392.671,328.580 393.200,328.800 393.200 C 329.020 393.200,329.200 393.729,329.200 394.376 C 329.200 395.023,329.380 395.664,329.600 395.800 C 329.833 395.944,330.000 395.545,330.000 394.847 C 330.000 394.187,329.820 393.536,329.600 393.400 C 329.380 393.264,329.200 392.353,329.200 391.376 C 329.200 390.399,329.020 389.600,328.800 389.600 C 328.580 389.600,328.400 388.646,328.400 387.480 C 328.400 386.314,328.230 385.189,328.021 384.980 C 327.813 384.771,327.588 383.432,327.521 382.004 C 327.420 379.832,327.277 379.385,326.646 379.264 C 325.998 379.141,325.933 379.282,326.186 380.260 M68.880 384.480 C 68.616 384.744,68.400 385.813,68.400 386.856 C 68.400 387.899,68.220 388.864,68.000 389.000 C 67.780 389.136,67.600 389.946,67.600 390.800 C 67.600 391.654,67.420 392.464,67.200 392.600 C 66.980 392.736,66.800 393.647,66.800 394.624 C 66.800 395.601,66.620 396.400,66.400 396.400 C 66.180 396.400,66.000 397.210,66.000 398.200 L 66.000 400.000 69.451 400.000 L 72.902 400.000 71.220 398.176 C 68.744 395.490,67.358 390.691,68.800 389.800 C 69.020 389.664,69.200 388.764,69.200 387.800 C 69.200 386.836,69.380 385.936,69.600 385.800 C 70.075 385.507,70.142 384.000,69.680 384.000 C 69.504 384.000,69.144 384.216,68.880 384.480 M329.892 397.900 C 329.781 398.285,329.561 398.915,329.403 399.300 C 329.165 399.878,329.330 400.000,330.357 400.000 C 331.387 400.000,331.600 399.843,331.600 399.080 C 331.600 397.524,330.265 396.602,329.892 397.900 " stroke="none" fill="#211d1a" fill-rule="evenodd"></path></g></svg>