<?xml version="1.0" encoding="UTF-8"?>
<!DOCTYPE svg PUBLIC "-//W3C//DTD SVG 1.1//EN" "http://www.w3.org/Graphics/SVG/1.1/DTD/svg11.dtd">
<svg xmlns="http://www.w3.org/2000/svg" version="1.1" width="460px" height="460px" style="shape-rendering:geometricPrecision; text-rendering:geometricPrecision; image-rendering:optimizeQuality; fill-rule:evenodd; clip-rule:evenodd" xmlns:xlink="http://www.w3.org/1999/xlink">
<g><path style="opacity:1" fill="#fefefe" d="M -0.5,-0.5 C 152.833,-0.5 306.167,-0.5 459.5,-0.5C 459.5,152.833 459.5,306.167 459.5,459.5C 306.167,459.5 152.833,459.5 -0.5,459.5C -0.5,306.167 -0.5,152.833 -0.5,-0.5 Z"/></g>
<g><path style="opacity:1" fill="#383838" d="M 233.5,38.5 C 227.347,38.9814 227.68,40.1481 234.5,42C 233.185,43.3946 233.519,44.3946 235.5,45C 232.167,45.3333 228.833,45.6667 225.5,46C 225,46.5 224.5,47 224,47.5C 217.998,48.0707 211.831,48.0707 205.5,47.5C 202.263,47.1408 200.097,45.4742 199,42.5C 198.536,43.0944 198.369,43.7611 198.5,44.5C 197.833,44.5 197.167,44.5 196.5,44.5C 198.06,41.4383 200.393,39.2717 203.5,38C 213.674,36.0876 223.674,36.2543 233.5,38.5 Z"/></g>
<g><path style="opacity:1" fill="#2b2b29" d="M 308.5,55.5 C 306.589,55.4257 305.422,54.4257 305,52.5C 303.653,56.375 302.486,56.375 301.5,52.5C 299.38,53.8909 297.047,54.5576 294.5,54.5C 288.939,52.8676 283.272,51.8676 277.5,51.5C 277.567,50.0413 277.234,48.7079 276.5,47.5C 275.687,46.3473 274.687,46.3473 273.5,47.5C 272.571,46.3112 272.238,44.9778 272.5,43.5C 273.265,43.9234 274.098,44.2568 275,44.5C 290.218,35.6879 301.385,39.3545 308.5,55.5 Z"/></g>
<g><path style="opacity:1" fill="#252524" d="M 270.5,40.5 C 269.637,39.537 268.97,39.537 268.5,40.5C 269.833,41.5 269.833,42.5 268.5,43.5C 268.977,44.4776 269.643,45.3109 270.5,46C 268.093,47.2672 265.76,47.7672 263.5,47.5C 262.452,46.6171 261.285,45.9504 260,45.5C 258.97,45.8361 258.47,46.5028 258.5,47.5C 250.347,46.326 242.347,46.326 234.5,47.5C 229.631,49.0386 226.965,52.372 226.5,57.5C 225.5,57.5 224.5,57.5 223.5,57.5C 223.5,58.5 223.5,59.5 223.5,60.5C 218.197,60.4234 213.197,59.2568 208.5,57C 204.054,54.3858 200.054,51.2191 196.5,47.5C 197.529,47.7036 198.529,47.2036 199.5,46C 198.944,45.6174 198.611,45.1174 198.5,44.5C 198.369,43.7611 198.536,43.0944 199,42.5C 200.097,45.4742 202.263,47.1408 205.5,47.5C 211.831,48.0707 217.998,48.0707 224,47.5C 224.5,47 225,46.5 225.5,46C 228.833,45.6667 232.167,45.3333 235.5,45C 233.519,44.3946 233.185,43.3946 234.5,42C 227.68,40.1481 227.347,38.9814 233.5,38.5C 235.913,40.0507 238.579,40.7174 241.5,40.5C 241.5,39.5 241.5,38.5 241.5,37.5C 245.762,36.3518 250.096,35.3518 254.5,34.5C 260.824,34.4076 266.157,36.4076 270.5,40.5 Z"/></g>
<g><path style="opacity:1" fill="#363534" d="M 186.5,44.5 C 183.743,46.0857 180.743,47.0857 177.5,47.5C 177.264,49.9732 175.931,51.6399 173.5,52.5C 171.668,53.2485 170.001,54.2485 168.5,55.5C 167.833,55.1667 167.167,54.8333 166.5,54.5C 163.446,56.7287 160.28,58.7287 157,60.5C 156,56.5 155,56.5 154,60.5C 153.506,58.8659 153.34,57.1992 153.5,55.5C 156.827,48.9924 162.16,45.1591 169.5,44C 172.626,43.2414 175.793,42.7414 179,42.5C 181.821,42.4078 184.321,43.0744 186.5,44.5 Z"/></g>
<g><path style="opacity:1" fill="#1f1e1c" d="M 276.5,47.5 C 277.234,48.7079 277.567,50.0413 277.5,51.5C 283.272,51.8676 288.939,52.8676 294.5,54.5C 297.047,54.5576 299.38,53.8909 301.5,52.5C 302.486,56.375 303.653,56.375 305,52.5C 305.422,54.4257 306.589,55.4257 308.5,55.5C 309.404,56.209 309.737,57.209 309.5,58.5C 310.791,58.2627 311.791,58.596 312.5,59.5C 312.423,60.7498 311.756,61.5831 310.5,62C 311.527,62.5133 312.527,63.0133 313.5,63.5C 314.105,65.0257 315.271,66.0257 317,66.5C 317.674,69.26 318.507,71.9267 319.5,74.5C 324.654,75.0063 329.654,75.673 334.5,76.5C 329.42,76.8494 324.42,76.8494 319.5,76.5C 315.062,72.5583 311.562,67.8916 309,62.5C 308.667,62.8333 308.333,63.1667 308,63.5C 307.564,60.7164 306.064,59.5498 303.5,60C 306.097,60.7792 306.097,61.2792 303.5,61.5C 299.871,58.1809 295.537,56.8475 290.5,57.5C 288.167,57.6667 285.833,57.8333 283.5,58C 280.822,61.1559 281.655,62.9892 286,63.5C 292.71,64.2539 299.21,65.5872 305.5,67.5C 305.635,65.4458 304.968,63.7791 303.5,62.5C 304.5,62.5 305.5,62.5 306.5,62.5C 307.044,64.5795 307.878,66.5795 309,68.5C 309.667,70.5 309.667,72.5 309,74.5C 306.578,71.8023 303.744,69.6357 300.5,68C 299.365,67.2506 298.365,67.4173 297.5,68.5C 300.486,71.4958 303.152,74.8291 305.5,78.5C 306.914,79.624 308.414,80.624 310,81.5C 310.114,86.174 311.28,90.5073 313.5,94.5C 312.672,95.4147 311.672,96.0814 310.5,96.5C 309.512,92.847 307.345,90.1803 304,88.5C 302.901,91.0443 301.735,91.0443 300.5,88.5C 300.977,87.5224 301.643,86.6891 302.5,86C 299.552,82.2171 295.886,79.3837 291.5,77.5C 285.477,78.215 280.477,76.0483 276.5,71C 277.665,69.9164 278.998,69.0831 280.5,68.5C 281.386,67.675 281.719,66.675 281.5,65.5C 280.167,65.5 278.833,65.5 277.5,65.5C 277.244,63.2075 277.577,61.0408 278.5,59C 281.927,57.2405 285.594,56.0738 289.5,55.5C 285.437,52.7666 281.103,52.1 276.5,53.5C 275.207,51.3635 275.207,49.3635 276.5,47.5 Z"/></g>
<g><path style="opacity:1" fill="#32312f" d="M 303.5,61.5 C 303.5,61.8333 303.5,62.1667 303.5,62.5C 304.968,63.7791 305.635,65.4458 305.5,67.5C 299.21,65.5872 292.71,64.2539 286,63.5C 281.655,62.9892 280.822,61.1559 283.5,58C 285.833,57.8333 288.167,57.6667 290.5,57.5C 295.537,56.8475 299.871,58.1809 303.5,61.5 Z"/></g>
<g><path style="opacity:1" fill="#343432" d="M 312.5,59.5 C 324.957,60.0304 335.123,65.0304 343,74.5C 343.483,75.448 343.649,76.448 343.5,77.5C 339.481,76.0649 335.981,73.7315 333,70.5C 328.556,71.5864 324.056,71.5864 319.5,70.5C 318.97,67.3181 317.97,64.3181 316.5,61.5C 314.821,61.2852 313.821,61.9519 313.5,63.5C 312.527,63.0133 311.527,62.5133 310.5,62C 311.756,61.5831 312.423,60.7498 312.5,59.5 Z"/></g>
<g><path style="opacity:1" fill="#3f3e3c" d="M 159.5,66.5 C 160.167,65.5 160.833,64.5 161.5,63.5C 168.568,60.8771 175.901,59.5438 183.5,59.5C 183.663,61.8568 183.497,64.1902 183,66.5C 176.266,72.2756 168.433,74.7756 159.5,74C 158.351,71.5408 158.351,69.0408 159.5,66.5 Z"/></g>
<g><path style="opacity:1" fill="#2a2927" d="M 186.5,44.5 C 188.553,44.4021 190.22,45.0687 191.5,46.5C 190.518,47.1408 189.518,47.8075 188.5,48.5C 187.833,47.8333 187.167,47.1667 186.5,46.5C 182.433,48.0728 179.1,50.5728 176.5,54C 173.475,54.1545 171.809,55.6545 171.5,58.5C 176.14,57.6027 180.806,57.4361 185.5,58C 188.833,58.6667 190.833,60.6667 191.5,64C 189.859,68.1163 187.359,71.6163 184,74.5C 183.727,76.1012 183.227,77.6012 182.5,79C 182.833,79.3333 183.167,79.6667 183.5,80C 180.623,80.9562 177.956,82.2895 175.5,84C 170.821,84.1637 166.155,84.1637 161.5,84C 160.809,85.0674 160.309,86.2341 160,87.5C 156.851,81.5597 155.851,75.2264 157,68.5C 157.708,67.6195 158.542,66.9528 159.5,66.5C 158.351,69.0408 158.351,71.5408 159.5,74C 168.433,74.7756 176.266,72.2756 183,66.5C 183.497,64.1902 183.663,61.8568 183.5,59.5C 175.901,59.5438 168.568,60.8771 161.5,63.5C 159.599,63.4332 157.766,63.7665 156,64.5C 153.916,63.2311 151.749,62.2311 149.5,61.5C 149.581,58.4866 150.914,56.4866 153.5,55.5C 153.34,57.1992 153.506,58.8659 154,60.5C 155,56.5 156,56.5 157,60.5C 160.28,58.7287 163.446,56.7287 166.5,54.5C 167.167,54.8333 167.833,55.1667 168.5,55.5C 170.001,54.2485 171.668,53.2485 173.5,52.5C 175.931,51.6399 177.264,49.9732 177.5,47.5C 180.743,47.0857 183.743,46.0857 186.5,44.5 Z"/></g>
<g><path style="opacity:1" fill="#30302e" d="M 149.5,62.5 C 149.473,64.1993 148.806,65.5326 147.5,66.5C 146.12,67.7065 144.953,67.3731 144,65.5C 143.426,67.492 142.259,68.992 140.5,70C 140.833,70.3333 141.167,70.6667 141.5,71C 139.102,71.3744 136.769,71.3744 134.5,71C 133.332,72.4056 133.665,73.5723 135.5,74.5C 134.975,75.1924 134.308,75.6924 133.5,76C 135.9,76.1858 138.234,76.6858 140.5,77.5C 138.97,79.2262 137.97,81.2262 137.5,83.5C 133.814,87.3519 130.314,91.3519 127,95.5C 126.667,94.5 126.333,93.5 126,92.5C 124.667,95.1667 123.333,95.1667 122,92.5C 121.02,93.9814 119.853,95.3147 118.5,96.5C 118.709,97.086 119.043,97.586 119.5,98C 117.382,98.2602 115.716,99.2602 114.5,101C 115.167,101.333 115.833,101.667 116.5,102C 113.924,103.456 111.258,104.623 108.5,105.5C 109.773,99.9504 113.106,96.2837 118.5,94.5C 119.153,90.1915 120.653,86.1915 123,82.5C 126.74,78.6895 129.74,74.3561 132,69.5C 136.731,64.4351 142.564,62.1018 149.5,62.5 Z"/></g>
<g><path style="opacity:1" fill="#181715" d="M 270.5,40.5 C 271.401,41.2905 272.068,42.2905 272.5,43.5C 272.238,44.9778 272.571,46.3112 273.5,47.5C 274.687,46.3473 275.687,46.3473 276.5,47.5C 275.207,49.3635 275.207,51.3635 276.5,53.5C 281.103,52.1 285.437,52.7666 289.5,55.5C 285.594,56.0738 281.927,57.2405 278.5,59C 277.577,61.0408 277.244,63.2075 277.5,65.5C 278.833,65.5 280.167,65.5 281.5,65.5C 281.719,66.675 281.386,67.675 280.5,68.5C 278.998,69.0831 277.665,69.9164 276.5,71C 280.477,76.0483 285.477,78.215 291.5,77.5C 295.886,79.3837 299.552,82.2171 302.5,86C 301.643,86.6891 300.977,87.5224 300.5,88.5C 301.735,91.0443 302.901,91.0443 304,88.5C 307.345,90.1803 309.512,92.847 310.5,96.5C 311.672,96.0814 312.672,95.4147 313.5,94.5C 311.28,90.5073 310.114,86.174 310,81.5C 308.414,80.624 306.914,79.624 305.5,78.5C 303.152,74.8291 300.486,71.4958 297.5,68.5C 298.365,67.4173 299.365,67.2506 300.5,68C 303.744,69.6357 306.578,71.8023 309,74.5C 309.667,72.5 309.667,70.5 309,68.5C 307.878,66.5795 307.044,64.5795 306.5,62.5C 305.5,62.5 304.5,62.5 303.5,62.5C 303.5,62.1667 303.5,61.8333 303.5,61.5C 306.097,61.2792 306.097,60.7792 303.5,60C 306.064,59.5498 307.564,60.7164 308,63.5C 308.333,63.1667 308.667,62.8333 309,62.5C 311.562,67.8916 315.062,72.5583 319.5,76.5C 324.42,76.8494 329.42,76.8494 334.5,76.5C 335.825,77.9526 336.658,77.6192 337,75.5C 337.684,76.7839 337.517,77.9505 336.5,79C 337.5,79.3333 338.5,79.6667 339.5,80C 335.514,80.4988 331.514,80.6655 327.5,80.5C 326.418,84.7541 325.751,89.0874 325.5,93.5C 326.095,99.1206 329.095,103.121 334.5,105.5C 335.807,113.394 336.473,113.394 336.5,105.5C 337.822,105.67 338.989,105.337 340,104.5C 341.532,101.203 343.532,98.2026 346,95.5C 347.375,97.9368 347.875,100.603 347.5,103.5C 350.237,103.37 352.237,104.536 353.5,107C 353.37,108.059 352.87,108.892 352,109.5C 346.453,107.216 344.619,108.882 346.5,114.5C 347.776,115.645 349.109,115.645 350.5,114.5C 351.192,115.025 351.692,115.692 352,116.5C 352.813,114.564 353.313,112.564 353.5,110.5C 355.429,110.231 357.095,110.731 358.5,112C 357.262,111.923 356.262,112.089 355.5,112.5C 357.559,113.951 358.559,115.951 358.5,118.5C 358.278,120.607 357.278,122.274 355.5,123.5C 358.167,127.989 361.001,132.322 364,136.5C 364.781,139.817 364.281,142.817 362.5,145.5C 361.571,144.685 360.571,143.852 359.5,143C 361.211,141.867 361.711,140.367 361,138.5C 360.333,141.167 359.667,141.167 359,138.5C 354.746,138.92 352.246,141.253 351.5,145.5C 349.604,146.466 347.604,146.799 345.5,146.5C 346.232,143.98 347.398,141.646 349,139.5C 349.903,135.967 349.57,132.633 348,129.5C 345.828,131.084 344.161,133.084 343,135.5C 342.275,134.941 341.442,134.608 340.5,134.5C 337.563,135.679 334.563,136.679 331.5,137.5C 330.167,137.167 328.833,136.833 327.5,136.5C 331.275,133.177 332.275,129.177 330.5,124.5C 329.5,124.167 328.5,123.833 327.5,123.5C 323.583,125.096 319.749,126.096 316,126.5C 315.228,126.355 314.561,126.022 314,125.5C 313.505,123.527 313.338,121.527 313.5,119.5C 314.451,120.919 314.784,122.585 314.5,124.5C 329.192,124.006 332.192,117.506 323.5,105C 319.414,103.209 315.581,101.042 312,98.5C 309.561,99.8616 309.061,101.695 310.5,104C 308.803,104.384 307.137,104.218 305.5,103.5C 303.456,102.969 301.789,101.802 300.5,100C 297.74,99.3259 295.073,98.4925 292.5,97.5C 286.621,96.2392 280.621,96.4059 274.5,98C 273.789,99.2547 272.956,100.421 272,101.5C 267.481,95.9909 261.648,93.3243 254.5,93.5C 255.388,90.9455 255.721,88.2788 255.5,85.5C 253.073,85.477 250.74,84.977 248.5,84C 247.62,82.6439 247.286,81.1439 247.5,79.5C 245.08,79.7076 242.747,79.3742 240.5,78.5C 239.686,81.4185 238.686,84.2519 237.5,87C 233.747,88.8114 229.747,89.9781 225.5,90.5C 230.856,98.8128 230.523,106.979 224.5,115C 221.568,116.145 218.568,116.978 215.5,117.5C 215.785,119.288 215.452,120.955 214.5,122.5C 211.635,121.597 209.802,120.264 209,118.5C 207.211,119.409 205.377,119.576 203.5,119C 204.022,118.439 204.355,117.772 204.5,117C 203.409,115.238 202.409,113.404 201.5,111.5C 199.674,111.92 197.674,111.92 195.5,111.5C 194.876,111.083 194.543,110.416 194.5,109.5C 195.486,104.359 197.152,99.5255 199.5,95C 194.606,94.367 190.106,92.867 186,90.5C 182.188,91.1459 178.354,91.6459 174.5,92C 173.944,92.3826 173.611,92.8826 173.5,93.5C 171.463,94.8465 169.463,96.1798 167.5,97.5C 165.903,98.7373 164.737,100.404 164,102.5C 163.51,103.793 163.343,105.127 163.5,106.5C 161.856,106.286 160.356,106.62 159,107.5C 158.365,102.871 155.698,100.871 151,101.5C 146.727,101.062 143.227,102.395 140.5,105.5C 139.094,105.973 138.427,106.973 138.5,108.5C 137.237,113.473 138.237,118.14 141.5,122.5C 146.726,126.027 152.393,128.86 158.5,131C 159.167,132 159.833,133 160.5,134C 163.036,134.186 165.369,134.686 167.5,135.5C 161.473,135.656 155.973,133.989 151,130.5C 148.722,131.62 147.222,130.787 146.5,128C 144.754,127.529 143.087,126.862 141.5,126C 140,123.167 137.833,121 135,119.5C 135.083,122.119 135.25,124.786 135.5,127.5C 134.448,127.351 133.448,127.517 132.5,128C 135.306,131.382 137.306,135.215 138.5,139.5C 135.334,139.766 132.167,140.099 129,140.5C 123.243,138.971 117.41,138.471 111.5,139C 111.007,143.992 110.007,148.825 108.5,153.5C 104.811,147.691 103.811,141.357 105.5,134.5C 108.853,136.842 109.186,136.176 106.5,132.5C 106.833,132.167 107.167,131.833 107.5,131.5C 108.892,132.605 110.059,133.939 111,135.5C 110.805,133.874 110.805,132.207 111,130.5C 113.696,131.19 115.863,132.69 117.5,135C 120.903,135.1 124.07,135.934 127,137.5C 127.353,136.328 127.187,135.162 126.5,134C 130.17,127.317 131.67,120.151 131,112.5C 130.439,111.978 129.772,111.645 129,111.5C 125.902,112.737 122.735,113.237 119.5,113C 118.919,109.98 118.585,106.98 118.5,104C 122.507,102.505 126.507,101.838 130.5,102C 131.819,98.5334 133.986,95.7 137,93.5C 139.096,94.7155 138.929,95.5488 136.5,96C 138.525,97.194 138.859,98.694 137.5,100.5C 141.474,102.178 143.474,100.844 143.5,96.5C 147.759,96.8981 149.592,94.8981 149,90.5C 149.953,88.5448 151.287,86.8782 153,85.5C 153.139,82.4248 152.639,79.4248 151.5,76.5C 148.309,76.2378 145.642,74.9045 143.5,72.5C 144.376,71.7492 145.376,71.2492 146.5,71C 146.043,70.586 145.709,70.086 145.5,69.5C 146.612,68.7348 147.279,67.7348 147.5,66.5C 148.806,65.5326 149.473,64.1993 149.5,62.5C 149.5,62.1667 149.5,61.8333 149.5,61.5C 151.749,62.2311 153.916,63.2311 156,64.5C 157.766,63.7665 159.599,63.4332 161.5,63.5C 160.833,64.5 160.167,65.5 159.5,66.5C 158.542,66.9528 157.708,67.6195 157,68.5C 155.851,75.2264 156.851,81.5597 160,87.5C 160.309,86.2341 160.809,85.0674 161.5,84C 166.155,84.1637 170.821,84.1637 175.5,84C 177.956,82.2895 180.623,80.9562 183.5,80C 183.167,79.6667 182.833,79.3333 182.5,79C 183.227,77.6012 183.727,76.1012 184,74.5C 187.359,71.6163 189.859,68.1163 191.5,64C 190.833,60.6667 188.833,58.6667 185.5,58C 180.806,57.4361 176.14,57.6027 171.5,58.5C 171.809,55.6545 173.475,54.1545 176.5,54C 179.1,50.5728 182.433,48.0728 186.5,46.5C 187.167,47.1667 187.833,47.8333 188.5,48.5C 189.518,47.8075 190.518,47.1408 191.5,46.5C 193.698,46.8799 195.365,46.2132 196.5,44.5C 197.167,44.5 197.833,44.5 198.5,44.5C 198.611,45.1174 198.944,45.6174 199.5,46C 198.529,47.2036 197.529,47.7036 196.5,47.5C 200.054,51.2191 204.054,54.3858 208.5,57C 213.197,59.2568 218.197,60.4234 223.5,60.5C 218.897,62.3997 213.897,63.733 208.5,64.5C 204.993,67.1625 201.327,69.6625 197.5,72C 196.253,73.9519 194.919,75.7853 193.5,77.5C 191.351,80.3955 191.017,83.5621 192.5,87C 197.072,90.7935 201.572,90.9601 206,87.5C 210.66,89.3863 210.494,91.053 205.5,92.5C 203.847,96.1217 202.514,99.7884 201.5,103.5C 201.667,104.833 201.833,106.167 202,107.5C 204.5,108.667 207,109.833 209.5,111C 208.692,111.308 208.025,111.808 207.5,112.5C 215.047,113.315 221.547,110.981 227,105.5C 229.345,96.2008 225.845,91.0342 216.5,90C 223.956,90.1911 230.623,88.1911 236.5,84C 237.268,79.8161 238.268,75.6494 239.5,71.5C 239.061,69.8957 238.394,68.3957 237.5,67C 237.735,66.1268 238.069,65.2935 238.5,64.5C 244.174,63.1335 249.841,62.8002 255.5,63.5C 252.099,63.9128 248.432,64.5795 244.5,65.5C 244.528,67.5824 243.861,69.4157 242.5,71C 244.521,71.1402 246.355,71.3068 248,71.5C 247.562,74.0598 247.729,76.5598 248.5,79C 250.618,79.2602 252.284,80.2602 253.5,82C 256.903,82.1004 260.07,82.9337 263,84.5C 263.333,83.8333 263.667,83.1667 264,82.5C 266.733,87.5071 270.066,87.8404 274,83.5C 276.44,76.9439 275.273,71.2773 270.5,66.5C 269.167,65.8333 268.167,64.8333 267.5,63.5C 267.389,62.8826 267.056,62.3826 266.5,62C 264.167,61.6667 261.833,61.3333 259.5,61C 262.758,60.7883 265.924,60.2883 269,59.5C 269.738,56.788 269.071,54.4547 267,52.5C 265.989,51.6634 264.822,51.33 263.5,51.5C 261.858,50.197 260.191,48.8637 258.5,47.5C 258.47,46.5028 258.97,45.8361 260,45.5C 261.285,45.9504 262.452,46.6171 263.5,47.5C 265.76,47.7672 268.093,47.2672 270.5,46C 269.643,45.3109 268.977,44.4776 268.5,43.5C 269.833,42.5 269.833,41.5 268.5,40.5C 268.97,39.537 269.637,39.537 270.5,40.5 Z"/></g>
<g><path style="opacity:1" fill="#343331" d="M 267.5,63.5 C 268.167,64.8333 269.167,65.8333 270.5,66.5C 270.178,68.7224 270.845,70.5557 272.5,72C 271.565,74.3806 271.232,76.8806 271.5,79.5C 263.974,79.7741 256.641,79.1074 249.5,77.5C 249.201,75.396 249.534,73.396 250.5,71.5C 253.717,69.4446 256.05,66.6112 257.5,63C 260.849,62.6124 264.183,62.7791 267.5,63.5 Z"/></g>
<g><path style="opacity:1" fill="#383735" d="M 291.5,77.5 C 287.46,76.6331 284.126,74.4665 281.5,71C 288.259,68.2877 294.259,69.4544 299.5,74.5C 300.95,75.8498 301.617,77.5165 301.5,79.5C 298.316,78.3573 294.983,77.6906 291.5,77.5 Z"/></g>
<g><path style="opacity:1" fill="#31302e" d="M 234.5,47.5 C 234.047,48.4584 233.381,49.2917 232.5,50C 234.569,51.5234 236.903,52.3568 239.5,52.5C 239.33,53.8221 239.663,54.9887 240.5,56C 242.167,56.1667 243.833,56.3333 245.5,56.5C 250.824,55.7013 256.157,55.0347 261.5,54.5C 260.957,51.9616 259.957,49.6282 258.5,47.5C 260.191,48.8637 261.858,50.197 263.5,51.5C 264.66,52.265 265.66,53.265 266.5,54.5C 264.5,55.5 262.5,56.5 260.5,57.5C 250.913,59.508 241.246,61.008 231.5,62C 231.167,62.3333 230.833,62.6667 230.5,63C 239.257,78.0769 234.924,85.2436 217.5,84.5C 217.297,82.6096 217.963,81.1096 219.5,80C 217.351,79.4212 215.185,78.9212 213,78.5C 207.929,79.1611 203.429,80.9944 199.5,84C 197.866,84.4935 196.199,84.6602 194.5,84.5C 194.007,82.1944 193.674,79.861 193.5,77.5C 194.919,75.7853 196.253,73.9519 197.5,72C 201.327,69.6625 204.993,67.1625 208.5,64.5C 213.897,63.733 218.897,62.3997 223.5,60.5C 223.5,59.5 223.5,58.5 223.5,57.5C 224.5,57.5 225.5,57.5 226.5,57.5C 226.965,52.372 229.631,49.0386 234.5,47.5 Z"/></g>
<g><path style="opacity:1" fill="#41403f" d="M 258.5,47.5 C 259.957,49.6282 260.957,51.9616 261.5,54.5C 256.157,55.0347 250.824,55.7013 245.5,56.5C 243.833,56.3333 242.167,56.1667 240.5,56C 239.663,54.9887 239.33,53.8221 239.5,52.5C 236.903,52.3568 234.569,51.5234 232.5,50C 233.381,49.2917 234.047,48.4584 234.5,47.5C 242.347,46.326 250.347,46.326 258.5,47.5 Z"/></g>
<g><path style="opacity:1" fill="#21201e" d="M 263.5,51.5 C 264.822,51.33 265.989,51.6634 267,52.5C 269.071,54.4547 269.738,56.788 269,59.5C 265.924,60.2883 262.758,60.7883 259.5,61C 261.833,61.3333 264.167,61.6667 266.5,62C 267.056,62.3826 267.389,62.8826 267.5,63.5C 264.183,62.7791 260.849,62.6124 257.5,63C 256.05,66.6112 253.717,69.4446 250.5,71.5C 249.534,73.396 249.201,75.396 249.5,77.5C 256.641,79.1074 263.974,79.7741 271.5,79.5C 271.232,76.8806 271.565,74.3806 272.5,72C 270.845,70.5557 270.178,68.7224 270.5,66.5C 275.273,71.2773 276.44,76.9439 274,83.5C 270.066,87.8404 266.733,87.5071 264,82.5C 263.667,83.1667 263.333,83.8333 263,84.5C 260.07,82.9337 256.903,82.1004 253.5,82C 252.284,80.2602 250.618,79.2602 248.5,79C 247.729,76.5598 247.562,74.0598 248,71.5C 246.355,71.3068 244.521,71.1402 242.5,71C 243.861,69.4157 244.528,67.5824 244.5,65.5C 248.432,64.5795 252.099,63.9128 255.5,63.5C 249.841,62.8002 244.174,63.1335 238.5,64.5C 238.069,65.2935 237.735,66.1268 237.5,67C 238.394,68.3957 239.061,69.8957 239.5,71.5C 238.268,75.6494 237.268,79.8161 236.5,84C 230.623,88.1911 223.956,90.1911 216.5,90C 225.845,91.0342 229.345,96.2008 227,105.5C 221.547,110.981 215.047,113.315 207.5,112.5C 208.025,111.808 208.692,111.308 209.5,111C 207,109.833 204.5,108.667 202,107.5C 201.833,106.167 201.667,104.833 201.5,103.5C 202.514,99.7884 203.847,96.1217 205.5,92.5C 210.494,91.053 210.66,89.3863 206,87.5C 201.572,90.9601 197.072,90.7935 192.5,87C 191.017,83.5621 191.351,80.3955 193.5,77.5C 193.674,79.861 194.007,82.1944 194.5,84.5C 196.199,84.6602 197.866,84.4935 199.5,84C 203.429,80.9944 207.929,79.1611 213,78.5C 215.185,78.9212 217.351,79.4212 219.5,80C 217.963,81.1096 217.297,82.6096 217.5,84.5C 234.924,85.2436 239.257,78.0769 230.5,63C 230.833,62.6667 231.167,62.3333 231.5,62C 241.246,61.008 250.913,59.508 260.5,57.5C 262.5,56.5 264.5,55.5 266.5,54.5C 265.66,53.265 264.66,52.265 263.5,51.5 Z"/></g>
<g><path style="opacity:1" fill="#31302e" d="M 211.5,92.5 C 215.555,92.1758 219.555,92.5091 223.5,93.5C 224.511,97.1339 224.511,100.801 223.5,104.5C 218.664,105.366 213.997,105.366 209.5,104.5C 208.16,103.312 207.493,101.812 207.5,100C 208.436,97.2951 209.769,94.7951 211.5,92.5 Z"/></g>
<g><path style="opacity:1" fill="#1e1d1a" d="M 254.5,93.5 C 261.648,93.3243 267.481,95.9909 272,101.5C 272.956,100.421 273.789,99.2547 274.5,98C 280.621,96.4059 286.621,96.2392 292.5,97.5C 289.421,97.2601 286.421,97.5934 283.5,98.5C 282.159,103.889 282.325,109.222 284,114.5C 285.916,116.209 288.082,117.543 290.5,118.5C 294.492,115.095 299.158,113.428 304.5,113.5C 305.051,110.193 305.384,106.86 305.5,103.5C 307.137,104.218 308.803,104.384 310.5,104C 309.061,101.695 309.561,99.8616 312,98.5C 315.581,101.042 319.414,103.209 323.5,105C 332.192,117.506 329.192,124.006 314.5,124.5C 314.784,122.585 314.451,120.919 313.5,119.5C 312.883,119.389 312.383,119.056 312,118.5C 311.667,116.5 311.333,114.5 311,112.5C 311.142,118.766 308.642,123.599 303.5,127C 299.531,127.263 295.864,127.097 292.5,126.5C 289.998,128.18 287.498,129.846 285,131.5C 280.665,131.705 276.165,131.371 271.5,130.5C 276.071,129.178 280.738,128.345 285.5,128C 282.341,127.989 279.507,127.155 277,125.5C 276.232,121.195 274.732,117.195 272.5,113.5C 270.885,114.154 269.218,114.654 267.5,115C 265.056,119.802 261.056,121.968 255.5,121.5C 255.719,122.675 255.386,123.675 254.5,124.5C 252.371,122.344 250.038,120.677 247.5,119.5C 247.582,124.217 246.248,124.383 243.5,120C 244.444,117.281 244.777,114.448 244.5,111.5C 242.833,111.5 241.167,111.5 239.5,111.5C 239.452,108.687 238.785,106.021 237.5,103.5C 238.333,101.833 239.167,100.167 240,98.5C 244.827,96.886 249.661,95.2194 254.5,93.5 Z"/></g>
<g><path style="opacity:1" fill="#2a2926" d="M 255.5,94.5 C 259.72,95.2949 263.553,96.9616 267,99.5C 267.99,103.444 267.49,107.111 265.5,110.5C 261.05,111.389 256.883,111.389 253,110.5C 251.72,110.387 250.887,109.72 250.5,108.5C 251.711,107.28 251.711,106.113 250.5,105C 247.807,105.502 245.14,105.335 242.5,104.5C 241.231,102.305 241.231,100.139 242.5,98C 246.211,97.8253 249.878,97.3253 253.5,96.5C 254.243,95.8182 254.909,95.1515 255.5,94.5 Z"/></g>
<g><path style="opacity:1" fill="#232220" d="M 343.5,77.5 C 344.166,80.6893 344.833,84.0227 345.5,87.5C 360.917,90.4487 366.083,99.4487 361,114.5C 360.392,116.066 359.558,117.4 358.5,118.5C 358.559,115.951 357.559,113.951 355.5,112.5C 356.262,112.089 357.262,111.923 358.5,112C 357.095,110.731 355.429,110.231 353.5,110.5C 353.313,112.564 352.813,114.564 352,116.5C 351.692,115.692 351.192,115.025 350.5,114.5C 349.109,115.645 347.776,115.645 346.5,114.5C 344.619,108.882 346.453,107.216 352,109.5C 352.87,108.892 353.37,108.059 353.5,107C 352.237,104.536 350.237,103.37 347.5,103.5C 347.875,100.603 347.375,97.9368 346,95.5C 343.532,98.2026 341.532,101.203 340,104.5C 338.989,105.337 337.822,105.67 336.5,105.5C 336.473,113.394 335.807,113.394 334.5,105.5C 329.095,103.121 326.095,99.1206 325.5,93.5C 325.751,89.0874 326.418,84.7541 327.5,80.5C 331.514,80.6655 335.514,80.4988 339.5,80C 338.5,79.6667 337.5,79.3333 336.5,79C 337.517,77.9505 337.684,76.7839 337,75.5C 336.658,77.6192 335.825,77.9526 334.5,76.5C 329.654,75.673 324.654,75.0063 319.5,74.5C 318.507,71.9267 317.674,69.26 317,66.5C 315.271,66.0257 314.105,65.0257 313.5,63.5C 313.821,61.9519 314.821,61.2852 316.5,61.5C 317.97,64.3181 318.97,67.3181 319.5,70.5C 324.056,71.5864 328.556,71.5864 333,70.5C 335.981,73.7315 339.481,76.0649 343.5,77.5 Z"/></g>
<g><path style="opacity:1" fill="#31302e" d="M 167.5,97.5 C 169.463,96.1798 171.463,94.8465 173.5,93.5C 178.717,91.7556 183.55,92.4223 188,95.5C 188.047,101.162 189.213,106.496 191.5,111.5C 188.995,111.02 186.662,110.02 184.5,108.5C 183.614,107.675 183.281,106.675 183.5,105.5C 178.433,105.151 173.433,104.318 168.5,103C 166.19,101.541 165.857,99.7081 167.5,97.5 Z"/></g>
<g><path style="opacity:1" fill="#343331" d="M 292.5,97.5 C 295.073,98.4925 297.74,99.3259 300.5,100C 301.789,101.802 303.456,102.969 305.5,103.5C 305.384,106.86 305.051,110.193 304.5,113.5C 299.158,113.428 294.492,115.095 290.5,118.5C 288.082,117.543 285.916,116.209 284,114.5C 282.325,109.222 282.159,103.889 283.5,98.5C 286.421,97.5934 289.421,97.2601 292.5,97.5 Z"/></g>
<g><path style="opacity:1" fill="#393836" d="M 138.5,108.5 C 138.427,106.973 139.094,105.973 140.5,105.5C 143.764,104.676 147.098,104.342 150.5,104.5C 150.319,112.326 152.653,119.326 157.5,125.5C 152.01,127.892 148.51,126.225 147,120.5C 145.108,119.87 143.441,118.87 142,117.5C 139.761,114.985 138.594,111.985 138.5,108.5 Z"/></g>
<g><path style="opacity:1" fill="#21201e" d="M 147.5,66.5 C 147.279,67.7348 146.612,68.7348 145.5,69.5C 145.709,70.086 146.043,70.586 146.5,71C 145.376,71.2492 144.376,71.7492 143.5,72.5C 145.642,74.9045 148.309,76.2378 151.5,76.5C 152.639,79.4248 153.139,82.4248 153,85.5C 151.287,86.8782 149.953,88.5448 149,90.5C 149.592,94.8981 147.759,96.8981 143.5,96.5C 143.474,100.844 141.474,102.178 137.5,100.5C 138.859,98.694 138.525,97.194 136.5,96C 138.929,95.5488 139.096,94.7155 137,93.5C 133.986,95.7 131.819,98.5334 130.5,102C 126.507,101.838 122.507,102.505 118.5,104C 118.585,106.98 118.919,109.98 119.5,113C 122.735,113.237 125.902,112.737 129,111.5C 129.772,111.645 130.439,111.978 131,112.5C 131.67,120.151 130.17,127.317 126.5,134C 127.187,135.162 127.353,136.328 127,137.5C 124.07,135.934 120.903,135.1 117.5,135C 115.863,132.69 113.696,131.19 111,130.5C 110.805,132.207 110.805,133.874 111,135.5C 110.059,133.939 108.892,132.605 107.5,131.5C 107.167,131.833 106.833,132.167 106.5,132.5C 109.186,136.176 108.853,136.842 105.5,134.5C 105.338,132.473 105.505,130.473 106,128.5C 107.353,127.315 108.52,125.981 109.5,124.5C 109.192,123.692 108.692,123.025 108,122.5C 107.182,116.651 107.348,110.985 108.5,105.5C 111.258,104.623 113.924,103.456 116.5,102C 115.833,101.667 115.167,101.333 114.5,101C 115.716,99.2602 117.382,98.2602 119.5,98C 119.043,97.586 118.709,97.086 118.5,96.5C 119.853,95.3147 121.02,93.9814 122,92.5C 123.333,95.1667 124.667,95.1667 126,92.5C 126.333,93.5 126.667,94.5 127,95.5C 130.314,91.3519 133.814,87.3519 137.5,83.5C 137.97,81.2262 138.97,79.2262 140.5,77.5C 138.234,76.6858 135.9,76.1858 133.5,76C 134.308,75.6924 134.975,75.1924 135.5,74.5C 133.665,73.5723 133.332,72.4056 134.5,71C 136.769,71.3744 139.102,71.3744 141.5,71C 141.167,70.6667 140.833,70.3333 140.5,70C 142.259,68.992 143.426,67.492 144,65.5C 144.953,67.3731 146.12,67.7065 147.5,66.5 Z"/></g>
<g><path style="opacity:1" fill="#1f1e1b" d="M 195.5,111.5 C 195.497,115.524 195.164,119.524 194.5,123.5C 194.716,125.384 195.383,127.051 196.5,128.5C 196,129.881 195,130.547 193.5,130.5C 190.194,129.837 186.861,129.337 183.5,129C 180.027,125.429 176.027,122.596 171.5,120.5C 168.263,118.274 166.263,115.274 165.5,111.5C 163.856,111.714 162.356,111.38 161,110.5C 160.446,117.041 161.946,123.041 165.5,128.5C 167.554,130.459 169.887,131.959 172.5,133C 170.922,134.094 169.255,134.928 167.5,135.5C 165.369,134.686 163.036,134.186 160.5,134C 159.833,133 159.167,132 158.5,131C 152.393,128.86 146.726,126.027 141.5,122.5C 138.237,118.14 137.237,113.473 138.5,108.5C 138.594,111.985 139.761,114.985 142,117.5C 143.441,118.87 145.108,119.87 147,120.5C 148.51,126.225 152.01,127.892 157.5,125.5C 152.653,119.326 150.319,112.326 150.5,104.5C 147.098,104.342 143.764,104.676 140.5,105.5C 143.227,102.395 146.727,101.062 151,101.5C 155.698,100.871 158.365,102.871 159,107.5C 160.356,106.62 161.856,106.286 163.5,106.5C 163.343,105.127 163.51,103.793 164,102.5C 164.737,100.404 165.903,98.7373 167.5,97.5C 165.857,99.7081 166.19,101.541 168.5,103C 173.433,104.318 178.433,105.151 183.5,105.5C 183.281,106.675 183.614,107.675 184.5,108.5C 186.662,110.02 188.995,111.02 191.5,111.5C 189.213,106.496 188.047,101.162 188,95.5C 183.55,92.4223 178.717,91.7556 173.5,93.5C 173.611,92.8826 173.944,92.3826 174.5,92C 178.354,91.6459 182.188,91.1459 186,90.5C 190.106,92.867 194.606,94.367 199.5,95C 197.152,99.5255 195.486,104.359 194.5,109.5C 194.543,110.416 194.876,111.083 195.5,111.5 Z"/></g>
<g><path style="opacity:1" fill="#13110e" d="M 254.5,93.5 C 249.661,95.2194 244.827,96.886 240,98.5C 239.167,100.167 238.333,101.833 237.5,103.5C 238.785,106.021 239.452,108.687 239.5,111.5C 241.167,111.5 242.833,111.5 244.5,111.5C 244.777,114.448 244.444,117.281 243.5,120C 246.248,124.383 247.582,124.217 247.5,119.5C 250.038,120.677 252.371,122.344 254.5,124.5C 255.386,123.675 255.719,122.675 255.5,121.5C 261.056,121.968 265.056,119.802 267.5,115C 269.218,114.654 270.885,114.154 272.5,113.5C 274.732,117.195 276.232,121.195 277,125.5C 279.507,127.155 282.341,127.989 285.5,128C 280.738,128.345 276.071,129.178 271.5,130.5C 276.165,131.371 280.665,131.705 285,131.5C 287.498,129.846 289.998,128.18 292.5,126.5C 295.864,127.097 299.531,127.263 303.5,127C 308.642,123.599 311.142,118.766 311,112.5C 311.333,114.5 311.667,116.5 312,118.5C 312.383,119.056 312.883,119.389 313.5,119.5C 313.338,121.527 313.505,123.527 314,125.5C 314.561,126.022 315.228,126.355 316,126.5C 319.749,126.096 323.583,125.096 327.5,123.5C 328.5,123.833 329.5,124.167 330.5,124.5C 332.275,129.177 331.275,133.177 327.5,136.5C 328.833,136.833 330.167,137.167 331.5,137.5C 334.563,136.679 337.563,135.679 340.5,134.5C 341.442,134.608 342.275,134.941 343,135.5C 344.161,133.084 345.828,131.084 348,129.5C 349.57,132.633 349.903,135.967 349,139.5C 347.398,141.646 346.232,143.98 345.5,146.5C 347.604,146.799 349.604,146.466 351.5,145.5C 352.246,141.253 354.746,138.92 359,138.5C 359.667,141.167 360.333,141.167 361,138.5C 361.711,140.367 361.211,141.867 359.5,143C 360.571,143.852 361.571,144.685 362.5,145.5C 360.054,151.793 355.887,156.793 350,160.5C 349.667,161.5 349.333,162.5 349,163.5C 347.301,185.131 346.468,206.798 346.5,228.5C 345.842,208.947 344.676,189.281 343,169.5C 341.342,167.677 339.509,166.01 337.5,164.5C 336.242,159.957 333.576,156.624 329.5,154.5C 329.573,152.973 328.906,151.973 327.5,151.5C 327.586,150.504 327.252,149.671 326.5,149C 324.595,147.579 322.595,146.412 320.5,145.5C 318.447,142.409 315.447,140.909 311.5,141C 276.896,138.002 242.229,137.002 207.5,138C 205.292,138.191 203.292,138.691 201.5,139.5C 200.833,139.5 200.167,139.5 199.5,139.5C 182.773,139.284 166.106,140.118 149.5,142C 148,143.115 146.333,143.948 144.5,144.5C 142.399,148.383 140.065,152.05 137.5,155.5C 135.726,156.37 134.393,157.703 133.5,159.5C 130.306,156.672 127.473,157.006 125,160.5C 122.945,160.848 120.945,160.181 119,158.5C 118.722,159.416 118.222,160.082 117.5,160.5C 114.208,158.542 111.208,156.209 108.5,153.5C 110.007,148.825 111.007,143.992 111.5,139C 117.41,138.471 123.243,138.971 129,140.5C 132.167,140.099 135.334,139.766 138.5,139.5C 137.306,135.215 135.306,131.382 132.5,128C 133.448,127.517 134.448,127.351 135.5,127.5C 135.25,124.786 135.083,122.119 135,119.5C 137.833,121 140,123.167 141.5,126C 143.087,126.862 144.754,127.529 146.5,128C 147.222,130.787 148.722,131.62 151,130.5C 155.973,133.989 161.473,135.656 167.5,135.5C 169.255,134.928 170.922,134.094 172.5,133C 169.887,131.959 167.554,130.459 165.5,128.5C 161.946,123.041 160.446,117.041 161,110.5C 162.356,111.38 163.856,111.714 165.5,111.5C 166.263,115.274 168.263,118.274 171.5,120.5C 176.027,122.596 180.027,125.429 183.5,129C 186.861,129.337 190.194,129.837 193.5,130.5C 195,130.547 196,129.881 196.5,128.5C 195.383,127.051 194.716,125.384 194.5,123.5C 195.164,119.524 195.497,115.524 195.5,111.5C 197.674,111.92 199.674,111.92 201.5,111.5C 202.409,113.404 203.409,115.238 204.5,117C 204.355,117.772 204.022,118.439 203.5,119C 205.377,119.576 207.211,119.409 209,118.5C 209.802,120.264 211.635,121.597 214.5,122.5C 215.452,120.955 215.785,119.288 215.5,117.5C 218.568,116.978 221.568,116.145 224.5,115C 230.523,106.979 230.856,98.8128 225.5,90.5C 229.747,89.9781 233.747,88.8114 237.5,87C 238.686,84.2519 239.686,81.4185 240.5,78.5C 242.747,79.3742 245.08,79.7076 247.5,79.5C 247.286,81.1439 247.62,82.6439 248.5,84C 250.74,84.977 253.073,85.477 255.5,85.5C 255.721,88.2788 255.388,90.9455 254.5,93.5 Z"/></g>
<g><path style="opacity:1" fill="#392516" d="M 320.5,145.5 C 315.615,144.013 310.615,142.846 305.5,142C 295.121,141.786 284.787,141.286 274.5,140.5C 250.184,138.743 225.851,138.41 201.5,139.5C 203.292,138.691 205.292,138.191 207.5,138C 242.229,137.002 276.896,138.002 311.5,141C 315.447,140.909 318.447,142.409 320.5,145.5 Z"/></g>
<g><path style="opacity:1" fill="#876c5b" d="M 234.5,140.5 C 234.833,140.5 235.167,140.5 235.5,140.5C 236.058,141.79 237.058,142.623 238.5,143C 247.474,143.999 256.474,144.665 265.5,145C 268.872,145.748 271.872,147.248 274.5,149.5C 274.291,150.086 273.957,150.586 273.5,151C 275.07,159.044 275.737,167.21 275.5,175.5C 269.91,174.56 264.41,174.56 259,175.5C 256.802,177.22 255.802,179.22 256,181.5C 255.667,181.167 255.333,180.833 255,180.5C 251.065,183.887 246.565,186.387 241.5,188C 240.874,188.75 240.374,189.584 240,190.5C 234.421,190.142 229.087,188.809 224,186.5C 221.25,187.291 218.417,187.291 215.5,186.5C 215.439,184.408 214.439,182.908 212.5,182C 209.5,181 206.5,180 203.5,179C 204.167,177.667 204.833,176.333 205.5,175C 196.992,171.144 193.325,164.644 194.5,155.5C 194.351,153.68 193.684,152.18 192.5,151C 195.876,150.693 197.21,148.86 196.5,145.5C 197.791,145.737 198.791,145.404 199.5,144.5C 202.697,144.027 205.863,143.361 209,142.5C 213.792,143.586 218.625,143.753 223.5,143C 227.121,141.862 230.788,141.028 234.5,140.5 Z"/></g>
<g><path style="opacity:1" fill="#785a45" d="M 234.5,140.5 C 230.788,141.028 227.121,141.862 223.5,143C 218.625,143.753 213.792,143.586 209,142.5C 205.863,143.361 202.697,144.027 199.5,144.5C 192.691,146.596 185.691,148.096 178.5,149C 177.167,149.667 177.167,150.333 178.5,151C 177.552,151.483 176.552,151.649 175.5,151.5C 175.893,159.686 175.893,168.019 175.5,176.5C 174.127,176.343 172.793,176.51 171.5,177C 174.379,177.546 177.046,178.379 179.5,179.5C 172.825,179.334 166.158,179.5 159.5,180C 158.473,180.513 157.473,181.013 156.5,181.5C 155.325,181.719 154.325,181.386 153.5,180.5C 155.475,176.461 157.142,172.295 158.5,168C 158.043,167.586 157.709,167.086 157.5,166.5C 159.261,162.063 160.428,157.397 161,152.5C 165.209,149.112 170.042,147.779 175.5,148.5C 175.5,147.5 175.5,146.5 175.5,145.5C 182.822,144.698 190.155,143.864 197.5,143C 198.756,142.583 199.423,141.75 199.5,140.5C 211.351,140.219 223.017,140.219 234.5,140.5 Z"/></g>
<g><path style="opacity:1" fill="#64442b" d="M 274.5,140.5 C 284.787,141.286 295.121,141.786 305.5,142C 310.615,142.846 315.615,144.013 320.5,145.5C 322.595,146.412 324.595,147.579 326.5,149C 327.252,149.671 327.586,150.504 327.5,151.5C 328.751,155.169 328.751,158.836 327.5,162.5C 329.676,166.223 331.009,170.223 331.5,174.5C 330.688,185.454 330.188,196.454 330,207.5C 329.586,207.957 329.086,208.291 328.5,208.5C 328.167,211.667 327.833,214.833 327.5,218C 328.385,226.54 328.719,235.04 328.5,243.5C 328.397,248.947 327.397,253.947 325.5,258.5C 325.737,254.278 325.404,250.111 324.5,246C 326.71,241.142 326.377,236.475 323.5,232C 324.658,230.991 325.325,229.658 325.5,228C 324.378,220.966 323.378,213.966 322.5,207C 322.94,204.781 323.607,202.281 324.5,199.5C 324.125,197.541 323.459,195.707 322.5,194C 322.957,193.586 323.291,193.086 323.5,192.5C 319.835,188.967 318.668,184.633 320,179.5C 321.103,177.242 321.936,174.909 322.5,172.5C 321.48,168.475 320.48,164.475 319.5,160.5C 320.5,160.5 321.5,160.5 322.5,160.5C 322.762,159.022 322.429,157.689 321.5,156.5C 319.833,155.5 318.5,154.167 317.5,152.5C 318.653,151.313 318.653,150.313 317.5,149.5C 314.002,148.341 310.335,147.341 306.5,146.5C 296.406,148.283 286.573,147.616 277,144.5C 275.405,143.644 274.572,142.311 274.5,140.5 Z"/></g>
<g><path style="opacity:1" fill="#72543d" d="M 274.5,140.5 C 274.572,142.311 275.405,143.644 277,144.5C 286.573,147.616 296.406,148.283 306.5,146.5C 310.335,147.341 314.002,148.341 317.5,149.5C 316.391,150.29 315.058,150.79 313.5,151C 314.668,152.871 314.168,154.371 312,155.5C 308.074,163.51 308.907,170.843 314.5,177.5C 313.449,180.506 311.449,180.839 308.5,178.5C 306.684,179.735 305.017,179.735 303.5,178.5C 302.678,176.272 301.345,175.605 299.5,176.5C 297.5,175.833 295.5,175.167 293.5,174.5C 291.451,169.731 291.451,165.065 293.5,160.5C 291.479,156.458 289.479,152.458 287.5,148.5C 280.892,148.041 274.892,145.874 269.5,142C 258.121,141.791 246.788,141.291 235.5,140.5C 235.167,140.5 234.833,140.5 234.5,140.5C 223.017,140.219 211.351,140.219 199.5,140.5C 199.5,140.167 199.5,139.833 199.5,139.5C 200.167,139.5 200.833,139.5 201.5,139.5C 225.851,138.41 250.184,138.743 274.5,140.5 Z"/></g>
<g><path style="opacity:1" fill="#5e4027" d="M 140.5,155.5 C 140.183,159.927 140.183,164.261 140.5,168.5C 139.752,170.332 138.752,171.999 137.5,173.5C 138.347,174.845 139.513,175.845 141,176.5C 141.087,181.488 140.92,186.488 140.5,191.5C 139.5,191.5 138.5,191.5 137.5,191.5C 138.818,195.844 139.818,200.344 140.5,205C 139.114,216.835 137.781,228.669 136.5,240.5C 138.43,244.567 138.763,248.734 137.5,253C 139.029,254.582 139.529,256.415 139,258.5C 137.989,257.663 136.822,257.33 135.5,257.5C 135.5,260.167 135.5,262.833 135.5,265.5C 140.794,265.682 140.794,266.182 135.5,267C 137.708,267.191 139.708,267.691 141.5,268.5C 140.5,268.5 139.5,268.5 138.5,268.5C 136.167,268.5 133.833,268.5 131.5,268.5C 131.068,267.29 130.401,266.29 129.5,265.5C 129.167,264.167 128.833,262.833 128.5,261.5C 129.482,262.141 130.482,262.807 131.5,263.5C 132.936,260.232 132.603,257.232 130.5,254.5C 131.95,252.107 132.617,249.44 132.5,246.5C 131.506,236.479 131.839,226.313 133.5,216C 132.718,209.172 132.551,202.339 133,195.5C 134.992,187.719 135.992,179.719 136,171.5C 136.949,165.87 138.449,160.537 140.5,155.5 Z"/></g>
<g><path style="opacity:1" fill="#684830" d="M 199.5,140.5 C 199.423,141.75 198.756,142.583 197.5,143C 190.155,143.864 182.822,144.698 175.5,145.5C 175.5,146.5 175.5,147.5 175.5,148.5C 170.042,147.779 165.209,149.112 161,152.5C 160.428,157.397 159.261,162.063 157.5,166.5C 157.709,167.086 158.043,167.586 158.5,168C 157.142,172.295 155.475,176.461 153.5,180.5C 154.325,181.386 155.325,181.719 156.5,181.5C 155.158,182.793 153.491,183.626 151.5,184C 149.789,186.589 147.955,189.089 146,191.5C 143.994,194.536 143.16,197.869 143.5,201.5C 146.108,201.6 148.442,200.933 150.5,199.5C 149.017,201.484 147.351,203.317 145.5,205C 146.783,206.136 147.783,207.469 148.5,209C 147.045,211.626 145.378,214.126 143.5,216.5C 148.634,219.26 149.134,222.26 145,225.5C 144.333,227.167 144.333,228.833 145,230.5C 145.697,227.308 147.53,225.308 150.5,224.5C 148.453,230.19 146.453,235.857 144.5,241.5C 145.5,241.5 146.5,241.5 147.5,241.5C 147.5,241.833 147.5,242.167 147.5,242.5C 146.178,242.33 145.011,242.663 144,243.5C 143.333,246.5 143.333,249.5 144,252.5C 145.816,253.329 147.649,254.163 149.5,255C 148.929,256.205 148.262,257.372 147.5,258.5C 144.849,256.997 143.516,257.83 143.5,261C 143.833,261.833 144.167,262.667 144.5,263.5C 146.877,264.585 149.211,265.752 151.5,267C 148.207,267.826 144.874,268.326 141.5,268.5C 139.708,267.691 137.708,267.191 135.5,267C 140.794,266.182 140.794,265.682 135.5,265.5C 135.5,262.833 135.5,260.167 135.5,257.5C 136.822,257.33 137.989,257.663 139,258.5C 139.529,256.415 139.029,254.582 137.5,253C 138.763,248.734 138.43,244.567 136.5,240.5C 137.781,228.669 139.114,216.835 140.5,205C 139.818,200.344 138.818,195.844 137.5,191.5C 138.5,191.5 139.5,191.5 140.5,191.5C 140.92,186.488 141.087,181.488 141,176.5C 139.513,175.845 138.347,174.845 137.5,173.5C 138.752,171.999 139.752,170.332 140.5,168.5C 140.183,164.261 140.183,159.927 140.5,155.5C 141.62,153.425 142.62,151.259 143.5,149C 155.999,150.069 167.999,148.069 179.5,143C 186.287,142.874 192.954,142.041 199.5,140.5 Z"/></g>
<g><path style="opacity:1" fill="#5c3d25" d="M 327.5,151.5 C 328.906,151.973 329.573,152.973 329.5,154.5C 333.106,160.992 335.106,167.992 335.5,175.5C 335.668,182.852 336.168,190.185 337,197.5C 339.737,208.129 340.237,218.963 338.5,230C 339.029,234.115 340.029,238.115 341.5,242C 340.8,247.174 340.133,252.341 339.5,257.5C 338.164,260.838 336.831,264.171 335.5,267.5C 332.833,267.5 330.167,267.5 327.5,267.5C 328.609,266.71 329.942,266.21 331.5,266C 326.616,265.888 324.616,263.388 325.5,258.5C 327.397,253.947 328.397,248.947 328.5,243.5C 328.719,235.04 328.385,226.54 327.5,218C 327.833,214.833 328.167,211.667 328.5,208.5C 329.086,208.291 329.586,207.957 330,207.5C 330.188,196.454 330.688,185.454 331.5,174.5C 331.009,170.223 329.676,166.223 327.5,162.5C 328.751,158.836 328.751,155.169 327.5,151.5 Z"/></g>
<g><path style="opacity:1" fill="#201c19" d="M 133.5,159.5 C 132.695,163.236 131.362,166.736 129.5,170C 130.846,172.794 130.346,175.294 128,177.5C 127.667,176.5 127.333,175.5 127,174.5C 126.667,174.833 126.333,175.167 126,175.5C 125.315,179.539 124.148,183.205 122.5,186.5C 121.671,179.345 121.171,172.011 121,164.5C 119.624,163.295 118.458,161.962 117.5,160.5C 118.222,160.082 118.722,159.416 119,158.5C 120.945,160.181 122.945,160.848 125,160.5C 127.473,157.006 130.306,156.672 133.5,159.5 Z"/></g>
<g><path style="opacity:1" fill="#7f6452" d="M 235.5,140.5 C 246.788,141.291 258.121,141.791 269.5,142C 274.892,145.874 280.892,148.041 287.5,148.5C 289.479,152.458 291.479,156.458 293.5,160.5C 291.451,165.065 291.451,169.731 293.5,174.5C 295.5,175.167 297.5,175.833 299.5,176.5C 301.345,175.605 302.678,176.272 303.5,178.5C 300.833,178.5 298.167,178.5 295.5,178.5C 288.786,178.363 282.12,178.863 275.5,180C 270.844,181.275 266.178,182.441 261.5,183.5C 260.504,183.414 259.671,183.748 259,184.5C 258.667,187.5 258.333,190.5 258,193.5C 257.333,192.833 256.667,192.167 256,191.5C 250.649,195.621 245.316,199.621 240,203.5C 239.308,219.218 239.974,234.885 242,250.5C 242.309,251.766 242.809,252.933 243.5,254C 242.366,255.016 242.699,255.683 244.5,256C 243.833,256.333 243.167,256.667 242.5,257C 244.167,258 245.833,259 247.5,260C 253.215,260.05 258.881,260.717 264.5,262C 263.167,261.333 263.167,260.667 264.5,260C 262.234,258.574 260.567,256.741 259.5,254.5C 262.964,257.738 266.964,260.238 271.5,262C 289.662,266.975 304.329,262.142 315.5,247.5C 316.768,245.696 317.435,243.696 317.5,241.5C 318.117,241.611 318.617,241.944 319,242.5C 320.258,247.729 318.591,251.729 314,254.5C 313.667,255.833 313.333,257.167 313,258.5C 309.942,259.763 306.775,260.763 303.5,261.5C 304.981,261.365 306.647,261.699 308.5,262.5C 309.466,264.396 309.799,266.396 309.5,268.5C 312.833,268.833 316.167,269.167 319.5,269.5C 319.5,269.833 319.5,270.167 319.5,270.5C 311.5,270.5 303.5,270.5 295.5,270.5C 291.833,270.5 288.167,270.5 284.5,270.5C 274.869,269.202 265.202,267.535 255.5,265.5C 245.322,261.585 234.655,259.919 223.5,260.5C 222.319,258.933 220.653,258.099 218.5,258C 220.577,257.808 222.577,257.308 224.5,256.5C 224.074,241.843 224.074,227.176 224.5,212.5C 224.082,208.157 223.582,203.824 223,199.5C 221.357,197.023 219.524,194.69 217.5,192.5C 214.53,192.005 212.196,190.505 210.5,188C 208.892,187.342 207.725,187.842 207,189.5C 205.187,188.391 204.354,189.058 204.5,191.5C 203.527,189.052 203.194,186.385 203.5,183.5C 202.167,183.5 200.833,183.5 199.5,183.5C 194.194,182.523 188.861,181.523 183.5,180.5C 182.432,179.566 181.099,179.232 179.5,179.5C 177.046,178.379 174.379,177.546 171.5,177C 172.793,176.51 174.127,176.343 175.5,176.5C 175.893,168.019 175.893,159.686 175.5,151.5C 176.552,151.649 177.552,151.483 178.5,151C 177.167,150.333 177.167,149.667 178.5,149C 185.691,148.096 192.691,146.596 199.5,144.5C 198.791,145.404 197.791,145.737 196.5,145.5C 197.21,148.86 195.876,150.693 192.5,151C 193.684,152.18 194.351,153.68 194.5,155.5C 193.325,164.644 196.992,171.144 205.5,175C 204.833,176.333 204.167,177.667 203.5,179C 206.5,180 209.5,181 212.5,182C 214.439,182.908 215.439,184.408 215.5,186.5C 218.417,187.291 221.25,187.291 224,186.5C 229.087,188.809 234.421,190.142 240,190.5C 240.374,189.584 240.874,188.75 241.5,188C 246.565,186.387 251.065,183.887 255,180.5C 255.333,180.833 255.667,181.167 256,181.5C 255.802,179.22 256.802,177.22 259,175.5C 264.41,174.56 269.91,174.56 275.5,175.5C 275.737,167.21 275.07,159.044 273.5,151C 273.957,150.586 274.291,150.086 274.5,149.5C 271.872,147.248 268.872,145.748 265.5,145C 256.474,144.665 247.474,143.999 238.5,143C 237.058,142.623 236.058,141.79 235.5,140.5 Z"/></g>
<g><path style="opacity:1" fill="#302a23" d="M 183.5,180.5 C 188.861,181.523 194.194,182.523 199.5,183.5C 202.167,187.5 202.167,191.5 199.5,195.5C 194.623,196.188 190.29,195.021 186.5,192C 176.804,191.352 167.138,191.686 157.5,193C 155.089,194.955 152.589,196.789 150,198.5C 147.518,196.59 147.018,194.257 148.5,191.5C 151.84,188.493 155.173,185.493 158.5,182.5C 166.906,182.352 175.239,181.686 183.5,180.5 Z"/></g>
<g><path style="opacity:1" fill="#352a23" d="M 295.5,178.5 C 302.589,179.206 308.922,181.873 314.5,186.5C 315.132,188.737 316.465,190.403 318.5,191.5C 319.418,193.758 320.085,196.091 320.5,198.5C 319.87,201.647 318.203,202.313 315.5,200.5C 311.382,198.22 307.382,195.72 303.5,193C 297.167,192.333 290.833,192.333 284.5,193C 277.252,193.937 270.252,195.27 263.5,197C 259.196,192.97 258.529,188.47 261.5,183.5C 266.178,182.441 270.844,181.275 275.5,180C 282.12,178.863 288.786,178.363 295.5,178.5 Z"/></g>
<g><path style="opacity:1" fill="#785a45" d="M 223.5,260.5 C 215.366,261.517 207.366,263.184 199.5,265.5C 196.5,265.833 195.167,264.5 195.5,261.5C 201.63,262.252 204.63,259.585 204.5,253.5C 206.123,250.785 206.79,247.785 206.5,244.5C 207.264,246.74 208.098,249.073 209,251.5C 210.067,252.191 211.234,252.691 212.5,253C 210.551,254.835 208.217,256.001 205.5,256.5C 205.167,257.167 204.833,257.833 204.5,258.5C 209.509,259.878 213.676,258.544 217,254.5C 217.5,244.506 217.666,234.506 217.5,224.5C 216.901,219.267 215.901,214.101 214.5,209C 211.411,205.182 207.911,201.682 204,198.5C 202.817,199.731 201.651,199.731 200.5,198.5C 202.138,197.042 203.805,196.708 205.5,197.5C 206.244,196.009 206.91,194.509 207.5,193C 206.756,191.961 205.756,191.461 204.5,191.5C 204.354,189.058 205.187,188.391 207,189.5C 207.725,187.842 208.892,187.342 210.5,188C 212.196,190.505 214.53,192.005 217.5,192.5C 219.524,194.69 221.357,197.023 223,199.5C 223.582,203.824 224.082,208.157 224.5,212.5C 224.074,227.176 224.074,241.843 224.5,256.5C 222.577,257.308 220.577,257.808 218.5,258C 220.653,258.099 222.319,258.933 223.5,260.5 Z"/></g>
<g><path style="opacity:1" fill="#3f2e21" d="M 179.5,179.5 C 181.099,179.232 182.432,179.566 183.5,180.5C 175.239,181.686 166.906,182.352 158.5,182.5C 155.173,185.493 151.84,188.493 148.5,191.5C 147.018,194.257 147.518,196.59 150,198.5C 152.589,196.789 155.089,194.955 157.5,193C 167.138,191.686 176.804,191.352 186.5,192C 190.29,195.021 194.623,196.188 199.5,195.5C 198.666,196.748 197.333,197.415 195.5,197.5C 183.058,193.444 170.391,192.611 157.5,195C 155.266,196.75 152.932,198.25 150.5,199.5C 148.442,200.933 146.108,201.6 143.5,201.5C 143.16,197.869 143.994,194.536 146,191.5C 147.955,189.089 149.789,186.589 151.5,184C 153.491,183.626 155.158,182.793 156.5,181.5C 157.473,181.013 158.473,180.513 159.5,180C 166.158,179.5 172.825,179.334 179.5,179.5 Z"/></g>
<g><path style="opacity:1" fill="#322215" d="M 329.5,154.5 C 333.576,156.624 336.242,159.957 337.5,164.5C 339.509,166.01 341.342,167.677 343,169.5C 344.676,189.281 345.842,208.947 346.5,228.5C 345.766,229.708 345.433,231.041 345.5,232.5C 344.778,232.082 344.278,231.416 344,230.5C 343.243,211.692 340.41,193.358 335.5,175.5C 335.106,167.992 333.106,160.992 329.5,154.5 Z"/></g>
<g><path style="opacity:1" fill="#6e513c" d="M 199.5,183.5 C 200.833,183.5 202.167,183.5 203.5,183.5C 203.194,186.385 203.527,189.052 204.5,191.5C 205.756,191.461 206.756,191.961 207.5,193C 206.91,194.509 206.244,196.009 205.5,197.5C 203.805,196.708 202.138,197.042 200.5,198.5C 201.651,199.731 202.817,199.731 204,198.5C 207.911,201.682 211.411,205.182 214.5,209C 215.901,214.101 216.901,219.267 217.5,224.5C 214.529,219.436 212.029,214.103 210,208.5C 207.931,207.736 205.764,207.236 203.5,207C 200.589,203.019 197.089,202.185 193,204.5C 190.455,203.203 187.955,203.369 185.5,205C 186.062,206.565 186.562,208.399 187,210.5C 185,211.833 183,211.833 181,210.5C 180.544,211.744 181.044,212.577 182.5,213C 172.983,213.565 163.983,215.065 155.5,217.5C 154.833,219.5 154.167,221.5 153.5,223.5C 152.209,223.263 151.209,223.596 150.5,224.5C 147.53,225.308 145.697,227.308 145,230.5C 144.333,228.833 144.333,227.167 145,225.5C 149.134,222.26 148.634,219.26 143.5,216.5C 145.378,214.126 147.045,211.626 148.5,209C 147.783,207.469 146.783,206.136 145.5,205C 147.351,203.317 149.017,201.484 150.5,199.5C 152.932,198.25 155.266,196.75 157.5,195C 170.391,192.611 183.058,193.444 195.5,197.5C 197.333,197.415 198.666,196.748 199.5,195.5C 202.167,191.5 202.167,187.5 199.5,183.5 Z"/></g>
<g><path style="opacity:1" fill="#2d221a" d="M 137.5,155.5 C 136.501,158.162 135.501,160.828 134.5,163.5C 131.872,171.199 129.872,179.199 128.5,187.5C 127.423,199.481 126.59,211.481 126,223.5C 125.333,222.167 124.667,222.167 124,223.5C 123.827,217.984 123.327,212.651 122.5,207.5C 122.5,200.5 122.5,193.5 122.5,186.5C 124.148,183.205 125.315,179.539 126,175.5C 126.333,175.167 126.667,174.833 127,174.5C 127.333,175.5 127.667,176.5 128,177.5C 130.346,175.294 130.846,172.794 129.5,170C 131.362,166.736 132.695,163.236 133.5,159.5C 134.393,157.703 135.726,156.37 137.5,155.5 Z"/></g>
<g><path style="opacity:1" fill="#725641" d="M 261.5,183.5 C 258.529,188.47 259.196,192.97 263.5,197C 270.252,195.27 277.252,193.937 284.5,193C 290.833,192.333 297.167,192.333 303.5,193C 307.382,195.72 311.382,198.22 315.5,200.5C 315.953,201.458 316.619,202.292 317.5,203C 316.5,203.333 315.5,203.667 314.5,204C 315.509,206.172 317.176,207.338 319.5,207.5C 319.665,210.518 319.498,213.518 319,216.5C 317.945,218.693 316.779,220.026 315.5,220.5C 316.43,222.606 317.596,224.606 319,226.5C 319.823,235.164 320.156,243.831 320,252.5C 319.5,253 319,253.5 318.5,254C 319.376,256.579 319.376,259.246 318.5,262C 318.325,263.658 317.658,264.991 316.5,266C 319.925,268.537 323.592,269.037 327.5,267.5C 330.167,267.5 332.833,267.5 335.5,267.5C 334.737,268.268 333.737,268.768 332.5,269C 328.179,269.499 323.846,269.666 319.5,269.5C 316.167,269.167 312.833,268.833 309.5,268.5C 309.799,266.396 309.466,264.396 308.5,262.5C 306.647,261.699 304.981,261.365 303.5,261.5C 306.775,260.763 309.942,259.763 313,258.5C 313.333,257.167 313.667,255.833 314,254.5C 318.591,251.729 320.258,247.729 319,242.5C 318.617,241.944 318.117,241.611 317.5,241.5C 317.5,241.167 317.5,240.833 317.5,240.5C 318.622,238.712 318.789,236.712 318,234.5C 316.234,232.404 314.901,230.071 314,227.5C 310.077,223.798 305.91,220.464 301.5,217.5C 297.47,215.403 293.303,213.403 289,211.5C 288,211.833 287,212.167 286,212.5C 284.352,211.283 282.519,210.45 280.5,210C 278.941,207.358 279.275,205.025 281.5,203C 267.339,197.942 255.839,201.775 247,214.5C 245.337,225.455 244.671,236.455 245,247.5C 245.11,250.646 246.443,251.646 249,250.5C 249.494,252.134 249.66,253.801 249.5,255.5C 251.167,255.5 252.833,255.5 254.5,255.5C 254.365,253.446 255.032,251.779 256.5,250.5C 258.262,251.262 259.262,252.596 259.5,254.5C 260.567,256.741 262.234,258.574 264.5,260C 263.167,260.667 263.167,261.333 264.5,262C 258.881,260.717 253.215,260.05 247.5,260C 245.833,259 244.167,258 242.5,257C 243.167,256.667 243.833,256.333 244.5,256C 242.699,255.683 242.366,255.016 243.5,254C 242.809,252.933 242.309,251.766 242,250.5C 239.974,234.885 239.308,219.218 240,203.5C 245.316,199.621 250.649,195.621 256,191.5C 256.667,192.167 257.333,192.833 258,193.5C 258.333,190.5 258.667,187.5 259,184.5C 259.671,183.748 260.504,183.414 261.5,183.5 Z"/></g>
<g><path style="opacity:1" fill="#6c4e36" d="M 317.5,149.5 C 318.653,150.313 318.653,151.313 317.5,152.5C 318.5,154.167 319.833,155.5 321.5,156.5C 322.429,157.689 322.762,159.022 322.5,160.5C 321.5,160.5 320.5,160.5 319.5,160.5C 320.48,164.475 321.48,168.475 322.5,172.5C 321.936,174.909 321.103,177.242 320,179.5C 318.668,184.633 319.835,188.967 323.5,192.5C 323.291,193.086 322.957,193.586 322.5,194C 323.459,195.707 324.125,197.541 324.5,199.5C 323.607,202.281 322.94,204.781 322.5,207C 323.378,213.966 324.378,220.966 325.5,228C 325.325,229.658 324.658,230.991 323.5,232C 326.377,236.475 326.71,241.142 324.5,246C 325.404,250.111 325.737,254.278 325.5,258.5C 324.616,263.388 326.616,265.888 331.5,266C 329.942,266.21 328.609,266.71 327.5,267.5C 323.592,269.037 319.925,268.537 316.5,266C 317.658,264.991 318.325,263.658 318.5,262C 319.376,259.246 319.376,256.579 318.5,254C 319,253.5 319.5,253 320,252.5C 320.156,243.831 319.823,235.164 319,226.5C 317.596,224.606 316.43,222.606 315.5,220.5C 316.779,220.026 317.945,218.693 319,216.5C 319.498,213.518 319.665,210.518 319.5,207.5C 317.176,207.338 315.509,206.172 314.5,204C 315.5,203.667 316.5,203.333 317.5,203C 316.619,202.292 315.953,201.458 315.5,200.5C 318.203,202.313 319.87,201.647 320.5,198.5C 320.085,196.091 319.418,193.758 318.5,191.5C 316.465,190.403 315.132,188.737 314.5,186.5C 308.922,181.873 302.589,179.206 295.5,178.5C 298.167,178.5 300.833,178.5 303.5,178.5C 305.017,179.735 306.684,179.735 308.5,178.5C 311.449,180.839 313.449,180.506 314.5,177.5C 308.907,170.843 308.074,163.51 312,155.5C 314.168,154.371 314.668,152.871 313.5,151C 315.058,150.79 316.391,150.29 317.5,149.5 Z"/></g>
<g><path style="opacity:1" fill="#61432f" d="M 217.5,224.5 C 217.666,234.506 217.5,244.506 217,254.5C 213.676,258.544 209.509,259.878 204.5,258.5C 204.833,257.833 205.167,257.167 205.5,256.5C 208.217,256.001 210.551,254.835 212.5,253C 211.234,252.691 210.067,252.191 209,251.5C 208.098,249.073 207.264,246.74 206.5,244.5C 206.567,243.041 206.234,241.708 205.5,240.5C 206.634,238.034 206.801,235.367 206,232.5C 205.667,232.833 205.333,233.167 205,233.5C 192.893,216.384 177.06,211.884 157.5,220C 156.295,221.376 154.962,222.542 153.5,223.5C 154.167,221.5 154.833,219.5 155.5,217.5C 163.983,215.065 172.983,213.565 182.5,213C 181.044,212.577 180.544,211.744 181,210.5C 183,211.833 185,211.833 187,210.5C 186.562,208.399 186.062,206.565 185.5,205C 187.955,203.369 190.455,203.203 193,204.5C 197.089,202.185 200.589,203.019 203.5,207C 205.764,207.236 207.931,207.736 210,208.5C 212.029,214.103 214.529,219.436 217.5,224.5 Z"/></g>
<g><path style="opacity:1" fill="#503520" d="M 199.5,139.5 C 199.5,139.833 199.5,140.167 199.5,140.5C 192.954,142.041 186.287,142.874 179.5,143C 167.999,148.069 155.999,150.069 143.5,149C 142.62,151.259 141.62,153.425 140.5,155.5C 138.449,160.537 136.949,165.87 136,171.5C 135.992,179.719 134.992,187.719 133,195.5C 132.551,202.339 132.718,209.172 133.5,216C 131.839,226.313 131.506,236.479 132.5,246.5C 132.617,249.44 131.95,252.107 130.5,254.5C 128.86,251.512 128.026,248.179 128,244.5C 127.033,228.441 127.533,212.441 129.5,196.5C 132.164,193.351 132.83,189.851 131.5,186C 133.051,179.705 134.384,173.371 135.5,167C 134.663,165.989 134.33,164.822 134.5,163.5C 135.501,160.828 136.501,158.162 137.5,155.5C 140.065,152.05 142.399,148.383 144.5,144.5C 146.333,143.948 148,143.115 149.5,142C 166.106,140.118 182.773,139.284 199.5,139.5 Z"/></g>
<g><path style="opacity:1" fill="#473425" d="M 134.5,163.5 C 134.33,164.822 134.663,165.989 135.5,167C 134.384,173.371 133.051,179.705 131.5,186C 132.83,189.851 132.164,193.351 129.5,196.5C 127.533,212.441 127.033,228.441 128,244.5C 128.026,248.179 128.86,251.512 130.5,254.5C 132.603,257.232 132.936,260.232 131.5,263.5C 130.482,262.807 129.482,262.141 128.5,261.5C 125.623,251.547 123.623,241.547 122.5,231.5C 122.5,223.5 122.5,215.5 122.5,207.5C 123.327,212.651 123.827,217.984 124,223.5C 124.667,222.167 125.333,222.167 126,223.5C 126.59,211.481 127.423,199.481 128.5,187.5C 129.872,179.199 131.872,171.199 134.5,163.5 Z"/></g>
<g><path style="opacity:1" fill="#4c321f" d="M 335.5,175.5 C 340.41,193.358 343.243,211.692 344,230.5C 344.278,231.416 344.778,232.082 345.5,232.5C 344.824,238.89 343.824,245.223 342.5,251.5C 341.797,253.629 340.797,255.629 339.5,257.5C 340.133,252.341 340.8,247.174 341.5,242C 340.029,238.115 339.029,234.115 338.5,230C 340.237,218.963 339.737,208.129 337,197.5C 336.168,190.185 335.668,182.852 335.5,175.5 Z"/></g>
<g><path style="opacity:1" fill="#1e1612" d="M 301.5,217.5 C 305.91,220.464 310.077,223.798 314,227.5C 314.901,230.071 316.234,232.404 318,234.5C 318.789,236.712 318.622,238.712 317.5,240.5C 316.492,238.456 315.492,236.456 314.5,234.5C 305.442,220.751 292.776,215.918 276.5,220C 269.12,222.884 263.454,227.717 259.5,234.5C 258.957,234.44 258.624,234.107 258.5,233.5C 259.537,230.297 261.203,227.463 263.5,225C 267.809,221.841 272.475,219.175 277.5,217C 285.583,214.954 293.583,215.12 301.5,217.5 Z"/></g>
<g><path style="opacity:1" fill="#231914" d="M 205.5,240.5 C 198.628,223.523 185.962,216.356 167.5,219C 163.819,219.872 160.819,221.706 158.5,224.5C 152.09,228.303 148.423,233.97 147.5,241.5C 146.5,241.5 145.5,241.5 144.5,241.5C 146.453,235.857 148.453,230.19 150.5,224.5C 151.209,223.596 152.209,223.263 153.5,223.5C 154.962,222.542 156.295,221.376 157.5,220C 177.06,211.884 192.893,216.384 205,233.5C 205.333,233.167 205.667,232.833 206,232.5C 206.801,235.367 206.634,238.034 205.5,240.5 Z"/></g>
<g><path style="opacity:1" fill="#644630" d="M 301.5,217.5 C 293.583,215.12 285.583,214.954 277.5,217C 272.475,219.175 267.809,221.841 263.5,225C 261.203,227.463 259.537,230.297 258.5,233.5C 258.624,234.107 258.957,234.44 259.5,234.5C 259.5,235.167 259.5,235.833 259.5,236.5C 257.323,240.799 256.323,245.465 256.5,250.5C 255.032,251.779 254.365,253.446 254.5,255.5C 252.833,255.5 251.167,255.5 249.5,255.5C 249.66,253.801 249.494,252.134 249,250.5C 246.443,251.646 245.11,250.646 245,247.5C 244.671,236.455 245.337,225.455 247,214.5C 255.839,201.775 267.339,197.942 281.5,203C 279.275,205.025 278.941,207.358 280.5,210C 282.519,210.45 284.352,211.283 286,212.5C 287,212.167 288,211.833 289,211.5C 293.303,213.403 297.47,215.403 301.5,217.5 Z"/></g>
<g><path style="opacity:1" fill="#0c0706" d="M 293.5,251.5 C 291.463,252.846 289.463,254.18 287.5,255.5C 275.84,255.324 271.84,249.991 275.5,239.5C 280.796,239.557 282.462,237.223 280.5,232.5C 286.382,230.263 291.382,231.597 295.5,236.5C 297.043,241.827 296.376,246.827 293.5,251.5 Z"/></g>
<g><path style="opacity:1" fill="#45341f" d="M 194.5,233.5 C 195.435,236.113 195.602,238.779 195,241.5C 194.333,240.167 193.333,239.167 192,238.5C 191.814,241.036 191.314,243.369 190.5,245.5C 190.326,234.444 184.993,230.111 174.5,232.5C 168.345,230.328 166.012,232.328 167.5,238.5C 165.538,243.477 166.538,247.81 170.5,251.5C 168.983,251.489 167.816,250.823 167,249.5C 167.055,254.131 165.555,255.131 162.5,252.5C 159.639,248.298 158.806,243.631 160,238.5C 161.557,234.642 163.39,230.975 165.5,227.5C 173.349,223.821 181.349,223.654 189.5,227C 191.066,229.326 192.732,231.492 194.5,233.5 Z"/></g>
<g><path style="opacity:1" fill="#0a0405" d="M 190.5,245.5 C 189.07,250.052 186.07,253.052 181.5,254.5C 177.206,255.193 173.539,254.193 170.5,251.5C 166.538,247.81 165.538,243.477 167.5,238.5C 173.419,240.921 175.752,238.921 174.5,232.5C 184.993,230.111 190.326,234.444 190.5,245.5 Z"/></g>
<g><path style="opacity:1" fill="#6b5e55" d="M 358.5,233.5 C 356.621,233.393 356.288,233.893 357.5,235C 355.866,235.494 354.199,235.66 352.5,235.5C 352.048,241.109 350.714,246.442 348.5,251.5C 347.978,253.219 346.978,254.552 345.5,255.5C 347.228,248.385 348.895,241.385 350.5,234.5C 353.034,232.408 355.701,232.074 358.5,233.5 Z"/></g>
<g><path style="opacity:1" fill="#63452f" d="M 358.5,233.5 C 361.626,235.16 363.293,237.826 363.5,241.5C 363.665,245.182 363.499,248.848 363,252.5C 362.667,252.167 362.333,251.833 362,251.5C 361.333,256.833 360.667,256.833 360,251.5C 358.014,257.308 356.514,263.308 355.5,269.5C 353.429,273.64 351.929,277.974 351,282.5C 349.933,283.943 348.766,285.276 347.5,286.5C 348.246,287.736 348.579,289.07 348.5,290.5C 347.178,290.33 346.011,290.663 345,291.5C 344.505,293.473 344.338,295.473 344.5,297.5C 343.371,295.372 343.204,293.039 344,290.5C 346.455,278.798 349.121,267.132 352,255.5C 353.313,250.466 356.479,247.799 361.5,247.5C 361.833,245.5 362.167,243.5 362.5,241.5C 360.436,241.687 358.436,242.187 356.5,243C 353.817,246.717 351.317,250.551 349,254.5C 348.517,253.552 348.351,252.552 348.5,251.5C 350.714,246.442 352.048,241.109 352.5,235.5C 354.199,235.66 355.866,235.494 357.5,235C 356.288,233.893 356.621,233.393 358.5,233.5 Z"/></g>
<g><path style="opacity:1" fill="#eeecee" d="M 314.5,234.5 C 314.586,235.496 314.252,236.329 313.5,237C 314.167,237.667 314.833,238.333 315.5,239C 314.736,241.069 314.236,243.236 314,245.5C 310.284,246.596 307.784,248.929 306.5,252.5C 305.77,250.659 305.103,248.825 304.5,247C 305.624,246.751 306.624,246.251 307.5,245.5C 305.866,242.896 304.533,240.229 303.5,237.5C 301.751,231.25 297.751,227.083 291.5,225C 279.56,221.515 271.227,225.349 266.5,236.5C 265.05,241.808 265.384,247.141 267.5,252.5C 267.081,253.672 266.415,254.672 265.5,255.5C 263.192,254.359 261.359,252.692 260,250.5C 259.501,245.845 259.334,241.179 259.5,236.5C 259.5,235.833 259.5,235.167 259.5,234.5C 263.454,227.717 269.12,222.884 276.5,220C 292.776,215.918 305.442,220.751 314.5,234.5 Z"/></g>
<g><path style="opacity:1" fill="#e5ddda" d="M 158.5,224.5 C 156.9,225.682 156.567,227.015 157.5,228.5C 155.611,229.604 153.945,230.937 152.5,232.5C 153.631,233.604 154.465,233.271 155,231.5C 155.483,232.448 155.649,233.448 155.5,234.5C 154.167,234.5 152.833,234.5 151.5,234.5C 150.975,239.413 152.142,243.747 155,247.5C 159.017,243.946 159.517,239.946 156.5,235.5C 157.246,234.264 157.579,232.93 157.5,231.5C 160.588,231.803 162.254,230.47 162.5,227.5C 163.5,227.5 164.5,227.5 165.5,227.5C 163.39,230.975 161.557,234.642 160,238.5C 158.806,243.631 159.639,248.298 162.5,252.5C 163.927,255.764 166.261,258.264 169.5,260C 173.73,261.29 178.064,261.79 182.5,261.5C 192.934,257.988 197.934,250.654 197.5,239.5C 200.063,245.012 199.729,250.678 196.5,256.5C 197.325,257.386 198.325,257.719 199.5,257.5C 185.797,265.325 171.797,265.491 157.5,258C 152.522,253.873 149.189,248.707 147.5,242.5C 147.5,242.167 147.5,241.833 147.5,241.5C 148.423,233.97 152.09,228.303 158.5,224.5 Z"/></g>
<g><path style="opacity:1" fill="#493620" d="M 303.5,237.5 C 303.5,240.833 303.5,244.167 303.5,247.5C 300.438,246.813 299.105,245.147 299.5,242.5C 298.222,246.043 296.222,249.043 293.5,251.5C 296.376,246.827 297.043,241.827 295.5,236.5C 291.382,231.597 286.382,230.263 280.5,232.5C 277.917,231.062 275.583,231.396 273.5,233.5C 268.158,240.031 268.491,246.531 274.5,253C 273.388,255.108 274.054,256.608 276.5,257.5C 276.103,258.525 275.437,258.692 274.5,258C 272.584,255.91 270.584,254.077 268.5,252.5C 266.816,247.324 266.15,241.991 266.5,236.5C 271.227,225.349 279.56,221.515 291.5,225C 297.751,227.083 301.751,231.25 303.5,237.5 Z"/></g>
<g><path style="opacity:1" fill="#eee7db" d="M 280.5,232.5 C 282.462,237.223 280.796,239.557 275.5,239.5C 273.919,237.858 273.253,235.858 273.5,233.5C 275.583,231.396 277.917,231.062 280.5,232.5 Z"/></g>
<g><path style="opacity:1" fill="#f8f2eb" d="M 350.5,300.5 C 350.5,300.167 350.5,299.833 350.5,299.5C 354.234,295.552 357.067,290.885 359,285.5C 362.832,270.877 364.332,256.21 363.5,241.5C 363.293,237.826 361.626,235.16 358.5,233.5C 355.701,232.074 353.034,232.408 350.5,234.5C 348.952,234.179 348.285,233.179 348.5,231.5C 352.324,229.819 356.324,229.319 360.5,230C 362.43,231.92 364.096,234.087 365.5,236.5C 364.674,237.451 364.508,238.451 365,239.5C 365.92,239.93 366.753,240.264 367.5,240.5C 366.366,246.335 366.366,252.168 367.5,258C 366.378,261.936 365.378,265.936 364.5,270C 364.46,275.148 364.627,280.314 365,285.5C 363.599,287.192 361.766,287.859 359.5,287.5C 357.516,292.433 355.682,297.433 354,302.5C 353.29,301.027 352.124,300.36 350.5,300.5 Z"/></g>
<g><path style="opacity:1" fill="#ecedea" d="M 205.5,240.5 C 206.234,241.708 206.567,243.041 206.5,244.5C 206.79,247.785 206.123,250.785 204.5,253.5C 202.251,254.08 200.585,255.413 199.5,257.5C 198.325,257.719 197.325,257.386 196.5,256.5C 199.729,250.678 200.063,245.012 197.5,239.5C 197.245,237.033 196.245,235.033 194.5,233.5C 192.732,231.492 191.066,229.326 189.5,227C 181.349,223.654 173.349,223.821 165.5,227.5C 164.5,227.5 163.5,227.5 162.5,227.5C 162.254,230.47 160.588,231.803 157.5,231.5C 157.579,232.93 157.246,234.264 156.5,235.5C 159.517,239.946 159.017,243.946 155,247.5C 152.142,243.747 150.975,239.413 151.5,234.5C 152.833,234.5 154.167,234.5 155.5,234.5C 155.649,233.448 155.483,232.448 155,231.5C 154.465,233.271 153.631,233.604 152.5,232.5C 153.945,230.937 155.611,229.604 157.5,228.5C 156.567,227.015 156.9,225.682 158.5,224.5C 160.819,221.706 163.819,219.872 167.5,219C 185.962,216.356 198.628,223.523 205.5,240.5 Z"/></g>
<g><path style="opacity:1" fill="#ebe3db" d="M 174.5,232.5 C 175.752,238.921 173.419,240.921 167.5,238.5C 166.012,232.328 168.345,230.328 174.5,232.5 Z"/></g>
<g><path style="opacity:1" fill="#624a2d" d="M 273.5,233.5 C 273.253,235.858 273.919,237.858 275.5,239.5C 271.84,249.991 275.84,255.324 287.5,255.5C 286.391,256.29 285.058,256.79 283.5,257C 284.056,257.383 284.389,257.883 284.5,258.5C 281.589,259.983 278.922,259.65 276.5,257.5C 274.054,256.608 273.388,255.108 274.5,253C 268.491,246.531 268.158,240.031 273.5,233.5 Z"/></g>
<g><path style="opacity:1" fill="#5d4b3a" d="M 170.5,251.5 C 173.539,254.193 177.206,255.193 181.5,254.5C 178.359,255.321 175.025,255.821 171.5,256C 172.634,257.016 172.301,257.683 170.5,258C 173.55,258.679 176.55,259.512 179.5,260.5C 181.225,258.908 182.225,259.242 182.5,261.5C 178.064,261.79 173.73,261.29 169.5,260C 166.261,258.264 163.927,255.764 162.5,252.5C 165.555,255.131 167.055,254.131 167,249.5C 167.816,250.823 168.983,251.489 170.5,251.5 Z"/></g>
<g><path style="opacity:1" fill="#866c54" d="M 194.5,233.5 C 196.245,235.033 197.245,237.033 197.5,239.5C 197.934,250.654 192.934,257.988 182.5,261.5C 182.225,259.242 181.225,258.908 179.5,260.5C 176.55,259.512 173.55,258.679 170.5,258C 172.301,257.683 172.634,257.016 171.5,256C 175.025,255.821 178.359,255.321 181.5,254.5C 186.07,253.052 189.07,250.052 190.5,245.5C 191.314,243.369 191.814,241.036 192,238.5C 193.333,239.167 194.333,240.167 195,241.5C 195.602,238.779 195.435,236.113 194.5,233.5 Z"/></g>
<g><path style="opacity:1" fill="#e0d6d1" d="M 314.5,234.5 C 315.492,236.456 316.492,238.456 317.5,240.5C 317.5,240.833 317.5,241.167 317.5,241.5C 317.435,243.696 316.768,245.696 315.5,247.5C 304.329,262.142 289.662,266.975 271.5,262C 266.964,260.238 262.964,257.738 259.5,254.5C 259.262,252.596 258.262,251.262 256.5,250.5C 256.323,245.465 257.323,240.799 259.5,236.5C 259.334,241.179 259.501,245.845 260,250.5C 261.359,252.692 263.192,254.359 265.5,255.5C 266.415,254.672 267.081,253.672 267.5,252.5C 265.384,247.141 265.05,241.808 266.5,236.5C 266.15,241.991 266.816,247.324 268.5,252.5C 270.342,256.508 273.342,259.341 277.5,261C 282.584,261.778 287.584,261.611 292.5,260.5C 298.697,258.303 302.364,253.97 303.5,247.5C 303.5,244.167 303.5,240.833 303.5,237.5C 304.533,240.229 305.866,242.896 307.5,245.5C 306.624,246.251 305.624,246.751 304.5,247C 305.103,248.825 305.77,250.659 306.5,252.5C 307.784,248.929 310.284,246.596 314,245.5C 314.236,243.236 314.736,241.069 315.5,239C 314.833,238.333 314.167,237.667 313.5,237C 314.252,236.329 314.586,235.496 314.5,234.5 Z"/></g>
<g><path style="opacity:1" fill="#907359" d="M 303.5,247.5 C 302.364,253.97 298.697,258.303 292.5,260.5C 290.039,259.469 287.373,258.802 284.5,258.5C 284.389,257.883 284.056,257.383 283.5,257C 285.058,256.79 286.391,256.29 287.5,255.5C 289.463,254.18 291.463,252.846 293.5,251.5C 296.222,249.043 298.222,246.043 299.5,242.5C 299.105,245.147 300.438,246.813 303.5,247.5 Z"/></g>
<g><path style="opacity:1" fill="#615449" d="M 268.5,252.5 C 270.584,254.077 272.584,255.91 274.5,258C 275.437,258.692 276.103,258.525 276.5,257.5C 278.922,259.65 281.589,259.983 284.5,258.5C 287.373,258.802 290.039,259.469 292.5,260.5C 287.584,261.611 282.584,261.778 277.5,261C 273.342,259.341 270.342,256.508 268.5,252.5 Z"/></g>
<g><path style="opacity:1" fill="#695444" d="M 119.5,234.5 C 121.785,239.457 122.785,244.79 122.5,250.5C 122.5,251.167 122.5,251.833 122.5,252.5C 121.279,251.972 120.113,251.305 119,250.5C 117.409,248.073 116.575,245.407 116.5,242.5C 114.516,242.617 112.85,241.95 111.5,240.5C 109.914,242.173 109.247,244.173 109.5,246.5C 109.5,250.833 109.5,255.167 109.5,259.5C 110.5,259.5 111.5,259.5 112.5,259.5C 114.929,266.445 115.596,273.612 114.5,281C 114.932,286.102 116.265,290.935 118.5,295.5C 120.972,296.766 123.306,296.766 125.5,295.5C 126.49,289.69 126.823,283.69 126.5,277.5C 127.875,284.289 128.542,291.289 128.5,298.5C 126.901,298.232 125.568,298.566 124.5,299.5C 119.2,299.384 115.7,296.717 114,291.5C 111.509,280.535 109.175,269.535 107,258.5C 105.625,250.143 106.625,242.143 110,234.5C 113.126,231.921 116.292,231.921 119.5,234.5 Z"/></g>
<g><path style="opacity:1" fill="#7e6757" d="M 147.5,242.5 C 149.189,248.707 152.522,253.873 157.5,258C 171.797,265.491 185.797,265.325 199.5,257.5C 200.585,255.413 202.251,254.08 204.5,253.5C 204.63,259.585 201.63,262.252 195.5,261.5C 195.167,264.5 196.5,265.833 199.5,265.5C 191.825,267.968 183.825,269.468 175.5,270C 163.474,270.749 151.474,270.582 139.5,269.5C 138.833,269.5 138.5,269.167 138.5,268.5C 139.5,268.5 140.5,268.5 141.5,268.5C 144.874,268.326 148.207,267.826 151.5,267C 149.211,265.752 146.877,264.585 144.5,263.5C 144.167,262.667 143.833,261.833 143.5,261C 143.516,257.83 144.849,256.997 147.5,258.5C 148.262,257.372 148.929,256.205 149.5,255C 147.649,254.163 145.816,253.329 144,252.5C 143.333,249.5 143.333,246.5 144,243.5C 145.011,242.663 146.178,242.33 147.5,242.5 Z"/></g>
<g><path style="opacity:1" fill="#d2c7bf" d="M 122.5,231.5 C 123.623,241.547 125.623,251.547 128.5,261.5C 128.833,262.833 129.167,264.167 129.5,265.5C 128.905,268.113 128.071,268.113 127,265.5C 125.32,260.423 123.82,255.423 122.5,250.5C 122.785,244.79 121.785,239.457 119.5,234.5C 120.5,234.5 121.5,234.5 122.5,234.5C 122.5,233.5 122.5,232.5 122.5,231.5 Z"/></g>
<g><path style="opacity:1" fill="#cacaca" d="M 223.5,260.5 C 234.655,259.919 245.322,261.585 255.5,265.5C 265.202,267.535 274.869,269.202 284.5,270.5C 280.602,270.782 276.602,270.782 272.5,270.5C 266.561,270.513 265.561,272.346 269.5,276C 272.525,276.133 275.192,277.133 277.5,279C 276.556,281.719 276.223,284.552 276.5,287.5C 278.5,287.5 280.5,287.5 282.5,287.5C 281.431,296.774 285.431,301.107 294.5,300.5C 296.833,300.333 299.167,300.167 301.5,300C 301.727,298.865 302.06,297.698 302.5,296.5C 308.57,296.43 311.57,293.43 311.5,287.5C 312.833,287.5 314.167,287.5 315.5,287.5C 313.939,281.91 314.605,276.743 317.5,272C 309.989,271.829 302.655,271.329 295.5,270.5C 303.5,270.5 311.5,270.5 319.5,270.5C 320.873,270.343 322.207,270.51 323.5,271C 320.793,273.262 319.793,275.929 320.5,279C 320.046,284.632 318.88,290.132 317,295.5C 315.421,297.041 313.587,298.208 311.5,299C 312.5,299.333 313.5,299.667 314.5,300C 305.729,303.024 296.562,304.857 287,305.5C 278.966,304.074 270.632,303.407 262,303.5C 239.774,305.096 217.608,304.429 195.5,301.5C 185.676,302.738 175.676,303.405 165.5,303.5C 159.24,302.322 152.907,301.322 146.5,300.5C 145.917,298.998 145.084,297.665 144,296.5C 143.465,298.271 142.631,298.604 141.5,297.5C 141.462,292.774 140.795,287.941 139.5,283C 140.714,279.398 140.547,275.898 139,272.5C 137.933,271.809 136.766,271.309 135.5,271C 137.058,270.79 138.391,270.29 139.5,269.5C 151.474,270.582 163.474,270.749 175.5,270C 183.825,269.468 191.825,267.968 199.5,265.5C 207.366,263.184 215.366,261.517 223.5,260.5 Z"/></g>
<g><path style="opacity:1" fill="#d2d2d2" d="M 255.5,265.5 C 254.019,267.247 252.019,268.414 249.5,269C 250.167,269.333 250.833,269.667 251.5,270C 250.207,270.49 248.873,270.657 247.5,270.5C 247.5,271.5 247.5,272.5 247.5,273.5C 251.285,273.369 254.952,272.702 258.5,271.5C 258.246,275.819 259.246,279.819 261.5,283.5C 264.768,284.487 268.102,284.82 271.5,284.5C 271.5,285.5 271.5,286.5 271.5,287.5C 268.813,287.336 266.146,287.503 263.5,288C 261.566,291.969 258.566,293.135 254.5,291.5C 247.732,293.004 240.899,294.337 234,295.5C 232.167,295.333 230.333,295.167 228.5,295C 229.451,294.282 229.617,293.449 229,292.5C 226.217,290.621 223.717,290.621 221.5,292.5C 214.218,292.349 207.552,290.349 201.5,286.5C 202.609,284.615 203.443,282.615 204,280.5C 205.011,279.663 206.178,279.33 207.5,279.5C 207.33,278.178 207.663,277.011 208.5,276C 210.717,274.725 213.051,273.725 215.5,273C 215.634,271.455 215.3,269.788 214.5,268C 214.759,266.739 215.426,265.739 216.5,265C 215.833,264.667 215.167,264.333 214.5,264C 216.087,263.138 217.754,262.471 219.5,262C 225.5,261.333 231.5,261.333 237.5,262C 240.406,263.847 243.573,265.014 247,265.5C 249.75,264.709 252.583,264.709 255.5,265.5 Z"/></g>
<g><path style="opacity:1" fill="#d2d2d2" d="M 284.5,270.5 C 288.167,270.5 291.833,270.5 295.5,270.5C 302.655,271.329 309.989,271.829 317.5,272C 314.605,276.743 313.939,281.91 315.5,287.5C 314.167,287.5 312.833,287.5 311.5,287.5C 311.57,293.43 308.57,296.43 302.5,296.5C 302.06,297.698 301.727,298.865 301.5,300C 299.167,300.167 296.833,300.333 294.5,300.5C 285.431,301.107 281.431,296.774 282.5,287.5C 280.5,287.5 278.5,287.5 276.5,287.5C 276.223,284.552 276.556,281.719 277.5,279C 275.192,277.133 272.525,276.133 269.5,276C 265.561,272.346 266.561,270.513 272.5,270.5C 276.602,270.782 280.602,270.782 284.5,270.5 Z"/></g>
<g><path style="opacity:1" fill="#4a311c" d="M 344.5,297.5 C 346.499,298.989 348.499,299.656 350.5,299.5C 350.5,299.833 350.5,300.167 350.5,300.5C 347.167,300.167 343.833,299.833 340.5,299.5C 340.389,298.883 340.056,298.383 339.5,298C 341.152,296.53 342.152,294.697 342.5,292.5C 341.629,285.523 341.629,278.523 342.5,271.5C 343.501,266.161 344.501,260.828 345.5,255.5C 346.978,254.552 347.978,253.219 348.5,251.5C 348.351,252.552 348.517,253.552 349,254.5C 351.317,250.551 353.817,246.717 356.5,243C 358.436,242.187 360.436,241.687 362.5,241.5C 362.167,243.5 361.833,245.5 361.5,247.5C 356.479,247.799 353.313,250.466 352,255.5C 349.121,267.132 346.455,278.798 344,290.5C 343.204,293.039 343.371,295.372 344.5,297.5 Z"/></g>
<g><path style="opacity:1" fill="#4a311c" d="M 122.5,252.5 C 123.033,260.963 124.366,269.296 126.5,277.5C 126.823,283.69 126.49,289.69 125.5,295.5C 123.934,282.005 121.6,268.672 118.5,255.5C 116.79,253.292 115.29,250.959 114,248.5C 112.53,247.733 111.03,247.067 109.5,246.5C 109.247,244.173 109.914,242.173 111.5,240.5C 112.85,241.95 114.516,242.617 116.5,242.5C 116.575,245.407 117.409,248.073 119,250.5C 120.113,251.305 121.279,251.972 122.5,252.5 Z"/></g>
<g><path style="opacity:1" fill="#65442b" d="M 109.5,246.5 C 111.03,247.067 112.53,247.733 114,248.5C 115.29,250.959 116.79,253.292 118.5,255.5C 121.6,268.672 123.934,282.005 125.5,295.5C 123.306,296.766 120.972,296.766 118.5,295.5C 116.265,290.935 114.932,286.102 114.5,281C 115.596,273.612 114.929,266.445 112.5,259.5C 111.5,259.5 110.5,259.5 109.5,259.5C 109.5,255.167 109.5,250.833 109.5,246.5 Z"/></g>
<g><path style="opacity:1" fill="#3e2f22" d="M 342.5,271.5 C 341.629,278.523 341.629,285.523 342.5,292.5C 342.152,294.697 341.152,296.53 339.5,298C 340.056,298.383 340.389,298.883 340.5,299.5C 339.222,299.782 338.222,300.449 337.5,301.5C 336.853,300.726 336.52,299.726 336.5,298.5C 337.662,291.205 338.495,283.871 339,276.5C 340.286,274.817 341.453,273.151 342.5,271.5 Z"/></g>
<g><path style="opacity:1" fill="#6d503a" d="M 363.5,241.5 C 364.332,256.21 362.832,270.877 359,285.5C 357.067,290.885 354.234,295.552 350.5,299.5C 348.499,299.656 346.499,298.989 344.5,297.5C 344.338,295.473 344.505,293.473 345,291.5C 346.011,290.663 347.178,290.33 348.5,290.5C 348.579,289.07 348.246,287.736 347.5,286.5C 348.766,285.276 349.933,283.943 351,282.5C 351.929,277.974 353.429,273.64 355.5,269.5C 356.514,263.308 358.014,257.308 360,251.5C 360.667,256.833 361.333,256.833 362,251.5C 362.333,251.833 362.667,252.167 363,252.5C 363.499,248.848 363.665,245.182 363.5,241.5 Z"/></g>
<g><path style="opacity:1" fill="#969390" d="M 122.5,250.5 C 123.82,255.423 125.32,260.423 127,265.5C 128.071,268.113 128.905,268.113 129.5,265.5C 130.401,266.29 131.068,267.29 131.5,268.5C 130.761,268.369 130.094,268.536 129.5,269C 130.312,275.085 130.812,281.252 131,287.5C 131.333,283.167 131.667,278.833 132,274.5C 133.615,284.696 137.115,294.03 142.5,302.5C 146.806,303.25 151.14,304.417 155.5,306C 149.441,307.999 143.774,306.999 138.5,303C 136.527,302.505 134.527,302.338 132.5,302.5C 132.66,300.801 132.494,299.134 132,297.5C 131.821,301.025 131.321,304.359 130.5,307.5C 129.612,304.946 129.279,302.279 129.5,299.5C 127.833,299.5 126.167,299.5 124.5,299.5C 125.568,298.566 126.901,298.232 128.5,298.5C 128.542,291.289 127.875,284.289 126.5,277.5C 124.366,269.296 123.033,260.963 122.5,252.5C 122.5,251.833 122.5,251.167 122.5,250.5 Z"/></g>
<g><path style="opacity:1" fill="#bdbcbc" d="M 332.5,303.5 C 332.666,295.493 332.5,287.493 332,279.5C 331.548,285.438 330.215,291.104 328,296.5C 327.329,297.252 326.496,297.586 325.5,297.5C 323.402,296.086 322.402,296.752 322.5,299.5C 314.503,302.582 306.17,304.582 297.5,305.5C 294.963,307.267 292.297,308.767 289.5,310C 291.221,311.527 293.221,312.527 295.5,313C 302.145,313.397 308.645,313.23 315,312.5C 316.726,312.946 318.226,313.779 319.5,315C 319.374,317.924 318.041,320.591 315.5,323C 315.833,323.333 316.167,323.667 316.5,324C 313.857,326.361 311.524,328.361 309.5,330C 305.023,331.659 300.523,333.159 296,334.5C 295.586,334.043 295.086,333.709 294.5,333.5C 288.981,335.119 283.314,335.952 277.5,336C 271.579,337.607 265.912,339.941 260.5,343C 251.198,344.685 241.865,346.019 232.5,347C 236.017,348.109 236.184,349.276 233,350.5C 229.539,349.782 226.039,349.282 222.5,349C 225.553,348.821 228.553,348.321 231.5,347.5C 216.109,345.896 201.442,342.063 187.5,336C 180.122,334.981 173.122,332.981 166.5,330C 165.953,329.075 165.287,328.242 164.5,327.5C 163.304,327.846 163.304,328.346 164.5,329C 163.167,329.667 161.833,329.667 160.5,329C 160.833,328.667 161.167,328.333 161.5,328C 160.207,327.51 158.873,327.343 157.5,327.5C 157.221,324.882 156.554,322.382 155.5,320C 156.833,319.667 158.167,319.333 159.5,319C 170.167,318.667 180.833,318.333 191.5,318C 195.563,317.484 199.563,316.651 203.5,315.5C 209.602,317.611 215.602,317.111 221.5,314C 219.527,313.505 217.527,313.338 215.5,313.5C 215.5,312.167 215.5,310.833 215.5,309.5C 226.147,308.991 226.147,308.158 215.5,307C 206.152,306.722 196.818,306.222 187.5,305.5C 185.9,305.551 184.4,305.884 183,306.5C 177.036,305.727 171.203,304.727 165.5,303.5C 175.676,303.405 185.676,302.738 195.5,301.5C 217.608,304.429 239.774,305.096 262,303.5C 270.632,303.407 278.966,304.074 287,305.5C 296.562,304.857 305.729,303.024 314.5,300C 313.5,299.667 312.5,299.333 311.5,299C 313.587,298.208 315.421,297.041 317,295.5C 318.88,290.132 320.046,284.632 320.5,279C 319.793,275.929 320.793,273.262 323.5,271C 322.207,270.51 320.873,270.343 319.5,270.5C 319.5,270.167 319.5,269.833 319.5,269.5C 323.846,269.666 328.179,269.499 332.5,269C 333.737,268.768 334.737,268.268 335.5,267.5C 336.831,264.171 338.164,260.838 339.5,257.5C 340.797,255.629 341.797,253.629 342.5,251.5C 343.268,250.737 343.768,249.737 344,248.5C 344.667,251.167 344.667,253.833 344,256.5C 340.691,261.451 338.191,266.785 336.5,272.5C 335.668,280.479 335.168,288.479 335,296.5C 335.03,299.361 334.197,301.695 332.5,303.5 Z"/></g>
<g><path style="opacity:1" fill="#b5b5b5" d="M 131.5,268.5 C 133.833,268.5 136.167,268.5 138.5,268.5C 138.5,269.167 138.833,269.5 139.5,269.5C 138.391,270.29 137.058,270.79 135.5,271C 136.766,271.309 137.933,271.809 139,272.5C 140.547,275.898 140.714,279.398 139.5,283C 140.795,287.941 141.462,292.774 141.5,297.5C 142.631,298.604 143.465,298.271 144,296.5C 145.084,297.665 145.917,298.998 146.5,300.5C 152.907,301.322 159.24,302.322 165.5,303.5C 171.203,304.727 177.036,305.727 183,306.5C 184.4,305.884 185.9,305.551 187.5,305.5C 196.818,306.222 206.152,306.722 215.5,307C 226.147,308.158 226.147,308.991 215.5,309.5C 215.5,310.833 215.5,312.167 215.5,313.5C 217.527,313.338 219.527,313.505 221.5,314C 215.602,317.111 209.602,317.611 203.5,315.5C 199.563,316.651 195.563,317.484 191.5,318C 180.833,318.333 170.167,318.667 159.5,319C 158.167,319.333 156.833,319.667 155.5,320C 156.554,322.382 157.221,324.882 157.5,327.5C 158.873,327.343 160.207,327.51 161.5,328C 161.167,328.333 160.833,328.667 160.5,329C 161.833,329.667 163.167,329.667 164.5,329C 163.304,328.346 163.304,327.846 164.5,327.5C 165.287,328.242 165.953,329.075 166.5,330C 173.122,332.981 180.122,334.981 187.5,336C 201.442,342.063 216.109,345.896 231.5,347.5C 228.553,348.321 225.553,348.821 222.5,349C 226.039,349.282 229.539,349.782 233,350.5C 236.184,349.276 236.017,348.109 232.5,347C 241.865,346.019 251.198,344.685 260.5,343C 265.912,339.941 271.579,337.607 277.5,336C 283.314,335.952 288.981,335.119 294.5,333.5C 295.086,333.709 295.586,334.043 296,334.5C 300.523,333.159 305.023,331.659 309.5,330C 311.524,328.361 313.857,326.361 316.5,324C 316.167,323.667 315.833,323.333 315.5,323C 318.041,320.591 319.374,317.924 319.5,315C 318.226,313.779 316.726,312.946 315,312.5C 308.645,313.23 302.145,313.397 295.5,313C 293.221,312.527 291.221,311.527 289.5,310C 292.297,308.767 294.963,307.267 297.5,305.5C 306.17,304.582 314.503,302.582 322.5,299.5C 322.402,296.752 323.402,296.086 325.5,297.5C 325.577,298.75 326.244,299.583 327.5,300C 319.874,303.406 311.874,305.24 303.5,305.5C 303.5,306.833 303.5,308.167 303.5,309.5C 307.39,309.728 311.224,309.394 315,308.5C 318.107,308.818 320.941,309.818 323.5,311.5C 324.167,310.833 324.833,310.167 325.5,309.5C 325.833,309.833 326.167,310.167 326.5,310.5C 324.494,314.837 322.494,319.17 320.5,323.5C 317.114,325.825 314.114,328.492 311.5,331.5C 308.05,333.208 304.383,334.541 300.5,335.5C 297.482,335.335 294.482,335.502 291.5,336C 287.375,337.323 283.375,338.823 279.5,340.5C 279.5,341.833 279.5,343.167 279.5,344.5C 285.469,344.346 291.302,345.013 297,346.5C 296.67,352.493 294.17,357.493 289.5,361.5C 266.095,372.411 241.428,376.578 215.5,374C 208.383,371.479 201.049,369.813 193.5,369C 185.646,366.159 177.98,362.826 170.5,359C 170.047,356.307 168.547,354.473 166,353.5C 162.952,344.708 166.119,341.375 175.5,343.5C 175.854,341.459 175.854,339.626 175.5,338C 173.668,337.252 172.001,336.252 170.5,335C 165.484,334.277 160.651,333.11 156,331.5C 152.879,328.691 149.379,326.524 145.5,325C 145.137,321.831 143.803,319.164 141.5,317C 142.475,314.588 141.808,312.588 139.5,311C 147.479,309.906 155.479,308.906 163.5,308C 157.081,304.028 150.081,302.195 142.5,302.5C 137.115,294.03 133.615,284.696 132,274.5C 131.667,278.833 131.333,283.167 131,287.5C 130.812,281.252 130.312,275.085 129.5,269C 130.094,268.536 130.761,268.369 131.5,268.5 Z"/></g>
<g><path style="opacity:1" fill="#a0a0a0" d="M 332.5,303.5 C 333.98,306.255 333.813,308.922 332,311.5C 331.667,310.833 331.333,310.167 331,309.5C 329.107,312.618 327.774,315.951 327,319.5C 324.176,322.458 321.342,325.458 318.5,328.5C 316.423,330.082 314.09,331.082 311.5,331.5C 314.114,328.492 317.114,325.825 320.5,323.5C 322.494,319.17 324.494,314.837 326.5,310.5C 326.167,310.167 325.833,309.833 325.5,309.5C 324.833,310.167 324.167,310.833 323.5,311.5C 320.941,309.818 318.107,308.818 315,308.5C 311.224,309.394 307.39,309.728 303.5,309.5C 303.5,308.167 303.5,306.833 303.5,305.5C 311.874,305.24 319.874,303.406 327.5,300C 326.244,299.583 325.577,298.75 325.5,297.5C 326.496,297.586 327.329,297.252 328,296.5C 330.215,291.104 331.548,285.438 332,279.5C 332.5,287.493 332.666,295.493 332.5,303.5 Z"/></g>
<g><path style="opacity:1" fill="#c8c8c8" d="M 222.5,317.5 C 246.906,318.912 271.239,320.578 295.5,322.5C 295.5,321.5 295.5,320.5 295.5,319.5C 298.167,319.5 300.833,319.5 303.5,319.5C 303.988,322.711 303.321,325.544 301.5,328C 299.567,328.251 297.734,328.751 296,329.5C 293.418,328.688 291.251,329.521 289.5,332C 282.529,333.548 275.529,334.881 268.5,336C 261.793,339.242 254.793,341.576 247.5,343C 237.833,343.667 228.167,343.667 218.5,343C 209.724,340.641 200.724,337.975 191.5,335C 189.004,333.92 186.67,332.586 184.5,331C 181.424,330.654 178.424,329.988 175.5,329C 176.5,328.667 177.5,328.333 178.5,328C 176.5,327.667 174.5,327.333 172.5,327C 173.167,326.333 173.833,325.667 174.5,325C 189.858,323.22 205.191,321.22 220.5,319C 221.416,318.722 222.082,318.222 222.5,317.5 Z"/></g>
<g><path style="opacity:1" fill="#8b8b8b" d="M 153.5,343.5 C 151.198,344.86 149.532,344.193 148.5,341.5C 149.82,338.011 148.487,336.178 144.5,336C 143.489,333.732 142.156,331.899 140.5,330.5C 139.893,330.624 139.56,330.957 139.5,331.5C 135.063,324.861 132.397,317.528 131.5,309.5C 132.209,308.596 133.209,308.263 134.5,308.5C 134.5,309.5 134.5,310.5 134.5,311.5C 135.5,311.5 136.5,311.5 137.5,311.5C 138.356,316.841 140.022,321.174 142.5,324.5C 145.784,326.117 148.451,328.45 150.5,331.5C 154.605,333.563 158.938,334.897 163.5,335.5C 163.291,336.086 162.957,336.586 162.5,337C 158.848,337.499 155.182,337.665 151.5,337.5C 152.167,339.5 152.833,341.5 153.5,343.5 Z"/></g>
<g><path style="opacity:1" fill="#8d8d8c" d="M 346.5,228.5 C 347.906,228.973 348.573,229.973 348.5,231.5C 348.285,233.179 348.952,234.179 350.5,234.5C 348.895,241.385 347.228,248.385 345.5,255.5C 344.501,260.828 343.501,266.161 342.5,271.5C 341.453,273.151 340.286,274.817 339,276.5C 338.495,283.871 337.662,291.205 336.5,298.5C 336.52,299.726 336.853,300.726 337.5,301.5C 334.989,312.042 331.323,322.042 326.5,331.5C 326.631,330.761 326.464,330.094 326,329.5C 324.392,333.043 322.058,336.043 319,338.5C 318.027,340.392 317.36,342.392 317,344.5C 315.817,343.269 314.651,343.269 313.5,344.5C 312.208,346.667 311.375,349 311,351.5C 306.843,353.818 303.01,356.484 299.5,359.5C 301.85,357.787 302.85,355.453 302.5,352.5C 304.201,352.034 305.701,352.034 307,352.5C 309.347,347.497 311.347,342.497 313,337.5C 312.667,337.833 312.333,338.167 312,338.5C 308.589,337.707 305.089,337.207 301.5,337C 300.944,336.617 300.611,336.117 300.5,335.5C 304.383,334.541 308.05,333.208 311.5,331.5C 314.09,331.082 316.423,330.082 318.5,328.5C 321.342,325.458 324.176,322.458 327,319.5C 327.774,315.951 329.107,312.618 331,309.5C 331.333,310.167 331.667,310.833 332,311.5C 333.813,308.922 333.98,306.255 332.5,303.5C 334.197,301.695 335.03,299.361 335,296.5C 335.168,288.479 335.668,280.479 336.5,272.5C 338.191,266.785 340.691,261.451 344,256.5C 344.667,253.833 344.667,251.167 344,248.5C 343.768,249.737 343.268,250.737 342.5,251.5C 343.824,245.223 344.824,238.89 345.5,232.5C 345.433,231.041 345.766,229.708 346.5,228.5 Z"/></g>
<g><path style="opacity:1" fill="#a3a3a3" d="M 142.5,302.5 C 150.081,302.195 157.081,304.028 163.5,308C 155.479,308.906 147.479,309.906 139.5,311C 141.808,312.588 142.475,314.588 141.5,317C 143.803,319.164 145.137,321.831 145.5,325C 149.379,326.524 152.879,328.691 156,331.5C 160.651,333.11 165.484,334.277 170.5,335C 172.001,336.252 173.668,337.252 175.5,338C 175.854,339.626 175.854,341.459 175.5,343.5C 166.119,341.375 162.952,344.708 166,353.5C 168.547,354.473 170.047,356.307 170.5,359C 177.98,362.826 185.646,366.159 193.5,369C 201.049,369.813 208.383,371.479 215.5,374C 241.428,376.578 266.095,372.411 289.5,361.5C 294.17,357.493 296.67,352.493 297,346.5C 291.302,345.013 285.469,344.346 279.5,344.5C 279.5,343.167 279.5,341.833 279.5,340.5C 283.375,338.823 287.375,337.323 291.5,336C 294.482,335.502 297.482,335.335 300.5,335.5C 300.611,336.117 300.944,336.617 301.5,337C 305.089,337.207 308.589,337.707 312,338.5C 312.333,338.167 312.667,337.833 313,337.5C 311.347,342.497 309.347,347.497 307,352.5C 305.701,352.034 304.201,352.034 302.5,352.5C 302.85,355.453 301.85,357.787 299.5,359.5C 294.672,361.538 290.005,363.871 285.5,366.5C 272.863,369.89 260.196,373.39 247.5,377C 237.833,377.667 228.167,377.667 218.5,377C 211.44,375.355 204.44,373.855 197.5,372.5C 190.599,371.087 183.933,369.087 177.5,366.5C 175.075,363.238 171.742,361.738 167.5,362C 164.942,357.94 161.609,354.773 157.5,352.5C 156.691,350.929 156.357,349.262 156.5,347.5C 155.5,347.5 154.5,347.5 153.5,347.5C 153.5,346.167 153.5,344.833 153.5,343.5C 152.833,341.5 152.167,339.5 151.5,337.5C 155.182,337.665 158.848,337.499 162.5,337C 162.957,336.586 163.291,336.086 163.5,335.5C 158.938,334.897 154.605,333.563 150.5,331.5C 148.451,328.45 145.784,326.117 142.5,324.5C 140.022,321.174 138.356,316.841 137.5,311.5C 136.5,311.5 135.5,311.5 134.5,311.5C 134.5,310.5 134.5,309.5 134.5,308.5C 133.209,308.263 132.209,308.596 131.5,309.5C 130.662,309.158 130.328,308.492 130.5,307.5C 131.321,304.359 131.821,301.025 132,297.5C 132.494,299.134 132.66,300.801 132.5,302.5C 134.527,302.338 136.527,302.505 138.5,303C 143.774,306.999 149.441,307.999 155.5,306C 151.14,304.417 146.806,303.25 142.5,302.5 Z"/></g>
<g><path style="opacity:1" fill="#bfbfbf" d="M 221.5,352.5 C 234.48,352.122 247.48,352.789 260.5,354.5C 266.024,354.016 271.524,353.349 277,352.5C 281.265,353.02 283.431,355.354 283.5,359.5C 278.959,359.331 278.626,359.998 282.5,361.5C 276.594,362.805 270.76,364.472 265,366.5C 264.228,366.355 263.561,366.022 263,365.5C 260.932,367.562 258.432,368.728 255.5,369C 246.57,370.661 237.57,371.828 228.5,372.5C 222.209,371.087 215.876,369.753 209.5,368.5C 208.034,367.865 206.7,367.031 205.5,366C 197.893,364.932 190.56,362.932 183.5,360C 184.5,359.667 185.5,359.333 186.5,359C 184.561,358.092 183.561,356.592 183.5,354.5C 191.869,354.983 200.202,355.65 208.5,356.5C 212.651,354.287 216.984,352.954 221.5,352.5 Z"/></g>
<g><path style="opacity:1" fill="#797979" d="M 153.5,343.5 C 153.5,344.833 153.5,346.167 153.5,347.5C 154.5,347.5 155.5,347.5 156.5,347.5C 156.357,349.262 156.691,350.929 157.5,352.5C 161.609,354.773 164.942,357.94 167.5,362C 171.742,361.738 175.075,363.238 177.5,366.5C 180.952,368.398 184.285,370.565 187.5,373C 183.23,372.251 178.896,371.918 174.5,372C 177.915,372.406 180.582,374.072 182.5,377C 180.803,377.384 179.137,377.218 177.5,376.5C 171.606,371.962 165.773,367.295 160,362.5C 155.4,354.577 150.067,347.243 144,340.5C 142.239,337.589 140.739,334.589 139.5,331.5C 139.56,330.957 139.893,330.624 140.5,330.5C 142.156,331.899 143.489,333.732 144.5,336C 148.487,336.178 149.82,338.011 148.5,341.5C 149.532,344.193 151.198,344.86 153.5,343.5 Z"/></g>
<g><path style="opacity:1" fill="#7b7b7b" d="M 326.5,331.5 C 320.974,341.205 314.808,350.538 308,359.5C 285.32,381.962 257.82,393.129 225.5,393C 221.019,392.734 216.686,391.901 212.5,390.5C 222.637,390.52 232.97,390.353 243.5,390C 246.167,389.667 248.833,389.333 251.5,389C 250.944,388.617 250.611,388.117 250.5,387.5C 256.687,385.224 264.354,383.391 273.5,382C 272.66,380.334 273.16,380.167 275,381.5C 275.637,379.697 276.803,378.364 278.5,377.5C 278.167,377.167 277.833,376.833 277.5,376.5C 274.113,377.235 270.446,377.902 266.5,378.5C 264.5,378.333 262.5,378.167 260.5,378C 266.964,374.916 273.631,372.249 280.5,370C 282.346,368.97 284.013,367.804 285.5,366.5C 290.005,363.871 294.672,361.538 299.5,359.5C 303.01,356.484 306.843,353.818 311,351.5C 311.375,349 312.208,346.667 313.5,344.5C 314.651,343.269 315.817,343.269 317,344.5C 317.36,342.392 318.027,340.392 319,338.5C 322.058,336.043 324.392,333.043 326,329.5C 326.464,330.094 326.631,330.761 326.5,331.5 Z"/></g>
<g><path style="opacity:1" fill="#8b8b8b" d="M 177.5,366.5 C 183.933,369.087 190.599,371.087 197.5,372.5C 201.574,374.534 205.907,376.2 210.5,377.5C 215.676,378.233 220.676,379.399 225.5,381C 215.257,381.116 205.257,380.782 195.5,380C 206.218,386.95 218.051,390.116 231,389.5C 237.623,389.544 244.123,388.878 250.5,387.5C 250.611,388.117 250.944,388.617 251.5,389C 248.833,389.333 246.167,389.667 243.5,390C 232.97,390.353 222.637,390.52 212.5,390.5C 206.141,388.826 199.807,386.993 193.5,385C 188.201,381.853 182.867,379.02 177.5,376.5C 179.137,377.218 180.803,377.384 182.5,377C 180.582,374.072 177.915,372.406 174.5,372C 178.896,371.918 183.23,372.251 187.5,373C 184.285,370.565 180.952,368.398 177.5,366.5 Z"/></g>
<g><path style="opacity:1" fill="#9b9b9b" d="M 285.5,366.5 C 284.013,367.804 282.346,368.97 280.5,370C 273.631,372.249 266.964,374.916 260.5,378C 262.5,378.167 264.5,378.333 266.5,378.5C 270.446,377.902 274.113,377.235 277.5,376.5C 277.833,376.833 278.167,377.167 278.5,377.5C 276.803,378.364 275.637,379.697 275,381.5C 273.16,380.167 272.66,380.334 273.5,382C 264.354,383.391 256.687,385.224 250.5,387.5C 244.123,388.878 237.623,389.544 231,389.5C 218.051,390.116 206.218,386.95 195.5,380C 205.257,380.782 215.257,381.116 225.5,381C 220.676,379.399 215.676,378.233 210.5,377.5C 205.907,376.2 201.574,374.534 197.5,372.5C 204.44,373.855 211.44,375.355 218.5,377C 228.167,377.667 237.833,377.667 247.5,377C 260.196,373.39 272.863,369.89 285.5,366.5 Z"/></g>
</svg>
